{
.appVersion = "1286";
copyright = "Copyright © 2020 by Florian Karsten. All rights reserved.";
customParameters = (
{
name = Axes;
value = (
{
Name = Weight;
Tag = wght;
},
{
Name = "Optical size";
Tag = opsz;
},
{
Name = Extravaganza;
Tag = extr;
}
);
},
{
name = "Variable Font File Name";
value = "FKWriterVariable-May-2020";
},
{
name = "Variable Font Family Name";
value = "FK Writer Variable May-2020";
}
);
date = "2020-05-07 14:32:21 +0000";
designer = "Florian Karsten";
designerURL = fonts.floriankarsten.com;
familyName = "FK Writer (contrast test may-2020)";
featurePrefixes = (
{
automatic = 1;
code = "languagesystem DFLT dflt;\012";
name = Languagesystems;
}
);
features = (
{
automatic = 1;
code = "lookup ccmp_Other_1 {\012	@CombiningTopAccents = [dotaccentcomb];\012	sub [i j]' @CombiningTopAccents by [idotless jdotless];\012} ccmp_Other_1;\012";
name = ccmp;
}
);
fontMaster = (
{
alignmentZones = (
"{760, 10}",
"{720, 10}",
"{550, 10}",
"{0, -10}",
"{-190, -10}"
);
ascender = 760;
capHeight = 720;
custom = "Display Normal";
descender = -200;
id = "CA54B7DC-FBBB-40FE-ACF3-AABDD76D6A7B";
weight = Light;
weightValue = 200;
widthValue = 0;
xHeight = 550;
},
{
alignmentZones = (
"{760, 10}",
"{720, 10}",
"{550, 10}",
"{0, -10}",
"{-190, -10}"
);
ascender = 760;
capHeight = 720;
custom = "Caption Normal";
descender = -200;
id = "8E2477B1-6F82-4933-924D-A4D021D30CA2";
weight = Light;
weightValue = 200;
xHeight = 550;
},
{
alignmentZones = (
"{760, 10}",
"{720, 10}",
"{560, 10}",
"{0, -10}",
"{-190, -10}"
);
ascender = 760;
capHeight = 720;
custom = "Display Normal";
descender = -200;
id = "15B5FD12-AAB5-4088-829B-CB8139BF8816";
weight = Bold;
weightValue = 700;
widthValue = 0;
xHeight = 560;
},
{
alignmentZones = (
"{760, 10}",
"{720, 10}",
"{560, 10}",
"{0, -10}",
"{-190, -10}"
);
ascender = 760;
capHeight = 720;
custom = "Caption Normal";
descender = -200;
id = "38DA3315-22D6-4CA2-8458-CB7E0975637F";
weight = Bold;
weightValue = 700;
xHeight = 560;
}
);
glyphs = (
{
glyphname = A;
lastChange = "2020-05-07 14:19:44 +0000";
layers = (
{
layerId = "8E2477B1-6F82-4933-924D-A4D021D30CA2";
paths = (
{
closed = 1;
nodes = (
"103 40 LINE",
"151 40 LINE",
"404 697 LINE",
"402 720 LINE",
"365 720 LINE"
);
},
{
closed = 1;
nodes = (
"394 720 LINE",
"375 669 LINE",
"617 40 LINE",
"671 40 LINE",
"409 720 LINE"
);
},
{
closed = 1;
nodes = (
"28 0 LINE",
"256 0 LINE",
"256 40 LINE",
"28 40 LINE"
);
},
{
closed = 1;
nodes = (
"507 0 LINE",
"746 0 LINE",
"746 40 LINE",
"507 40 LINE"
);
},
{
closed = 1;
nodes = (
"558 285 LINE",
"213 285 LINE",
"213 245 LINE",
"558 245 LINE"
);
}
);
width = 774;
},
{
layerId = "38DA3315-22D6-4CA2-8458-CB7E0975637F";
paths = (
{
closed = 1;
nodes = (
"90 70 LINE",
"170 70 LINE",
"430 690 LINE",
"400 720 LINE",
"363 720 LINE"
);
},
{
closed = 1;
nodes = (
"394 720 LINE",
"346 571 LINE",
"556 70 LINE",
"722 70 LINE",
"439 720 LINE"
);
},
{
closed = 1;
nodes = (
"20 0 LINE",
"265 0 LINE",
"265 70 LINE",
"20 70 LINE"
);
},
{
closed = 1;
nodes = (
"456 0 LINE",
"792 0 LINE",
"792 70 LINE",
"456 70 LINE"
);
},
{
closed = 1;
nodes = (
"557 285 LINE",
"204 285 LINE",
"204 215 LINE",
"557 215 LINE"
);
}
);
width = 812;
},
{
layerId = "15B5FD12-AAB5-4088-829B-CB8139BF8816";
paths = (
{
closed = 1;
nodes = (
"82 20 LINE",
"106 20 LINE",
"383 690 LINE",
"380 720 LINE",
"372 720 LINE"
);
},
{
closed = 1;
nodes = (
"376 720 LINE",
"317 555 LINE",
"540 20 LINE",
"706 20 LINE",
"396 720 LINE"
);
},
{
closed = 1;
nodes = (
"12 0 LINE",
"201 0 LINE",
"201 20 LINE",
"12 20 LINE"
);
},
{
closed = 1;
nodes = (
"440 0 LINE",
"776 0 LINE",
"776 20 LINE",
"440 20 LINE"
);
},
{
closed = 1;
nodes = (
"528 245 LINE",
"182 245 LINE",
"182 225 LINE",
"528 225 LINE"
);
}
);
width = 788;
},
{
layerId = "CA54B7DC-FBBB-40FE-ACF3-AABDD76D6A7B";
paths = (
{
closed = 1;
nodes = (
"91 20 LINE",
"115 20 LINE",
"373 695 LINE",
"372 720 LINE",
"359 720 LINE"
);
},
{
closed = 1;
nodes = (
"366 720 LINE",
"347 668 LINE",
"595 20 LINE",
"649 20 LINE",
"381 720 LINE"
);
},
{
closed = 1;
nodes = (
"16 0 LINE",
"220 0 LINE",
"220 20 LINE",
"16 20 LINE"
);
},
{
closed = 1;
nodes = (
"485 0 LINE",
"724 0 LINE",
"724 20 LINE",
"485 20 LINE"
);
},
{
closed = 1;
nodes = (
"529 275 LINE",
"196 275 LINE",
"196 255 LINE",
"529 255 LINE"
);
}
);
width = 740;
}
);
leftKerningGroup = A;
rightKerningGroup = A;
unicode = 0041;
},
{
glyphname = B;
lastChange = "2020-05-07 14:19:08 +0000";
layers = (
{
layerId = "8E2477B1-6F82-4933-924D-A4D021D30CA2";
paths = (
{
closed = 1;
nodes = (
"210 720 LINE",
"158 720 LINE",
"158 0 LINE",
"210 0 LINE"
);
},
{
closed = 1;
nodes = (
"210 680 LINE",
"430 680 LINE SMOOTH",
"534 680 OFFCURVE",
"600 631 OFFCURVE",
"600 532 CURVE SMOOTH",
"600 433 OFFCURVE",
"534 384 OFFCURVE",
"430 384 CURVE SMOOTH",
"210 384 LINE",
"210 355 LINE",
"432 355 LINE SMOOTH",
"562 355 OFFCURVE",
"652 418 OFFCURVE",
"652 536 CURVE SMOOTH",
"652 656 OFFCURVE",
"562 720 OFFCURVE",
"432 720 CURVE SMOOTH",
"210 720 LINE"
);
},
{
closed = 1;
nodes = (
"210 344 LINE",
"456 344 LINE SMOOTH",
"561 344 OFFCURVE",
"628 293 OFFCURVE",
"628 192 CURVE SMOOTH",
"628 91 OFFCURVE",
"561 40 OFFCURVE",
"456 40 CURVE SMOOTH",
"210 40 LINE",
"210 0 LINE",
"458 0 LINE SMOOTH",
"589 0 OFFCURVE",
"680 66 OFFCURVE",
"680 188 CURVE SMOOTH",
"680 310 OFFCURVE",
"589 376 OFFCURVE",
"458 376 CURVE SMOOTH",
"210 376 LINE"
);
},
{
closed = 1;
nodes = (
"158 40 LINE",
"38 40 LINE",
"38 0 LINE",
"158 0 LINE"
);
},
{
closed = 1;
nodes = (
"158 720 LINE",
"38 720 LINE",
"38 680 LINE",
"158 680 LINE"
);
}
);
width = 728;
},
{
layerId = "38DA3315-22D6-4CA2-8458-CB7E0975637F";
paths = (
{
closed = 1;
nodes = (
"290 720 LINE",
"132 720 LINE",
"132 0 LINE",
"290 0 LINE"
);
},
{
closed = 1;
nodes = (
"290 650 LINE",
"394 650 LINE SMOOTH",
"486 650 OFFCURVE",
"544 608 OFFCURVE",
"544 526 CURVE SMOOTH",
"544 444 OFFCURVE",
"486 402 OFFCURVE",
"394 402 CURVE SMOOTH",
"290 402 LINE",
"290 364 LINE",
"462 364 LINE SMOOTH",
"605 364 OFFCURVE",
"704 422 OFFCURVE",
"704 536 CURVE SMOOTH",
"704 655 OFFCURVE",
"601 720 OFFCURVE",
"452 720 CURVE SMOOTH",
"290 720 LINE"
);
},
{
closed = 1;
nodes = (
"290 332 LINE",
"415 332 LINE SMOOTH",
"511 332 OFFCURVE",
"572 288 OFFCURVE",
"572 201 CURVE SMOOTH",
"572 114 OFFCURVE",
"511 70 OFFCURVE",
"415 70 CURVE SMOOTH",
"290 70 LINE",
"290 0 LINE",
"477 0 LINE SMOOTH",
"627 0 OFFCURVE",
"734 68 OFFCURVE",
"734 195 CURVE SMOOTH",
"734 316 OFFCURVE",
"627 374 OFFCURVE",
"477 374 CURVE SMOOTH",
"290 374 LINE"
);
},
{
closed = 1;
nodes = (
"132 70 LINE",
"32 70 LINE",
"32 0 LINE",
"132 0 LINE"
);
},
{
closed = 1;
nodes = (
"132 720 LINE",
"32 720 LINE",
"32 650 LINE",
"132 650 LINE"
);
}
);
width = 770;
},
{
layerId = "15B5FD12-AAB5-4088-829B-CB8139BF8816";
paths = (
{
closed = 1;
nodes = (
"262 720 LINE",
"104 720 LINE",
"104 0 LINE",
"262 0 LINE"
);
},
{
closed = 1;
nodes = (
"262 700 LINE",
"350 700 LINE SMOOTH",
"443 700 OFFCURVE",
"514 654 OFFCURVE",
"514 538 CURVE SMOOTH",
"514 422 OFFCURVE",
"443 376 OFFCURVE",
"350 376 CURVE SMOOTH",
"262 376 LINE",
"262 366 LINE",
"412 366 LINE SMOOTH",
"573 366 OFFCURVE",
"674 418 OFFCURVE",
"674 542 CURVE SMOOTH",
"674 667 OFFCURVE",
"573 720 OFFCURVE",
"412 720 CURVE SMOOTH",
"262 720 LINE"
);
},
{
closed = 1;
nodes = (
"262 356 LINE",
"374 356 LINE SMOOTH",
"467 356 OFFCURVE",
"538 307 OFFCURVE",
"538 188 CURVE SMOOTH",
"538 69 OFFCURVE",
"467 20 OFFCURVE",
"374 20 CURVE SMOOTH",
"262 20 LINE",
"262 0 LINE",
"440 0 LINE SMOOTH",
"599 0 OFFCURVE",
"700 56 OFFCURVE",
"700 186 CURVE SMOOTH",
"700 314 OFFCURVE",
"595 370 OFFCURVE",
"430 370 CURVE SMOOTH",
"262 370 LINE"
);
},
{
closed = 1;
nodes = (
"104 20 LINE",
"14 20 LINE",
"14 0 LINE",
"104 0 LINE"
);
},
{
closed = 1;
nodes = (
"104 720 LINE",
"14 720 LINE",
"14 700 LINE",
"104 700 LINE"
);
}
);
width = 724;
},
{
layerId = "CA54B7DC-FBBB-40FE-ACF3-AABDD76D6A7B";
paths = (
{
closed = 1;
nodes = (
"186 720 LINE",
"134 720 LINE",
"134 0 LINE",
"186 0 LINE"
);
},
{
closed = 1;
nodes = (
"186 700 LINE",
"392 700 LINE SMOOTH",
"505 700 OFFCURVE",
"576 646 OFFCURVE",
"576 538 CURVE SMOOTH",
"576 430 OFFCURVE",
"505 376 OFFCURVE",
"392 376 CURVE SMOOTH",
"186 376 LINE",
"186 361 LINE",
"398 361 LINE SMOOTH",
"534 361 OFFCURVE",
"628 422 OFFCURVE",
"628 541 CURVE SMOOTH",
"628 660 OFFCURVE",
"534 720 OFFCURVE",
"398 720 CURVE SMOOTH",
"186 720 LINE"
);
},
{
closed = 1;
nodes = (
"186 356 LINE",
"418 356 LINE SMOOTH",
"532 356 OFFCURVE",
"604 299 OFFCURVE",
"604 188 CURVE SMOOTH",
"604 77 OFFCURVE",
"532 20 OFFCURVE",
"418 20 CURVE SMOOTH",
"186 20 LINE",
"186 0 LINE",
"424 0 LINE SMOOTH",
"561 0 OFFCURVE",
"656 64 OFFCURVE",
"656 187 CURVE SMOOTH",
"656 310 OFFCURVE",
"561 373 OFFCURVE",
"424 373 CURVE SMOOTH",
"186 373 LINE"
);
},
{
closed = 1;
nodes = (
"134 20 LINE",
"24 20 LINE",
"24 0 LINE",
"134 0 LINE"
);
},
{
closed = 1;
nodes = (
"134 720 LINE",
"24 720 LINE",
"24 700 LINE",
"134 700 LINE"
);
}
);
width = 694;
}
);
leftKerningGroup = I;
leftMetricsKey = I;
rightKerningGroup = B;
unicode = 0042;
},
{
glyphname = C;
lastChange = "2020-05-07 14:20:48 +0000";
layers = (
{
layerId = "8E2477B1-6F82-4933-924D-A4D021D30CA2";
paths = (
{
closed = 1;
nodes = (
"696 465 LINE",
"682 625 OFFCURVE",
"587 730 OFFCURVE",
"410 730 CURVE SMOOTH",
"216 730 OFFCURVE",
"68 594 OFFCURVE",
"68 360 CURVE SMOOTH",
"68 126 OFFCURVE",
"216 -10 OFFCURVE",
"410 -10 CURVE SMOOTH",
"604 -10 OFFCURVE",
"706 117 OFFCURVE",
"710 272 CURVE",
"660 274 LINE",
"654 144 OFFCURVE",
"571 32 OFFCURVE",
"410 32 CURVE SMOOTH",
"246 32 OFFCURVE",
"122 160 OFFCURVE",
"122 360 CURVE SMOOTH",
"122 560 OFFCURVE",
"246 688 OFFCURVE",
"410 688 CURVE SMOOTH",
"571 688 OFFCURVE",
"644 581 OFFCURVE",
"654 465 CURVE"
);
},
{
closed = 1;
nodes = (
"664 720 LINE",
"664 522 LINE",
"696 465 LINE",
"706 465 LINE",
"706 720 LINE"
);
}
);
width = 786;
},
{
layerId = "38DA3315-22D6-4CA2-8458-CB7E0975637F";
paths = (
{
closed = 1;
nodes = (
"756 465 LINE",
"744 627 OFFCURVE",
"637 730 OFFCURVE",
"444 730 CURVE SMOOTH",
"226 730 OFFCURVE",
"60 594 OFFCURVE",
"60 360 CURVE SMOOTH",
"60 126 OFFCURVE",
"226 -10 OFFCURVE",
"444 -10 CURVE SMOOTH",
"655 -10 OFFCURVE",
"767 116 OFFCURVE",
"771 270 CURVE",
"700 274 LINE",
"695 160 OFFCURVE",
"620 62 OFFCURVE",
"476 62 CURVE SMOOTH",
"333 62 OFFCURVE",
"224 178 OFFCURVE",
"224 360 CURVE SMOOTH",
"224 544 OFFCURVE",
"333 662 OFFCURVE",
"476 662 CURVE SMOOTH",
"620 662 OFFCURVE",
"688 567 OFFCURVE",
"694 465 CURVE"
);
},
{
closed = 1;
nodes = (
"696 720 LINE",
"696 522 LINE",
"756 465 LINE",
"766 465 LINE",
"766 720 LINE"
);
}
);
width = 843;
},
{
layerId = "15B5FD12-AAB5-4088-829B-CB8139BF8816";
paths = (
{
closed = 1;
nodes = (
"715 485 LINE",
"708 630 OFFCURVE",
"617 730 OFFCURVE",
"424 730 CURVE SMOOTH",
"212 730 OFFCURVE",
"50 604 OFFCURVE",
"50 360 CURVE SMOOTH",
"50 116 OFFCURVE",
"213 -10 OFFCURVE",
"426 -10 CURVE SMOOTH",
"639 -10 OFFCURVE",
"724 114 OFFCURVE",
"728 253 CURVE",
"706 254 LINE",
"701 129 OFFCURVE",
"621 22 OFFCURVE",
"466 22 CURVE SMOOTH",
"312 22 OFFCURVE",
"212 154 OFFCURVE",
"212 360 CURVE SMOOTH",
"212 567 OFFCURVE",
"311 700 OFFCURVE",
"464 700 CURVE SMOOTH",
"618 700 OFFCURVE",
"686 596 OFFCURVE",
"696 485 CURVE"
);
},
{
closed = 1;
nodes = (
"702 720 LINE",
"702 512 LINE",
"715 485 LINE",
"724 485 LINE",
"724 720 LINE"
);
}
);
width = 768;
},
{
layerId = "CA54B7DC-FBBB-40FE-ACF3-AABDD76D6A7B";
paths = (
{
closed = 1;
nodes = (
"683 465 LINE",
"677 622 OFFCURVE",
"577 730 OFFCURVE",
"404 730 CURVE SMOOTH",
"209 730 OFFCURVE",
"60 594 OFFCURVE",
"60 360 CURVE SMOOTH",
"60 126 OFFCURVE",
"209 -10 OFFCURVE",
"404 -10 CURVE SMOOTH",
"593 -10 OFFCURVE",
"692 123 OFFCURVE",
"696 273 CURVE",
"674 274 LINE",
"668 133 OFFCURVE",
"578 12 OFFCURVE",
"404 12 CURVE SMOOTH",
"239 12 OFFCURVE",
"114 148 OFFCURVE",
"114 360 CURVE SMOOTH",
"114 572 OFFCURVE",
"239 708 OFFCURVE",
"404 708 CURVE SMOOTH",
"576 708 OFFCURVE",
"654 591 OFFCURVE",
"664 465 CURVE"
);
},
{
closed = 1;
nodes = (
"670 720 LINE",
"670 492 LINE",
"683 465 LINE",
"692 465 LINE",
"692 720 LINE"
);
}
);
width = 764;
}
);
leftKerningGroup = O;
leftMetricsKey = O;
rightKerningGroup = C;
unicode = 0043;
},
{
glyphname = D;
lastChange = "2020-05-07 14:17:27 +0000";
layers = (
{
layerId = "8E2477B1-6F82-4933-924D-A4D021D30CA2";
paths = (
{
closed = 1;
nodes = (
"158 40 LINE",
"38 40 LINE",
"38 0 LINE",
"158 0 LINE"
);
},
{
closed = 1;
nodes = (
"210 720 LINE",
"158 720 LINE",
"158 0 LINE",
"210 0 LINE"
);
},
{
closed = 1;
nodes = (
"158 720 LINE",
"38 720 LINE",
"38 680 LINE",
"158 680 LINE"
);
},
{
closed = 1;
nodes = (
"210 680 LINE",
"354 680 LINE SMOOTH",
"545 680 OFFCURVE",
"678 561 OFFCURVE",
"678 360 CURVE SMOOTH",
"678 159 OFFCURVE",
"545 40 OFFCURVE",
"354 40 CURVE SMOOTH",
"210 40 LINE",
"210 0 LINE",
"356 0 LINE SMOOTH",
"580 0 OFFCURVE",
"732 132 OFFCURVE",
"732 360 CURVE SMOOTH",
"732 588 OFFCURVE",
"580 720 OFFCURVE",
"356 720 CURVE SMOOTH",
"210 720 LINE"
);
}
);
width = 800;
},
{
layerId = "38DA3315-22D6-4CA2-8458-CB7E0975637F";
paths = (
{
closed = 1;
nodes = (
"132 70 LINE",
"32 70 LINE",
"32 0 LINE",
"132 0 LINE"
);
},
{
closed = 1;
nodes = (
"290 720 LINE",
"132 720 LINE",
"132 0 LINE",
"290 0 LINE"
);
},
{
closed = 1;
nodes = (
"132 720 LINE",
"32 720 LINE",
"32 650 LINE",
"132 650 LINE"
);
},
{
closed = 1;
nodes = (
"290 650 LINE",
"374 650 LINE SMOOTH",
"524 650 OFFCURVE",
"628 542 OFFCURVE",
"628 360 CURVE SMOOTH",
"628 178 OFFCURVE",
"524 70 OFFCURVE",
"374 70 CURVE SMOOTH",
"290 70 LINE",
"290 0 LINE",
"376 0 LINE SMOOTH",
"624 0 OFFCURVE",
"792 132 OFFCURVE",
"792 360 CURVE SMOOTH",
"792 588 OFFCURVE",
"624 720 OFFCURVE",
"376 720 CURVE SMOOTH",
"290 720 LINE"
);
}
);
width = 852;
},
{
layerId = "15B5FD12-AAB5-4088-829B-CB8139BF8816";
paths = (
{
closed = 1;
nodes = (
"104 20 LINE",
"14 20 LINE",
"14 0 LINE",
"104 0 LINE"
);
},
{
closed = 1;
nodes = (
"262 720 LINE",
"104 720 LINE",
"104 0 LINE",
"262 0 LINE"
);
},
{
closed = 1;
nodes = (
"104 720 LINE",
"14 720 LINE",
"14 700 LINE",
"104 700 LINE"
);
},
{
closed = 1;
nodes = (
"262 700 LINE",
"324 700 LINE SMOOTH",
"493 700 OFFCURVE",
"610 567 OFFCURVE",
"610 360 CURVE SMOOTH",
"610 153 OFFCURVE",
"493 20 OFFCURVE",
"324 20 CURVE SMOOTH",
"262 20 LINE",
"262 0 LINE",
"362 0 LINE SMOOTH",
"603 0 OFFCURVE",
"774 132 OFFCURVE",
"774 360 CURVE SMOOTH",
"774 588 OFFCURVE",
"603 720 OFFCURVE",
"362 720 CURVE SMOOTH",
"262 720 LINE"
);
}
);
width = 824;
},
{
layerId = "CA54B7DC-FBBB-40FE-ACF3-AABDD76D6A7B";
paths = (
{
closed = 1;
nodes = (
"134 20 LINE",
"24 20 LINE",
"24 0 LINE",
"134 0 LINE"
);
},
{
closed = 1;
nodes = (
"186 720 LINE",
"134 720 LINE",
"134 0 LINE",
"186 0 LINE"
);
},
{
closed = 1;
nodes = (
"134 720 LINE",
"24 720 LINE",
"24 700 LINE",
"134 700 LINE"
);
},
{
closed = 1;
nodes = (
"186 700 LINE",
"330 700 LINE SMOOTH",
"521 700 OFFCURVE",
"654 567 OFFCURVE",
"654 360 CURVE SMOOTH",
"654 153 OFFCURVE",
"521 20 OFFCURVE",
"330 20 CURVE SMOOTH",
"186 20 LINE",
"186 0 LINE",
"332 0 LINE SMOOTH",
"552 0 OFFCURVE",
"708 132 OFFCURVE",
"708 360 CURVE SMOOTH",
"708 588 OFFCURVE",
"552 720 OFFCURVE",
"332 720 CURVE SMOOTH",
"186 720 LINE"
);
}
);
width = 768;
}
);
leftKerningGroup = I;
leftMetricsKey = I;
rightKerningGroup = O;
rightMetricsKey = O;
unicode = 0044;
},
{
glyphname = E;
lastChange = "2020-05-07 14:18:49 +0000";
layers = (
{
layerId = "8E2477B1-6F82-4933-924D-A4D021D30CA2";
paths = (
{
closed = 1;
nodes = (
"636 40 LINE",
"38 40 LINE",
"38 0 LINE",
"636 0 LINE"
);
},
{
closed = 1;
nodes = (
"210 720 LINE",
"158 720 LINE",
"158 0 LINE",
"210 0 LINE"
);
},
{
closed = 1;
nodes = (
"628 720 LINE",
"38 720 LINE",
"38 680 LINE",
"628 680 LINE"
);
},
{
closed = 1;
nodes = (
"636 40 LINE",
"636 195 LINE",
"594 195 LINE",
"594 104 LINE SMOOTH",
"594 55 OFFCURVE",
"583 40 OFFCURVE",
"530 40 CURVE"
);
},
{
closed = 1;
nodes = (
"576 680 OFFCURVE",
"586 665 OFFCURVE",
"586 616 CURVE SMOOTH",
"586 535 LINE",
"628 535 LINE",
"628 680 LINE",
"521 680 LINE"
);
},
{
closed = 1;
nodes = (
"476 390 LINE",
"210 390 LINE",
"210 350 LINE",
"476 350 LINE"
);
},
{
closed = 1;
nodes = (
"423 350 OFFCURVE",
"434 335 OFFCURVE",
"434 286 CURVE SMOOTH",
"434 210 LINE",
"476 210 LINE",
"476 350 LINE",
"370 350 LINE"
);
},
{
closed = 1;
nodes = (
"476 390 LINE",
"476 520 LINE",
"434 520 LINE",
"434 454 LINE SMOOTH",
"434 405 OFFCURVE",
"423 390 OFFCURVE",
"370 390 CURVE"
);
}
);
width = 692;
},
{
layerId = "38DA3315-22D6-4CA2-8458-CB7E0975637F";
paths = (
{
closed = 1;
nodes = (
"656 70 LINE",
"32 70 LINE",
"32 0 LINE",
"656 0 LINE"
);
},
{
closed = 1;
nodes = (
"290 720 LINE",
"132 720 LINE",
"132 0 LINE",
"290 0 LINE"
);
},
{
closed = 1;
nodes = (
"648 720 LINE",
"32 720 LINE",
"32 650 LINE",
"648 650 LINE"
);
},
{
closed = 1;
nodes = (
"656 70 LINE",
"656 235 LINE",
"584 235 LINE",
"584 164 LINE SMOOTH",
"584 92 OFFCURVE",
"568 70 OFFCURVE",
"490 70 CURVE"
);
},
{
closed = 1;
nodes = (
"561 650 OFFCURVE",
"576 628 OFFCURVE",
"576 556 CURVE SMOOTH",
"576 495 LINE",
"648 495 LINE",
"648 650 LINE",
"481 650 LINE"
);
},
{
closed = 1;
nodes = (
"490 405 LINE",
"290 405 LINE",
"290 335 LINE",
"490 335 LINE"
);
},
{
closed = 1;
nodes = (
"402 335 OFFCURVE",
"418 313 OFFCURVE",
"418 241 CURVE SMOOTH",
"418 195 LINE",
"490 195 LINE",
"490 335 LINE",
"324 335 LINE"
);
},
{
closed = 1;
nodes = (
"490 405 LINE",
"490 535 LINE",
"418 535 LINE",
"418 499 LINE SMOOTH",
"418 427 OFFCURVE",
"402 405 OFFCURVE",
"324 405 CURVE"
);
}
);
width = 706;
},
{
layerId = "15B5FD12-AAB5-4088-829B-CB8139BF8816";
paths = (
{
closed = 1;
nodes = (
"616 20 LINE",
"14 20 LINE",
"14 0 LINE",
"616 0 LINE"
);
},
{
closed = 1;
nodes = (
"262 720 LINE",
"104 720 LINE",
"104 0 LINE",
"262 0 LINE"
);
},
{
closed = 1;
nodes = (
"610 720 LINE",
"14 720 LINE",
"14 700 LINE",
"610 700 LINE"
);
},
{
closed = 1;
nodes = (
"616 20 LINE",
"616 195 LINE",
"594 195 LINE",
"594 124 LINE SMOOTH",
"594 44 OFFCURVE",
"576 20 OFFCURVE",
"490 20 CURVE"
);
},
{
closed = 1;
nodes = (
"570 700 OFFCURVE",
"588 676 OFFCURVE",
"588 596 CURVE SMOOTH",
"588 535 LINE",
"610 535 LINE",
"610 700 LINE",
"484 700 LINE"
);
},
{
closed = 1;
nodes = (
"462 380 LINE",
"262 380 LINE",
"262 360 LINE",
"462 360 LINE"
);
},
{
closed = 1;
nodes = (
"422 360 OFFCURVE",
"440 336 OFFCURVE",
"440 256 CURVE SMOOTH",
"440 200 LINE",
"462 200 LINE",
"462 360 LINE",
"336 360 LINE"
);
},
{
closed = 1;
nodes = (
"462 380 LINE",
"462 530 LINE",
"440 530 LINE",
"440 484 LINE SMOOTH",
"440 404 OFFCURVE",
"422 380 OFFCURVE",
"336 380 CURVE"
);
}
);
width = 648;
},
{
layerId = "CA54B7DC-FBBB-40FE-ACF3-AABDD76D6A7B";
paths = (
{
closed = 1;
nodes = (
"600 20 LINE",
"24 20 LINE",
"24 0 LINE",
"600 0 LINE"
);
},
{
closed = 1;
nodes = (
"186 720 LINE",
"134 720 LINE",
"134 0 LINE",
"186 0 LINE"
);
},
{
closed = 1;
nodes = (
"594 720 LINE",
"24 720 LINE",
"24 700 LINE",
"594 700 LINE"
);
},
{
closed = 1;
nodes = (
"600 20 LINE",
"600 185 LINE",
"578 185 LINE",
"578 84 LINE SMOOTH",
"578 35 OFFCURVE",
"567 20 OFFCURVE",
"514 20 CURVE"
);
},
{
closed = 1;
nodes = (
"561 700 OFFCURVE",
"572 685 OFFCURVE",
"572 636 CURVE SMOOTH",
"572 545 LINE",
"594 545 LINE",
"594 700 LINE",
"508 700 LINE"
);
},
{
closed = 1;
nodes = (
"446 380 LINE",
"186 380 LINE",
"186 360 LINE",
"446 360 LINE"
);
},
{
closed = 1;
nodes = (
"413 360 OFFCURVE",
"424 345 OFFCURVE",
"424 296 CURVE SMOOTH",
"424 210 LINE",
"446 210 LINE",
"446 360 LINE",
"360 360 LINE"
);
},
{
closed = 1;
nodes = (
"446 380 LINE",
"446 520 LINE",
"424 520 LINE",
"424 444 LINE SMOOTH",
"424 395 OFFCURVE",
"413 380 OFFCURVE",
"360 380 CURVE"
);
}
);
width = 638;
}
);
leftKerningGroup = I;
leftMetricsKey = I;
rightKerningGroup = E;
unicode = 0045;
},
{
glyphname = F;
lastChange = "2020-05-07 14:18:38 +0000";
layers = (
{
layerId = "8E2477B1-6F82-4933-924D-A4D021D30CA2";
paths = (
{
closed = 1;
nodes = (
"360 40 LINE",
"38 40 LINE",
"38 0 LINE",
"360 0 LINE"
);
},
{
closed = 1;
nodes = (
"210 720 LINE",
"158 720 LINE",
"158 0 LINE",
"210 0 LINE"
);
},
{
closed = 1;
nodes = (
"611 720 LINE",
"38 720 LINE",
"38 680 LINE",
"611 680 LINE"
);
},
{
closed = 1;
nodes = (
"559 680 OFFCURVE",
"569 665 OFFCURVE",
"569 616 CURVE SMOOTH",
"569 535 LINE",
"611 535 LINE",
"611 680 LINE",
"504 680 LINE"
);
},
{
closed = 1;
nodes = (
"471 380 LINE",
"210 380 LINE",
"210 340 LINE",
"471 340 LINE"
);
},
{
closed = 1;
nodes = (
"418 340 OFFCURVE",
"429 325 OFFCURVE",
"429 276 CURVE SMOOTH",
"429 200 LINE",
"471 200 LINE",
"471 340 LINE",
"365 340 LINE"
);
},
{
closed = 1;
nodes = (
"471 380 LINE",
"471 510 LINE",
"429 510 LINE",
"429 444 LINE SMOOTH",
"429 395 OFFCURVE",
"418 380 OFFCURVE",
"365 380 CURVE"
);
}
);
width = 649;
},
{
layerId = "38DA3315-22D6-4CA2-8458-CB7E0975637F";
paths = (
{
closed = 1;
nodes = (
"420 70 LINE",
"32 70 LINE",
"32 0 LINE",
"420 0 LINE"
);
},
{
closed = 1;
nodes = (
"290 720 LINE",
"132 720 LINE",
"132 0 LINE",
"290 0 LINE"
);
},
{
closed = 1;
nodes = (
"640 720 LINE",
"32 720 LINE",
"32 650 LINE",
"640 650 LINE"
);
},
{
closed = 1;
nodes = (
"553 650 OFFCURVE",
"568 628 OFFCURVE",
"568 556 CURVE SMOOTH",
"568 495 LINE",
"640 495 LINE",
"640 650 LINE",
"473 650 LINE"
);
},
{
closed = 1;
nodes = (
"490 395 LINE",
"290 395 LINE",
"290 325 LINE",
"490 325 LINE"
);
},
{
closed = 1;
nodes = (
"402 325 OFFCURVE",
"418 303 OFFCURVE",
"418 231 CURVE SMOOTH",
"418 185 LINE",
"490 185 LINE",
"490 325 LINE",
"324 325 LINE"
);
},
{
closed = 1;
nodes = (
"490 395 LINE",
"490 525 LINE",
"418 525 LINE",
"418 489 LINE SMOOTH",
"418 417 OFFCURVE",
"402 395 OFFCURVE",
"324 395 CURVE"
);
}
);
width = 676;
},
{
layerId = "15B5FD12-AAB5-4088-829B-CB8139BF8816";
paths = (
{
closed = 1;
nodes = (
"382 20 LINE",
"14 20 LINE",
"14 0 LINE",
"382 0 LINE"
);
},
{
closed = 1;
nodes = (
"262 720 LINE",
"104 720 LINE",
"104 0 LINE",
"262 0 LINE"
);
},
{
closed = 1;
nodes = (
"602 720 LINE",
"14 720 LINE",
"14 700 LINE",
"602 700 LINE"
);
},
{
closed = 1;
nodes = (
"562 700 OFFCURVE",
"580 676 OFFCURVE",
"580 596 CURVE SMOOTH",
"580 535 LINE",
"602 535 LINE",
"602 700 LINE",
"476 700 LINE"
);
},
{
closed = 1;
nodes = (
"462 370 LINE",
"262 370 LINE",
"262 350 LINE",
"462 350 LINE"
);
},
{
closed = 1;
nodes = (
"422 350 OFFCURVE",
"440 326 OFFCURVE",
"440 246 CURVE SMOOTH",
"440 190 LINE",
"462 190 LINE",
"462 350 LINE",
"336 350 LINE"
);
},
{
closed = 1;
nodes = (
"462 370 LINE",
"462 520 LINE",
"440 520 LINE",
"440 474 LINE SMOOTH",
"440 394 OFFCURVE",
"422 370 OFFCURVE",
"336 370 CURVE"
);
}
);
width = 626;
},
{
layerId = "CA54B7DC-FBBB-40FE-ACF3-AABDD76D6A7B";
paths = (
{
closed = 1;
nodes = (
"326 20 LINE",
"24 20 LINE",
"24 0 LINE",
"326 0 LINE"
);
},
{
closed = 1;
nodes = (
"186 720 LINE",
"134 720 LINE",
"134 0 LINE",
"186 0 LINE"
);
},
{
closed = 1;
nodes = (
"581 720 LINE",
"24 720 LINE",
"24 700 LINE",
"581 700 LINE"
);
},
{
closed = 1;
nodes = (
"548 700 OFFCURVE",
"559 685 OFFCURVE",
"559 636 CURVE SMOOTH",
"559 545 LINE",
"581 545 LINE",
"581 700 LINE",
"495 700 LINE"
);
},
{
closed = 1;
nodes = (
"454 370 LINE",
"186 370 LINE",
"186 350 LINE",
"454 350 LINE"
);
},
{
closed = 1;
nodes = (
"421 350 OFFCURVE",
"432 335 OFFCURVE",
"432 286 CURVE SMOOTH",
"432 200 LINE",
"454 200 LINE",
"454 350 LINE",
"368 350 LINE"
);
},
{
closed = 1;
nodes = (
"454 370 LINE",
"454 510 LINE",
"432 510 LINE",
"432 434 LINE SMOOTH",
"432 385 OFFCURVE",
"421 370 OFFCURVE",
"368 370 CURVE"
);
}
);
width = 611;
}
);
leftKerningGroup = I;
leftMetricsKey = I;
rightKerningGroup = F;
unicode = 0046;
},
{
glyphname = G;
lastChange = "2020-05-07 14:17:54 +0000";
layers = (
{
layerId = "8E2477B1-6F82-4933-924D-A4D021D30CA2";
paths = (
{
closed = 1;
nodes = (
"684 480 LINE",
"671 638 OFFCURVE",
"576 730 OFFCURVE",
"406 730 CURVE SMOOTH",
"214 730 OFFCURVE",
"68 594 OFFCURVE",
"68 360 CURVE SMOOTH",
"68 126 OFFCURVE",
"216 -10 OFFCURVE",
"410 -10 CURVE SMOOTH",
"604 -10 OFFCURVE",
"698 117 OFFCURVE",
"698 306 CURVE",
"663 306 LINE",
"663 143 OFFCURVE",
"574 32 OFFCURVE",
"410 32 CURVE SMOOTH",
"246 32 OFFCURVE",
"122 160 OFFCURVE",
"122 360 CURVE SMOOTH",
"122 560 OFFCURVE",
"244 688 OFFCURVE",
"406 688 CURVE SMOOTH",
"561 688 OFFCURVE",
"632 599 OFFCURVE",
"642 480 CURVE"
);
},
{
closed = 1;
nodes = (
"650 720 LINE",
"652 538 LINE",
"684 480 LINE",
"694 480 LINE",
"692 720 LINE"
);
},
{
closed = 1;
nodes = (
"423 306 LINE",
"816 306 LINE",
"816 346 LINE",
"423 346 LINE"
);
},
{
closed = 1;
nodes = (
"663 306 LINE",
"663 0 LINE",
"711 0 LINE",
"711 306 LINE"
);
}
);
width = 832;
},
{
layerId = "38DA3315-22D6-4CA2-8458-CB7E0975637F";
paths = (
{
closed = 1;
nodes = (
"746 475 LINE",
"734 631 OFFCURVE",
"631 730 OFFCURVE",
"444 730 CURVE SMOOTH",
"226 730 OFFCURVE",
"60 594 OFFCURVE",
"60 360 CURVE SMOOTH",
"60 126 OFFCURVE",
"226 -10 OFFCURVE",
"444 -10 CURVE SMOOTH",
"643 -10 OFFCURVE",
"752 128 OFFCURVE",
"752 296 CURVE",
"694 296 LINE",
"694 170 OFFCURVE",
"616 62 OFFCURVE",
"476 62 CURVE SMOOTH",
"333 62 OFFCURVE",
"224 178 OFFCURVE",
"224 360 CURVE SMOOTH",
"224 544 OFFCURVE",
"333 662 OFFCURVE",
"476 662 CURVE SMOOTH",
"613 662 OFFCURVE",
"678 572 OFFCURVE",
"684 475 CURVE"
);
},
{
closed = 1;
nodes = (
"686 730 LINE",
"686 532 LINE",
"746 475 LINE",
"756 475 LINE",
"756 730 LINE"
);
},
{
closed = 1;
nodes = (
"482 296 LINE",
"875 296 LINE",
"875 366 LINE",
"482 366 LINE"
);
},
{
closed = 1;
nodes = (
"698 296 LINE",
"698 0 LINE",
"770 0 LINE",
"770 296 LINE"
);
}
);
width = 877;
},
{
layerId = "15B5FD12-AAB5-4088-829B-CB8139BF8816";
paths = (
{
closed = 1;
nodes = (
"706 490 LINE",
"699 632 OFFCURVE",
"611 730 OFFCURVE",
"424 730 CURVE SMOOTH",
"212 730 OFFCURVE",
"50 604 OFFCURVE",
"50 360 CURVE SMOOTH",
"50 116 OFFCURVE",
"213 -10 OFFCURVE",
"426 -10 CURVE SMOOTH",
"639 -10 OFFCURVE",
"728 136 OFFCURVE",
"728 316 CURVE",
"708 316 LINE",
"708 158 OFFCURVE",
"628 22 OFFCURVE",
"466 22 CURVE SMOOTH",
"312 22 OFFCURVE",
"212 154 OFFCURVE",
"212 360 CURVE SMOOTH",
"212 567 OFFCURVE",
"311 700 OFFCURVE",
"464 700 CURVE SMOOTH",
"612 700 OFFCURVE",
"677 598 OFFCURVE",
"687 490 CURVE"
);
},
{
closed = 1;
nodes = (
"693 720 LINE",
"693 517 LINE",
"706 490 LINE",
"715 490 LINE",
"715 720 LINE"
);
},
{
closed = 1;
nodes = (
"466 316 LINE",
"830 316 LINE",
"830 336 LINE",
"466 336 LINE"
);
},
{
closed = 1;
nodes = (
"708 316 LINE",
"708 0 LINE",
"730 0 LINE",
"730 316 LINE"
);
}
);
width = 826;
},
{
layerId = "CA54B7DC-FBBB-40FE-ACF3-AABDD76D6A7B";
paths = (
{
closed = 1;
nodes = (
"667 480 LINE",
"658 635 OFFCURVE",
"566 730 OFFCURVE",
"400 730 CURVE SMOOTH",
"207 730 OFFCURVE",
"60 594 OFFCURVE",
"60 360 CURVE SMOOTH",
"60 126 OFFCURVE",
"209 -10 OFFCURVE",
"404 -10 CURVE SMOOTH",
"595 -10 OFFCURVE",
"692 143 OFFCURVE",
"692 316 CURVE",
"672 316 LINE",
"672 164 OFFCURVE",
"583 12 OFFCURVE",
"404 12 CURVE SMOOTH",
"239 12 OFFCURVE",
"114 148 OFFCURVE",
"114 360 CURVE SMOOTH",
"114 572 OFFCURVE",
"237 708 OFFCURVE",
"400 708 CURVE SMOOTH",
"564 708 OFFCURVE",
"638 607 OFFCURVE",
"648 480 CURVE"
);
},
{
closed = 1;
nodes = (
"654 720 LINE",
"654 507 LINE",
"667 480 LINE",
"676 480 LINE",
"676 720 LINE"
);
},
{
closed = 1;
nodes = (
"430 316 LINE",
"794 316 LINE",
"794 336 LINE",
"430 336 LINE"
);
},
{
closed = 1;
nodes = (
"672 316 LINE",
"672 0 LINE",
"694 0 LINE",
"694 316 LINE"
);
}
);
width = 806;
}
);
leftKerningGroup = O;
leftMetricsKey = O;
rightKerningGroup = G;
unicode = 0047;
},
{
glyphname = H;
lastChange = "2020-05-07 14:16:06 +0000";
layers = (
{
layerId = "8E2477B1-6F82-4933-924D-A4D021D30CA2";
paths = (
{
closed = 1;
nodes = (
"330 40 LINE",
"38 40 LINE",
"38 0 LINE",
"330 0 LINE"
);
},
{
closed = 1;
nodes = (
"210 720 LINE",
"158 720 LINE",
"158 0 LINE",
"210 0 LINE"
);
},
{
closed = 1;
nodes = (
"330 720 LINE",
"38 720 LINE",
"38 680 LINE",
"330 680 LINE"
);
},
{
closed = 1;
nodes = (
"802 40 LINE",
"510 40 LINE",
"510 0 LINE",
"802 0 LINE"
);
},
{
closed = 1;
nodes = (
"682 720 LINE",
"630 720 LINE",
"630 0 LINE",
"682 0 LINE"
);
},
{
closed = 1;
nodes = (
"802 720 LINE",
"510 720 LINE",
"510 680 LINE",
"802 680 LINE"
);
},
{
closed = 1;
nodes = (
"630 385 LINE",
"210 385 LINE",
"210 345 LINE",
"630 345 LINE"
);
}
);
width = 840;
},
{
layerId = "38DA3315-22D6-4CA2-8458-CB7E0975637F";
paths = (
{
closed = 1;
nodes = (
"390 70 LINE",
"32 70 LINE",
"32 0 LINE",
"390 0 LINE"
);
},
{
closed = 1;
nodes = (
"290 720 LINE",
"132 720 LINE",
"132 0 LINE",
"290 0 LINE"
);
},
{
closed = 1;
nodes = (
"390 720 LINE",
"32 720 LINE",
"32 650 LINE",
"390 650 LINE"
);
},
{
closed = 1;
nodes = (
"880 70 LINE",
"522 70 LINE",
"522 0 LINE",
"880 0 LINE"
);
},
{
closed = 1;
nodes = (
"780 720 LINE",
"622 720 LINE",
"622 0 LINE",
"780 0 LINE"
);
},
{
closed = 1;
nodes = (
"880 720 LINE",
"522 720 LINE",
"522 650 LINE",
"880 650 LINE"
);
},
{
closed = 1;
nodes = (
"622 400 LINE",
"290 400 LINE",
"290 330 LINE",
"622 330 LINE"
);
}
);
width = 912;
},
{
layerId = "15B5FD12-AAB5-4088-829B-CB8139BF8816";
paths = (
{
closed = 1;
nodes = (
"362 20 LINE",
"14 20 LINE",
"14 0 LINE",
"362 0 LINE"
);
},
{
closed = 1;
nodes = (
"262 720 LINE",
"104 720 LINE",
"104 0 LINE",
"262 0 LINE"
);
},
{
closed = 1;
nodes = (
"362 720 LINE",
"14 720 LINE",
"14 700 LINE",
"362 700 LINE"
);
},
{
closed = 1;
nodes = (
"832 20 LINE",
"484 20 LINE",
"484 0 LINE",
"832 0 LINE"
);
},
{
closed = 1;
nodes = (
"742 720 LINE",
"584 720 LINE",
"584 0 LINE",
"742 0 LINE"
);
},
{
closed = 1;
nodes = (
"832 720 LINE",
"484 720 LINE",
"484 700 LINE",
"832 700 LINE"
);
},
{
closed = 1;
nodes = (
"584 375 LINE",
"262 375 LINE",
"262 355 LINE",
"584 355 LINE"
);
}
);
width = 846;
},
{
layerId = "CA54B7DC-FBBB-40FE-ACF3-AABDD76D6A7B";
paths = (
{
closed = 1;
nodes = (
"296 20 LINE",
"24 20 LINE",
"24 0 LINE",
"296 0 LINE"
);
},
{
closed = 1;
nodes = (
"186 720 LINE",
"134 720 LINE",
"134 0 LINE",
"186 0 LINE"
);
},
{
closed = 1;
nodes = (
"296 720 LINE",
"24 720 LINE",
"24 700 LINE",
"296 700 LINE"
);
},
{
closed = 1;
nodes = (
"768 20 LINE",
"496 20 LINE",
"496 0 LINE",
"768 0 LINE"
);
},
{
closed = 1;
nodes = (
"658 720 LINE",
"606 720 LINE",
"606 0 LINE",
"658 0 LINE"
);
},
{
closed = 1;
nodes = (
"768 720 LINE",
"496 720 LINE",
"496 700 LINE",
"768 700 LINE"
);
},
{
closed = 1;
nodes = (
"606 375 LINE",
"186 375 LINE",
"186 355 LINE",
"606 355 LINE"
);
}
);
width = 792;
}
);
leftKerningGroup = I;
leftMetricsKey = I;
rightKerningGroup = I;
rightMetricsKey = I;
unicode = 0048;
},
{
glyphname = I;
lastChange = "2020-05-07 14:29:17 +0000";
layers = (
{
layerId = "8E2477B1-6F82-4933-924D-A4D021D30CA2";
paths = (
{
closed = 1;
nodes = (
"330 40 LINE",
"38 40 LINE",
"38 0 LINE",
"330 0 LINE"
);
},
{
closed = 1;
nodes = (
"210 720 LINE",
"158 720 LINE",
"158 0 LINE",
"210 0 LINE"
);
},
{
closed = 1;
nodes = (
"330 720 LINE",
"38 720 LINE",
"38 680 LINE",
"330 680 LINE"
);
}
);
width = 368;
},
{
layerId = "38DA3315-22D6-4CA2-8458-CB7E0975637F";
paths = (
{
closed = 1;
nodes = (
"390 70 LINE",
"32 70 LINE",
"32 0 LINE",
"390 0 LINE"
);
},
{
closed = 1;
nodes = (
"290 720 LINE",
"132 720 LINE",
"132 0 LINE",
"290 0 LINE"
);
},
{
closed = 1;
nodes = (
"390 720 LINE",
"32 720 LINE",
"32 650 LINE",
"390 650 LINE"
);
}
);
width = 422;
},
{
layerId = "15B5FD12-AAB5-4088-829B-CB8139BF8816";
paths = (
{
closed = 1;
nodes = (
"352 20 LINE",
"14 20 LINE",
"14 0 LINE",
"352 0 LINE"
);
},
{
closed = 1;
nodes = (
"262 720 LINE",
"104 720 LINE",
"104 0 LINE",
"262 0 LINE"
);
},
{
closed = 1;
nodes = (
"352 720 LINE",
"14 720 LINE",
"14 700 LINE",
"352 700 LINE"
);
}
);
width = 366;
},
{
layerId = "CA54B7DC-FBBB-40FE-ACF3-AABDD76D6A7B";
paths = (
{
closed = 1;
nodes = (
"296 20 LINE",
"24 20 LINE",
"24 0 LINE",
"296 0 LINE"
);
},
{
closed = 1;
nodes = (
"186 720 LINE",
"134 720 LINE",
"134 0 LINE",
"186 0 LINE"
);
},
{
closed = 1;
nodes = (
"296 720 LINE",
"24 720 LINE",
"24 700 LINE",
"296 700 LINE"
);
}
);
width = 320;
}
);
leftKerningGroup = I;
rightKerningGroup = I;
unicode = 0049;
},
{
glyphname = J;
lastChange = "2020-05-07 14:20:20 +0000";
layers = (
{
layerId = "8E2477B1-6F82-4933-924D-A4D021D30CA2";
paths = (
{
closed = 1;
nodes = (
"396 720 LINE",
"396 204 LINE SMOOTH",
"396 95 OFFCURVE",
"340 32 OFFCURVE",
"246 32 CURVE SMOOTH",
"152 32 OFFCURVE",
"96 95 OFFCURVE",
"96 204 CURVE SMOOTH",
"96 240 LINE",
"54 240 LINE",
"54 204 LINE SMOOTH",
"54 68 OFFCURVE",
"121 -10 OFFCURVE",
"250 -10 CURVE SMOOTH",
"378 -10 OFFCURVE",
"448 68 OFFCURVE",
"448 208 CURVE SMOOTH",
"448 720 LINE"
);
},
{
closed = 1;
nodes = (
"246 680 LINE",
"568 680 LINE",
"568 720 LINE",
"246 720 LINE"
);
}
);
width = 596;
},
{
layerId = "38DA3315-22D6-4CA2-8458-CB7E0975637F";
paths = (
{
closed = 1;
nodes = (
"322 720 LINE",
"322 190 LINE SMOOTH",
"322 112 OFFCURVE",
"287 68 OFFCURVE",
"216 68 CURVE SMOOTH",
"145 68 OFFCURVE",
"110 112 OFFCURVE",
"110 190 CURVE SMOOTH",
"110 245 LINE",
"36 245 LINE",
"36 190 LINE SMOOTH",
"36 55 OFFCURVE",
"115 -10 OFFCURVE",
"252 -10 CURVE SMOOTH",
"393 -10 OFFCURVE",
"474 56 OFFCURVE",
"474 206 CURVE SMOOTH",
"474 720 LINE"
);
},
{
closed = 1;
nodes = (
"192 650 LINE",
"574 650 LINE",
"574 720 LINE",
"192 720 LINE"
);
}
);
width = 594;
},
{
layerId = "15B5FD12-AAB5-4088-829B-CB8139BF8816";
paths = (
{
closed = 1;
nodes = (
"320 720 LINE",
"320 198 LINE SMOOTH",
"320 92 OFFCURVE",
"268 31 OFFCURVE",
"180 31 CURVE SMOOTH",
"98 31 OFFCURVE",
"48 88 OFFCURVE",
"48 188 CURVE SMOOTH",
"48 250 LINE",
"26 250 LINE",
"26 188 LINE SMOOTH",
"26 62 OFFCURVE",
"96 -10 OFFCURVE",
"242 -10 CURVE SMOOTH",
"394 -10 OFFCURVE",
"478 80 OFFCURVE",
"478 250 CURVE SMOOTH",
"478 720 LINE"
);
},
{
closed = 1;
nodes = (
"200 700 LINE",
"568 700 LINE",
"568 720 LINE",
"200 720 LINE"
);
}
);
width = 576;
},
{
layerId = "CA54B7DC-FBBB-40FE-ACF3-AABDD76D6A7B";
paths = (
{
closed = 1;
nodes = (
"380 720 LINE",
"380 198 LINE SMOOTH",
"380 81 OFFCURVE",
"322 14 OFFCURVE",
"224 14 CURVE SMOOTH",
"126 14 OFFCURVE",
"68 81 OFFCURVE",
"68 198 CURVE SMOOTH",
"68 240 LINE",
"46 240 LINE",
"46 198 LINE SMOOTH",
"46 66 OFFCURVE",
"107 -10 OFFCURVE",
"232 -10 CURVE SMOOTH",
"361 -10 OFFCURVE",
"432 66 OFFCURVE",
"432 210 CURVE SMOOTH",
"432 720 LINE"
);
},
{
closed = 1;
nodes = (
"240 700 LINE",
"542 700 LINE",
"542 720 LINE",
"240 720 LINE"
);
}
);
width = 558;
}
);
leftKerningGroup = J;
rightKerningGroup = U;
rightMetricsKey = U;
unicode = 004A;
},
{
glyphname = K;
lastChange = "2020-05-07 14:20:27 +0000";
layers = (
{
layerId = "8E2477B1-6F82-4933-924D-A4D021D30CA2";
paths = (
{
closed = 1;
nodes = (
"330 40 LINE",
"38 40 LINE",
"38 0 LINE",
"330 0 LINE"
);
},
{
closed = 1;
nodes = (
"210 720 LINE",
"158 720 LINE",
"158 0 LINE",
"210 0 LINE"
);
},
{
closed = 1;
nodes = (
"330 720 LINE",
"38 720 LINE",
"38 680 LINE",
"330 680 LINE"
);
},
{
closed = 1;
nodes = (
"292 383 LINE",
"583 40 LINE",
"651 40 LINE",
"329 416 LINE"
);
},
{
closed = 1;
nodes = (
"718 720 LINE",
"454 720 LINE",
"454 680 LINE",
"718 680 LINE"
);
},
{
closed = 1;
nodes = (
"726 40 LINE",
"458 40 LINE",
"458 0 LINE",
"726 0 LINE"
);
},
{
closed = 1;
nodes = (
"185 248 LINE",
"643 680 LINE",
"579 680 LINE",
"171 294 LINE"
);
}
);
width = 746;
},
{
layerId = "38DA3315-22D6-4CA2-8458-CB7E0975637F";
paths = (
{
closed = 1;
nodes = (
"390 70 LINE",
"32 70 LINE",
"32 0 LINE",
"390 0 LINE"
);
},
{
closed = 1;
nodes = (
"290 720 LINE",
"132 720 LINE",
"132 0 LINE",
"290 0 LINE"
);
},
{
closed = 1;
nodes = (
"390 720 LINE",
"32 720 LINE",
"32 650 LINE",
"390 650 LINE"
);
},
{
closed = 1;
nodes = (
"337 353 LINE",
"554 70 LINE",
"749 70 LINE",
"451 453 LINE"
);
},
{
closed = 1;
nodes = (
"794 720 LINE",
"506 720 LINE",
"506 650 LINE",
"794 650 LINE"
);
},
{
closed = 1;
nodes = (
"814 70 LINE",
"454 70 LINE",
"454 0 LINE",
"814 0 LINE"
);
},
{
closed = 1;
nodes = (
"283 250 LINE",
"729 650 LINE",
"621 650 LINE",
"250 314 LINE"
);
}
);
width = 832;
},
{
layerId = "15B5FD12-AAB5-4088-829B-CB8139BF8816";
paths = (
{
closed = 1;
nodes = (
"352 20 LINE",
"14 20 LINE",
"14 0 LINE",
"352 0 LINE"
);
},
{
closed = 1;
nodes = (
"262 720 LINE",
"104 720 LINE",
"104 0 LINE",
"262 0 LINE"
);
},
{
closed = 1;
nodes = (
"352 720 LINE",
"14 720 LINE",
"14 700 LINE",
"352 700 LINE"
);
},
{
closed = 1;
nodes = (
"290 358 LINE",
"535 20 LINE",
"727 20 LINE",
"402 458 LINE"
);
},
{
closed = 1;
nodes = (
"754 720 LINE",
"555 720 LINE",
"555 700 LINE",
"754 700 LINE"
);
},
{
closed = 1;
nodes = (
"792 20 LINE",
"435 20 LINE",
"435 0 LINE",
"792 0 LINE"
);
},
{
closed = 1;
nodes = (
"192 263 LINE",
"689 700 LINE",
"655 700 LINE",
"176 278 LINE"
);
}
);
width = 798;
},
{
layerId = "CA54B7DC-FBBB-40FE-ACF3-AABDD76D6A7B";
paths = (
{
closed = 1;
nodes = (
"296 20 LINE",
"24 20 LINE",
"24 0 LINE",
"296 0 LINE"
);
},
{
closed = 1;
nodes = (
"186 720 LINE",
"134 720 LINE",
"134 0 LINE",
"186 0 LINE"
);
},
{
closed = 1;
nodes = (
"296 720 LINE",
"24 720 LINE",
"24 700 LINE",
"296 700 LINE"
);
},
{
closed = 1;
nodes = (
"271 382 LINE",
"570 20 LINE",
"637 20 LINE",
"308 414 LINE"
);
},
{
closed = 1;
nodes = (
"694 720 LINE",
"462 720 LINE",
"462 700 LINE",
"694 700 LINE"
);
},
{
closed = 1;
nodes = (
"712 20 LINE",
"445 20 LINE",
"445 0 LINE",
"712 0 LINE"
);
},
{
closed = 1;
nodes = (
"153 254 LINE",
"619 700 LINE",
"587 700 LINE",
"146 278 LINE"
);
}
);
width = 724;
}
);
leftKerningGroup = I;
leftMetricsKey = I;
rightKerningGroup = K;
unicode = 004B;
},
{
glyphname = L;
lastChange = "2020-05-07 14:18:44 +0000";
layers = (
{
layerId = "8E2477B1-6F82-4933-924D-A4D021D30CA2";
paths = (
{
closed = 1;
nodes = (
"616 40 LINE",
"38 40 LINE",
"38 0 LINE",
"616 0 LINE"
);
},
{
closed = 1;
nodes = (
"210 720 LINE",
"158 720 LINE",
"158 0 LINE",
"210 0 LINE"
);
},
{
closed = 1;
nodes = (
"360 720 LINE",
"38 720 LINE",
"38 680 LINE",
"360 680 LINE"
);
},
{
closed = 1;
nodes = (
"616 40 LINE",
"616 205 LINE",
"574 205 LINE",
"574 104 LINE SMOOTH",
"574 55 OFFCURVE",
"563 40 OFFCURVE",
"510 40 CURVE"
);
}
);
width = 656;
},
{
layerId = "38DA3315-22D6-4CA2-8458-CB7E0975637F";
paths = (
{
closed = 1;
nodes = (
"648 70 LINE",
"32 70 LINE",
"32 0 LINE",
"648 0 LINE"
);
},
{
closed = 1;
nodes = (
"290 720 LINE",
"132 720 LINE",
"132 0 LINE",
"290 0 LINE"
);
},
{
closed = 1;
nodes = (
"420 720 LINE",
"32 720 LINE",
"32 650 LINE",
"420 650 LINE"
);
},
{
closed = 1;
nodes = (
"648 70 LINE",
"648 235 LINE",
"576 235 LINE",
"576 164 LINE SMOOTH",
"576 92 OFFCURVE",
"560 70 OFFCURVE",
"482 70 CURVE"
);
}
);
width = 684;
},
{
layerId = "15B5FD12-AAB5-4088-829B-CB8139BF8816";
paths = (
{
closed = 1;
nodes = (
"608 20 LINE",
"14 20 LINE",
"14 0 LINE",
"608 0 LINE"
);
},
{
closed = 1;
nodes = (
"262 720 LINE",
"104 720 LINE",
"104 0 LINE",
"262 0 LINE"
);
},
{
closed = 1;
nodes = (
"382 720 LINE",
"14 720 LINE",
"14 700 LINE",
"382 700 LINE"
);
},
{
closed = 1;
nodes = (
"608 20 LINE",
"608 195 LINE",
"586 195 LINE",
"586 124 LINE SMOOTH",
"586 44 OFFCURVE",
"568 20 OFFCURVE",
"482 20 CURVE"
);
}
);
width = 630;
},
{
layerId = "CA54B7DC-FBBB-40FE-ACF3-AABDD76D6A7B";
paths = (
{
closed = 1;
nodes = (
"590 20 LINE",
"24 20 LINE",
"24 0 LINE",
"590 0 LINE"
);
},
{
closed = 1;
nodes = (
"186 720 LINE",
"134 720 LINE",
"134 0 LINE",
"186 0 LINE"
);
},
{
closed = 1;
nodes = (
"326 720 LINE",
"24 720 LINE",
"24 700 LINE",
"326 700 LINE"
);
},
{
closed = 1;
nodes = (
"590 20 LINE",
"590 195 LINE",
"568 195 LINE",
"568 84 LINE SMOOTH",
"568 35 OFFCURVE",
"557 20 OFFCURVE",
"504 20 CURVE"
);
}
);
width = 620;
}
);
leftKerningGroup = I;
leftMetricsKey = I;
rightKerningGroup = L;
unicode = 004C;
},
{
glyphname = M;
lastChange = "2020-05-07 14:16:06 +0000";
layers = (
{
layerId = "8E2477B1-6F82-4933-924D-A4D021D30CA2";
paths = (
{
closed = 1;
nodes = (
"324 40 LINE",
"38 40 LINE",
"38 0 LINE",
"324 0 LINE"
);
},
{
closed = 1;
nodes = (
"204 673 LINE",
"209 720 LINE",
"158 720 LINE",
"158 0 LINE",
"204 0 LINE"
);
},
{
closed = 1;
nodes = (
"158 720 LINE",
"38 720 LINE",
"38 680 LINE",
"158 680 LINE"
);
},
{
closed = 1;
nodes = (
"874 720 LINE",
"824 720 LINE",
"496 25 LINE",
"499 0 LINE",
"534 0 LINE"
);
},
{
closed = 1;
nodes = (
"507 0 LINE",
"528 45 LINE",
"209 720 LINE",
"181 662 LINE",
"494 0 LINE"
);
},
{
closed = 1;
nodes = (
"996 40 LINE",
"704 40 LINE",
"704 0 LINE",
"996 0 LINE"
);
},
{
closed = 1;
nodes = (
"876 720 LINE",
"824 720 LINE",
"824 0 LINE",
"876 0 LINE"
);
},
{
closed = 1;
nodes = (
"996 720 LINE",
"876 720 LINE",
"876 680 LINE",
"996 680 LINE"
);
}
);
width = 1034;
},
{
layerId = "38DA3315-22D6-4CA2-8458-CB7E0975637F";
paths = (
{
closed = 1;
nodes = (
"308 70 LINE",
"32 70 LINE",
"32 0 LINE",
"308 0 LINE"
);
},
{
closed = 1;
nodes = (
"208 673 LINE",
"276 720 LINE",
"132 720 LINE",
"132 0 LINE",
"208 0 LINE"
);
},
{
closed = 1;
nodes = (
"132 720 LINE",
"32 720 LINE",
"32 650 LINE",
"132 650 LINE"
);
},
{
closed = 1;
nodes = (
"858 720 LINE",
"776 720 LINE",
"458 25 LINE",
"461 0 LINE",
"528 0 LINE"
);
},
{
closed = 1;
nodes = (
"469 0 LINE",
"555 139 LINE",
"276 720 LINE",
"133 661 LINE",
"454 0 LINE"
);
},
{
closed = 1;
nodes = (
"1032 70 LINE",
"676 70 LINE",
"676 0 LINE",
"1032 0 LINE"
);
},
{
closed = 1;
nodes = (
"932 720 LINE",
"776 720 LINE",
"776 0 LINE",
"932 0 LINE"
);
},
{
closed = 1;
nodes = (
"1032 720 LINE",
"932 720 LINE",
"932 650 LINE",
"1032 650 LINE"
);
}
);
width = 1064;
},
{
layerId = "15B5FD12-AAB5-4088-829B-CB8139BF8816";
paths = (
{
closed = 1;
nodes = (
"216 20 LINE",
"14 20 LINE",
"14 0 LINE",
"216 0 LINE"
);
},
{
closed = 1;
nodes = (
"126 677 LINE",
"266 720 LINE",
"104 720 LINE",
"104 0 LINE",
"126 0 LINE"
);
},
{
closed = 1;
nodes = (
"104 720 LINE",
"14 720 LINE",
"14 700 LINE",
"104 700 LINE"
);
},
{
closed = 1;
nodes = (
"766 720 LINE",
"742 720 LINE",
"439 24 LINE",
"439 0 LINE",
"452 0 LINE"
);
},
{
closed = 1;
nodes = (
"445 0 LINE",
"514 174 LINE",
"266 720 LINE",
"109 692 LINE",
"430 0 LINE"
);
},
{
closed = 1;
nodes = (
"988 20 LINE",
"652 20 LINE",
"652 0 LINE",
"988 0 LINE"
);
},
{
closed = 1;
nodes = (
"898 720 LINE",
"742 720 LINE",
"742 0 LINE",
"898 0 LINE"
);
},
{
closed = 1;
nodes = (
"988 720 LINE",
"898 720 LINE",
"898 700 LINE",
"988 700 LINE"
);
}
);
width = 1002;
},
{
layerId = "CA54B7DC-FBBB-40FE-ACF3-AABDD76D6A7B";
paths = (
{
closed = 1;
nodes = (
"266 20 LINE",
"24 20 LINE",
"24 0 LINE",
"266 0 LINE"
);
},
{
closed = 1;
nodes = (
"156 677 LINE",
"183 720 LINE",
"134 720 LINE",
"134 0 LINE",
"156 0 LINE"
);
},
{
closed = 1;
nodes = (
"134 720 LINE",
"24 720 LINE",
"24 700 LINE",
"134 700 LINE"
);
},
{
closed = 1;
nodes = (
"818 720 LINE",
"794 720 LINE",
"471 24 LINE",
"471 0 LINE",
"484 0 LINE"
);
},
{
closed = 1;
nodes = (
"477 0 LINE",
"494 50 LINE",
"183 720 LINE",
"141 692 LINE",
"462 0 LINE"
);
},
{
closed = 1;
nodes = (
"956 20 LINE",
"684 20 LINE",
"684 0 LINE",
"956 0 LINE"
);
},
{
closed = 1;
nodes = (
"846 720 LINE",
"794 720 LINE",
"794 0 LINE",
"846 0 LINE"
);
},
{
closed = 1;
nodes = (
"956 720 LINE",
"846 720 LINE",
"846 700 LINE",
"956 700 LINE"
);
}
);
width = 980;
}
);
leftKerningGroup = I;
leftMetricsKey = I;
rightKerningGroup = I;
rightMetricsKey = I;
unicode = 004D;
},
{
glyphname = N;
lastChange = "2020-05-07 14:17:16 +0000";
layers = (
{
layerId = "8E2477B1-6F82-4933-924D-A4D021D30CA2";
paths = (
{
closed = 1;
nodes = (
"324 40 LINE",
"38 40 LINE",
"38 0 LINE",
"324 0 LINE"
);
},
{
closed = 1;
nodes = (
"204 673 LINE",
"204 720 LINE",
"158 720 LINE",
"158 0 LINE",
"204 0 LINE"
);
},
{
closed = 1;
nodes = (
"158 720 LINE",
"38 720 LINE",
"38 680 LINE",
"158 680 LINE"
);
},
{
closed = 1;
nodes = (
"204 720 LINE",
"174 675 LINE",
"646 0 LINE",
"674 48 LINE"
);
},
{
closed = 1;
nodes = (
"808 720 LINE",
"522 720 LINE",
"522 680 LINE",
"808 680 LINE"
);
},
{
closed = 1;
nodes = (
"688 720 LINE",
"642 720 LINE",
"642 64 LINE",
"646 0 LINE",
"688 0 LINE"
);
}
);
width = 836;
},
{
layerId = "38DA3315-22D6-4CA2-8458-CB7E0975637F";
paths = (
{
closed = 1;
nodes = (
"308 70 LINE",
"32 70 LINE",
"32 0 LINE",
"308 0 LINE"
);
},
{
closed = 1;
nodes = (
"208 575 LINE",
"270 720 LINE",
"132 720 LINE",
"132 0 LINE",
"208 0 LINE"
);
},
{
closed = 1;
nodes = (
"132 720 LINE",
"32 720 LINE",
"32 650 LINE",
"132 650 LINE"
);
},
{
closed = 1;
nodes = (
"270 720 LINE",
"192 570 LINE",
"644 0 LINE",
"678 204 LINE"
);
},
{
closed = 1;
nodes = (
"812 720 LINE",
"536 720 LINE",
"536 650 LINE",
"812 650 LINE"
);
},
{
closed = 1;
nodes = (
"712 720 LINE",
"636 720 LINE",
"636 64 LINE",
"644 0 LINE",
"712 0 LINE"
);
}
);
width = 836;
},
{
layerId = "15B5FD12-AAB5-4088-829B-CB8139BF8816";
paths = (
{
closed = 1;
nodes = (
"216 20 LINE",
"14 20 LINE",
"14 0 LINE",
"216 0 LINE"
);
},
{
closed = 1;
nodes = (
"126 639 LINE",
"238 720 LINE",
"104 720 LINE",
"104 0 LINE",
"126 0 LINE"
);
},
{
closed = 1;
nodes = (
"104 720 LINE",
"14 720 LINE",
"14 700 LINE",
"104 700 LINE"
);
},
{
closed = 1;
nodes = (
"238 720 LINE",
"108 636 LINE",
"640 0 LINE",
"655 223 LINE"
);
},
{
closed = 1;
nodes = (
"752 720 LINE",
"550 720 LINE",
"550 700 LINE",
"752 700 LINE"
);
},
{
closed = 1;
nodes = (
"662 720 LINE",
"640 720 LINE",
"640 64 LINE",
"640 0 LINE",
"662 0 LINE"
);
}
);
width = 762;
},
{
layerId = "CA54B7DC-FBBB-40FE-ACF3-AABDD76D6A7B";
paths = (
{
closed = 1;
nodes = (
"266 20 LINE",
"24 20 LINE",
"24 0 LINE",
"266 0 LINE"
);
},
{
closed = 1;
nodes = (
"156 677 LINE",
"180 720 LINE",
"134 720 LINE",
"134 0 LINE",
"156 0 LINE"
);
},
{
closed = 1;
nodes = (
"134 720 LINE",
"24 720 LINE",
"24 700 LINE",
"134 700 LINE"
);
},
{
closed = 1;
nodes = (
"180 720 LINE",
"146 681 LINE",
"634 0 LINE",
"651 63 LINE"
);
},
{
closed = 1;
nodes = (
"766 720 LINE",
"524 720 LINE",
"524 700 LINE",
"766 700 LINE"
);
},
{
closed = 1;
nodes = (
"656 720 LINE",
"634 720 LINE",
"634 64 LINE",
"634 0 LINE",
"656 0 LINE"
);
}
);
width = 784;
}
);
leftKerningGroup = I;
leftMetricsKey = I;
rightKerningGroup = N;
unicode = 004E;
},
{
glyphname = O;
lastChange = "2020-05-07 14:17:24 +0000";
layers = (
{
layerId = "8E2477B1-6F82-4933-924D-A4D021D30CA2";
paths = (
{
closed = 1;
nodes = (
"632 -10 OFFCURVE",
"780 126 OFFCURVE",
"780 360 CURVE SMOOTH",
"780 594 OFFCURVE",
"632 730 OFFCURVE",
"424 730 CURVE SMOOTH",
"216 730 OFFCURVE",
"68 594 OFFCURVE",
"68 360 CURVE SMOOTH",
"68 126 OFFCURVE",
"216 -10 OFFCURVE",
"424 -10 CURVE SMOOTH"
);
},
{
closed = 1;
nodes = (
"246 32 OFFCURVE",
"122 160 OFFCURVE",
"122 360 CURVE SMOOTH",
"122 560 OFFCURVE",
"246 688 OFFCURVE",
"424 688 CURVE SMOOTH",
"602 688 OFFCURVE",
"726 560 OFFCURVE",
"726 360 CURVE SMOOTH",
"726 160 OFFCURVE",
"602 32 OFFCURVE",
"424 32 CURVE SMOOTH"
);
}
);
width = 848;
},
{
layerId = "38DA3315-22D6-4CA2-8458-CB7E0975637F";
paths = (
{
closed = 1;
nodes = (
"681 -10 OFFCURVE",
"844 126 OFFCURVE",
"844 360 CURVE SMOOTH",
"844 594 OFFCURVE",
"681 730 OFFCURVE",
"452 730 CURVE SMOOTH",
"223 730 OFFCURVE",
"60 594 OFFCURVE",
"60 360 CURVE SMOOTH",
"60 126 OFFCURVE",
"223 -10 OFFCURVE",
"452 -10 CURVE SMOOTH"
);
},
{
closed = 1;
nodes = (
"313 64 OFFCURVE",
"224 181 OFFCURVE",
"224 360 CURVE SMOOTH",
"224 539 OFFCURVE",
"313 656 OFFCURVE",
"452 656 CURVE SMOOTH",
"591 656 OFFCURVE",
"680 539 OFFCURVE",
"680 360 CURVE SMOOTH",
"680 181 OFFCURVE",
"591 64 OFFCURVE",
"452 64 CURVE SMOOTH"
);
}
);
width = 904;
},
{
layerId = "15B5FD12-AAB5-4088-829B-CB8139BF8816";
paths = (
{
closed = 1;
nodes = (
"674 -10 OFFCURVE",
"830 126 OFFCURVE",
"830 360 CURVE SMOOTH",
"830 594 OFFCURVE",
"674 730 OFFCURVE",
"440 730 CURVE SMOOTH",
"206 730 OFFCURVE",
"50 594 OFFCURVE",
"50 360 CURVE SMOOTH",
"50 126 OFFCURVE",
"206 -10 OFFCURVE",
"440 -10 CURVE SMOOTH"
);
},
{
closed = 1;
nodes = (
"293 10 OFFCURVE",
"212 148 OFFCURVE",
"212 360 CURVE SMOOTH",
"212 572 OFFCURVE",
"293 710 OFFCURVE",
"440 710 CURVE SMOOTH",
"587 710 OFFCURVE",
"668 572 OFFCURVE",
"668 360 CURVE SMOOTH",
"668 148 OFFCURVE",
"587 10 OFFCURVE",
"440 10 CURVE SMOOTH"
);
}
);
width = 880;
},
{
layerId = "CA54B7DC-FBBB-40FE-ACF3-AABDD76D6A7B";
paths = (
{
closed = 1;
nodes = (
"624 -10 OFFCURVE",
"772 126 OFFCURVE",
"772 360 CURVE SMOOTH",
"772 594 OFFCURVE",
"624 730 OFFCURVE",
"416 730 CURVE SMOOTH",
"208 730 OFFCURVE",
"60 594 OFFCURVE",
"60 360 CURVE SMOOTH",
"60 126 OFFCURVE",
"208 -10 OFFCURVE",
"416 -10 CURVE SMOOTH"
);
},
{
closed = 1;
nodes = (
"232 10 OFFCURVE",
"114 148 OFFCURVE",
"114 360 CURVE SMOOTH",
"114 572 OFFCURVE",
"232 710 OFFCURVE",
"416 710 CURVE SMOOTH",
"600 710 OFFCURVE",
"718 572 OFFCURVE",
"718 360 CURVE SMOOTH",
"718 148 OFFCURVE",
"600 10 OFFCURVE",
"416 10 CURVE SMOOTH"
);
}
);
width = 832;
}
);
leftKerningGroup = O;
rightKerningGroup = O;
unicode = 004F;
},
{
glyphname = P;
lastChange = "2020-05-07 14:19:17 +0000";
layers = (
{
layerId = "8E2477B1-6F82-4933-924D-A4D021D30CA2";
paths = (
{
closed = 1;
nodes = (
"210 680 LINE",
"454 680 LINE SMOOTH",
"560 680 OFFCURVE",
"628 628 OFFCURVE",
"628 524 CURVE SMOOTH",
"628 420 OFFCURVE",
"560 368 OFFCURVE",
"454 368 CURVE SMOOTH",
"210 368 LINE",
"210 328 LINE",
"456 328 LINE SMOOTH",
"588 328 OFFCURVE",
"680 396 OFFCURVE",
"680 524 CURVE SMOOTH",
"680 652 OFFCURVE",
"588 720 OFFCURVE",
"456 720 CURVE SMOOTH",
"210 720 LINE"
);
},
{
closed = 1;
nodes = (
"360 40 LINE",
"38 40 LINE",
"38 0 LINE",
"360 0 LINE"
);
},
{
closed = 1;
nodes = (
"210 720 LINE",
"158 720 LINE",
"158 0 LINE",
"210 0 LINE"
);
},
{
closed = 1;
nodes = (
"158 720 LINE",
"38 720 LINE",
"38 680 LINE",
"158 680 LINE"
);
}
);
width = 716;
},
{
layerId = "38DA3315-22D6-4CA2-8458-CB7E0975637F";
paths = (
{
closed = 1;
nodes = (
"290 650 LINE",
"404 650 LINE SMOOTH",
"498 650 OFFCURVE",
"558 606 OFFCURVE",
"558 518 CURVE SMOOTH",
"558 430 OFFCURVE",
"498 386 OFFCURVE",
"404 386 CURVE SMOOTH",
"290 386 LINE",
"290 316 LINE",
"466 316 LINE SMOOTH",
"616 316 OFFCURVE",
"720 386 OFFCURVE",
"720 518 CURVE SMOOTH",
"720 650 OFFCURVE",
"616 720 OFFCURVE",
"466 720 CURVE SMOOTH",
"290 720 LINE"
);
},
{
closed = 1;
nodes = (
"420 70 LINE",
"32 70 LINE",
"32 0 LINE",
"420 0 LINE"
);
},
{
closed = 1;
nodes = (
"290 720 LINE",
"132 720 LINE",
"132 0 LINE",
"290 0 LINE"
);
},
{
closed = 1;
nodes = (
"132 720 LINE",
"32 720 LINE",
"32 650 LINE",
"132 650 LINE"
);
}
);
width = 742;
},
{
layerId = "15B5FD12-AAB5-4088-829B-CB8139BF8816";
paths = (
{
closed = 1;
nodes = (
"262 700 LINE",
"370 700 LINE SMOOTH",
"465 700 OFFCURVE",
"538 650 OFFCURVE",
"538 526 CURVE SMOOTH",
"538 402 OFFCURVE",
"465 352 OFFCURVE",
"370 352 CURVE SMOOTH",
"262 352 LINE",
"262 332 LINE",
"436 332 LINE SMOOTH",
"598 332 OFFCURVE",
"700 390 OFFCURVE",
"700 526 CURVE SMOOTH",
"700 662 OFFCURVE",
"598 720 OFFCURVE",
"436 720 CURVE SMOOTH",
"262 720 LINE"
);
},
{
closed = 1;
nodes = (
"382 20 LINE",
"14 20 LINE",
"14 0 LINE",
"382 0 LINE"
);
},
{
closed = 1;
nodes = (
"262 720 LINE",
"104 720 LINE",
"104 0 LINE",
"262 0 LINE"
);
},
{
closed = 1;
nodes = (
"104 720 LINE",
"14 720 LINE",
"14 700 LINE",
"104 700 LINE"
);
}
);
width = 712;
},
{
layerId = "CA54B7DC-FBBB-40FE-ACF3-AABDD76D6A7B";
paths = (
{
closed = 1;
nodes = (
"186 700 LINE",
"416 700 LINE SMOOTH",
"531 700 OFFCURVE",
"604 643 OFFCURVE",
"604 530 CURVE SMOOTH",
"604 417 OFFCURVE",
"531 360 OFFCURVE",
"416 360 CURVE SMOOTH",
"186 360 LINE",
"186 340 LINE",
"422 340 LINE SMOOTH",
"560 340 OFFCURVE",
"656 404 OFFCURVE",
"656 530 CURVE SMOOTH",
"656 656 OFFCURVE",
"560 720 OFFCURVE",
"422 720 CURVE SMOOTH",
"186 720 LINE"
);
},
{
closed = 1;
nodes = (
"326 20 LINE",
"24 20 LINE",
"24 0 LINE",
"326 0 LINE"
);
},
{
closed = 1;
nodes = (
"186 720 LINE",
"134 720 LINE",
"134 0 LINE",
"186 0 LINE"
);
},
{
closed = 1;
nodes = (
"134 720 LINE",
"24 720 LINE",
"24 700 LINE",
"134 700 LINE"
);
}
);
width = 684;
}
);
leftKerningGroup = I;
leftMetricsKey = I;
rightKerningGroup = P;
unicode = 0050;
},
{
glyphname = Q;
lastChange = "2020-05-07 14:17:27 +0000";
layers = (
{
layerId = "8E2477B1-6F82-4933-924D-A4D021D30CA2";
paths = (
{
closed = 1;
nodes = (
"626 -10 OFFCURVE",
"780 128 OFFCURVE",
"780 360 CURVE SMOOTH",
"780 594 OFFCURVE",
"632 730 OFFCURVE",
"424 730 CURVE SMOOTH",
"216 730 OFFCURVE",
"68 594 OFFCURVE",
"68 360 CURVE SMOOTH",
"68 126 OFFCURVE",
"216 -10 OFFCURVE",
"424 -10 CURVE SMOOTH"
);
},
{
closed = 1;
nodes = (
"246 30 OFFCURVE",
"122 158 OFFCURVE",
"122 360 CURVE SMOOTH",
"122 560 OFFCURVE",
"246 688 OFFCURVE",
"424 688 CURVE SMOOTH",
"602 688 OFFCURVE",
"726 560 OFFCURVE",
"726 360 CURVE SMOOTH",
"726 158 OFFCURVE",
"606 30 OFFCURVE",
"424 30 CURVE SMOOTH"
);
},
{
closed = 1;
nodes = (
"548 0 LINE",
"548 99 LINE SMOOTH",
"548 165 OFFCURVE",
"517 205 OFFCURVE",
"459 205 CURVE SMOOTH",
"400 205 OFFCURVE",
"370 165 OFFCURVE",
"370 105 CURVE SMOOTH",
"370 0 LINE",
"410 0 LINE",
"410 107 LINE SMOOTH",
"410 143 OFFCURVE",
"424 165 OFFCURVE",
"455 165 CURVE SMOOTH",
"486 165 OFFCURVE",
"500 143 OFFCURVE",
"500 107 CURVE SMOOTH",
"500 0 LINE"
);
},
{
closed = 1;
nodes = (
"500 0 LINE",
"500 -44 LINE SMOOTH",
"500 -110 OFFCURVE",
"531 -150 OFFCURVE",
"589 -150 CURVE SMOOTH",
"648 -150 OFFCURVE",
"678 -110 OFFCURVE",
"678 -50 CURVE SMOOTH",
"678 -25 LINE",
"638 -25 LINE",
"638 -52 LINE SMOOTH",
"638 -88 OFFCURVE",
"624 -110 OFFCURVE",
"593 -110 CURVE SMOOTH",
"562 -110 OFFCURVE",
"548 -88 OFFCURVE",
"548 -52 CURVE SMOOTH",
"548 0 LINE"
);
}
);
width = 848;
},
{
layerId = "38DA3315-22D6-4CA2-8458-CB7E0975637F";
paths = (
{
closed = 1;
nodes = (
"681 -10 OFFCURVE",
"844 126 OFFCURVE",
"844 360 CURVE SMOOTH",
"844 594 OFFCURVE",
"681 730 OFFCURVE",
"452 730 CURVE SMOOTH",
"223 730 OFFCURVE",
"60 594 OFFCURVE",
"60 360 CURVE SMOOTH",
"60 126 OFFCURVE",
"223 -10 OFFCURVE",
"452 -10 CURVE SMOOTH"
);
},
{
closed = 1;
nodes = (
"313 64 OFFCURVE",
"224 181 OFFCURVE",
"224 360 CURVE SMOOTH",
"224 539 OFFCURVE",
"313 656 OFFCURVE",
"452 656 CURVE SMOOTH",
"591 656 OFFCURVE",
"680 539 OFFCURVE",
"680 360 CURVE SMOOTH",
"680 181 OFFCURVE",
"591 64 OFFCURVE",
"452 64 CURVE SMOOTH"
);
},
{
closed = 1;
nodes = (
"620 0 LINE",
"620 119 LINE SMOOTH",
"620 216 OFFCURVE",
"572 275 OFFCURVE",
"483 275 CURVE SMOOTH",
"395 275 OFFCURVE",
"350 223 OFFCURVE",
"350 145 CURVE SMOOTH",
"350 30 LINE",
"420 30 LINE",
"420 147 LINE SMOOTH",
"420 174 OFFCURVE",
"431 191 OFFCURVE",
"455 191 CURVE SMOOTH",
"479 191 OFFCURVE",
"490 174 OFFCURVE",
"490 147 CURVE SMOOTH",
"490 0 LINE"
);
},
{
closed = 1;
nodes = (
"490 0 LINE",
"490 -24 LINE SMOOTH",
"490 -121 OFFCURVE",
"538 -180 OFFCURVE",
"627 -180 CURVE SMOOTH",
"715 -180 OFFCURVE",
"760 -128 OFFCURVE",
"760 -50 CURVE SMOOTH",
"760 -25 LINE",
"690 -25 LINE",
"690 -52 LINE SMOOTH",
"690 -79 OFFCURVE",
"679 -96 OFFCURVE",
"655 -96 CURVE SMOOTH",
"631 -96 OFFCURVE",
"620 -79 OFFCURVE",
"620 -52 CURVE SMOOTH",
"620 0 LINE"
);
}
);
width = 904;
},
{
layerId = "15B5FD12-AAB5-4088-829B-CB8139BF8816";
paths = (
{
closed = 1;
nodes = (
"671 -10 OFFCURVE",
"834 126 OFFCURVE",
"834 360 CURVE SMOOTH",
"834 594 OFFCURVE",
"671 730 OFFCURVE",
"442 730 CURVE SMOOTH",
"213 730 OFFCURVE",
"50 594 OFFCURVE",
"50 360 CURVE SMOOTH",
"50 126 OFFCURVE",
"213 -10 OFFCURVE",
"442 -10 CURVE SMOOTH"
);
},
{
closed = 1;
nodes = (
"303 10 OFFCURVE",
"214 148 OFFCURVE",
"214 360 CURVE SMOOTH",
"214 572 OFFCURVE",
"303 710 OFFCURVE",
"442 710 CURVE SMOOTH",
"581 710 OFFCURVE",
"670 572 OFFCURVE",
"670 360 CURVE SMOOTH",
"670 148 OFFCURVE",
"581 10 OFFCURVE",
"442 10 CURVE SMOOTH"
);
},
{
closed = 1;
nodes = (
"602 0 LINE",
"602 82 LINE SMOOTH",
"602 174 OFFCURVE",
"567 224 OFFCURVE",
"484 224 CURVE SMOOTH",
"414 224 OFFCURVE",
"374 177 OFFCURVE",
"374 106 CURVE SMOOTH",
"374 15 LINE",
"396 15 LINE",
"396 106 LINE SMOOTH",
"396 136 OFFCURVE",
"409 156 OFFCURVE",
"434 156 CURVE SMOOTH",
"459 156 OFFCURVE",
"472 136 OFFCURVE",
"472 106 CURVE SMOOTH",
"472 0 LINE"
);
},
{
closed = 1;
nodes = (
"472 0 LINE",
"472 -43 LINE SMOOTH",
"472 -135 OFFCURVE",
"507 -185 OFFCURVE",
"590 -185 CURVE SMOOTH",
"660 -185 OFFCURVE",
"700 -138 OFFCURVE",
"700 -67 CURVE SMOOTH",
"700 -55 LINE",
"678 -55 LINE",
"678 -67 LINE SMOOTH",
"678 -97 OFFCURVE",
"665 -117 OFFCURVE",
"640 -117 CURVE SMOOTH",
"615 -117 OFFCURVE",
"602 -97 OFFCURVE",
"602 -67 CURVE SMOOTH",
"602 0 LINE"
);
}
);
width = 884;
},
{
layerId = "CA54B7DC-FBBB-40FE-ACF3-AABDD76D6A7B";
paths = (
{
closed = 1;
nodes = (
"620 -10 OFFCURVE",
"772 128 OFFCURVE",
"772 360 CURVE SMOOTH",
"772 594 OFFCURVE",
"624 730 OFFCURVE",
"416 730 CURVE SMOOTH",
"208 730 OFFCURVE",
"60 594 OFFCURVE",
"60 360 CURVE SMOOTH",
"60 126 OFFCURVE",
"208 -10 OFFCURVE",
"416 -10 CURVE SMOOTH"
);
},
{
closed = 1;
nodes = (
"238 12 OFFCURVE",
"114 148 OFFCURVE",
"114 360 CURVE SMOOTH",
"114 572 OFFCURVE",
"238 708 OFFCURVE",
"416 708 CURVE SMOOTH",
"594 708 OFFCURVE",
"718 572 OFFCURVE",
"718 360 CURVE SMOOTH",
"718 144 OFFCURVE",
"600 12 OFFCURVE",
"416 12 CURVE SMOOTH"
);
},
{
closed = 1;
nodes = (
"541 0 LINE",
"541 92 LINE SMOOTH",
"541 155 OFFCURVE",
"516 190 OFFCURVE",
"457 190 CURVE SMOOTH",
"406 190 OFFCURVE",
"377 155 OFFCURVE",
"377 102 CURVE SMOOTH",
"377 0 LINE",
"399 0 LINE",
"399 102 LINE SMOOTH",
"399 140 OFFCURVE",
"415 166 OFFCURVE",
"447 166 CURVE SMOOTH",
"479 166 OFFCURVE",
"495 140 OFFCURVE",
"495 102 CURVE SMOOTH",
"495 0 LINE"
);
},
{
closed = 1;
nodes = (
"495 0 LINE",
"495 -47 LINE SMOOTH",
"495 -110 OFFCURVE",
"520 -145 OFFCURVE",
"579 -145 CURVE SMOOTH",
"630 -145 OFFCURVE",
"659 -110 OFFCURVE",
"659 -57 CURVE SMOOTH",
"659 -35 LINE",
"637 -35 LINE",
"637 -57 LINE SMOOTH",
"637 -95 OFFCURVE",
"621 -121 OFFCURVE",
"589 -121 CURVE SMOOTH",
"557 -121 OFFCURVE",
"541 -95 OFFCURVE",
"541 -57 CURVE SMOOTH",
"541 0 LINE"
);
}
);
width = 832;
}
);
leftKerningGroup = O;
leftMetricsKey = O;
rightKerningGroup = O;
rightMetricsKey = O;
unicode = 0051;
},
{
glyphname = R;
lastChange = "2020-05-07 14:19:00 +0000";
layers = (
{
layerId = "8E2477B1-6F82-4933-924D-A4D021D30CA2";
paths = (
{
closed = 1;
nodes = (
"210 680 LINE",
"458 680 LINE SMOOTH",
"562 680 OFFCURVE",
"628 630 OFFCURVE",
"628 530 CURVE SMOOTH",
"628 430 OFFCURVE",
"562 380 OFFCURVE",
"458 380 CURVE SMOOTH",
"210 380 LINE",
"210 340 LINE",
"434 340 LINE",
"460 346 LINE",
"590 346 OFFCURVE",
"680 411 OFFCURVE",
"680 532 CURVE SMOOTH",
"680 655 OFFCURVE",
"590 720 OFFCURVE",
"460 720 CURVE SMOOTH",
"210 720 LINE"
);
},
{
closed = 1;
nodes = (
"345 40 LINE",
"38 40 LINE",
"38 0 LINE",
"345 0 LINE"
);
},
{
closed = 1;
nodes = (
"210 720 LINE",
"158 720 LINE",
"158 0 LINE",
"210 0 LINE"
);
},
{
closed = 1;
nodes = (
"158 720 LINE",
"38 720 LINE",
"38 680 LINE",
"158 680 LINE"
);
},
{
closed = 1;
nodes = (
"210 340 LINE",
"382 340 LINE SMOOTH",
"457 340 OFFCURVE",
"498 303 OFFCURVE",
"498 214 CURVE SMOOTH",
"498 96 LINE SMOOTH",
"498 33 OFFCURVE",
"533 -10 OFFCURVE",
"601 -10 CURVE SMOOTH",
"665 -10 OFFCURVE",
"700 31 OFFCURVE",
"700 94 CURVE SMOOTH",
"700 150 LINE",
"658 150 LINE",
"658 94 LINE SMOOTH",
"658 54 OFFCURVE",
"640 30 OFFCURVE",
"604 30 CURVE SMOOTH",
"568 30 OFFCURVE",
"550 54 OFFCURVE",
"550 94 CURVE SMOOTH",
"550 210 LINE SMOOTH",
"550 312 OFFCURVE",
"504 356 OFFCURVE",
"407 356 CURVE SMOOTH",
"210 356 LINE"
);
}
);
width = 746;
},
{
layerId = "38DA3315-22D6-4CA2-8458-CB7E0975637F";
paths = (
{
closed = 1;
nodes = (
"290 650 LINE",
"404 650 LINE SMOOTH",
"498 650 OFFCURVE",
"558 607 OFFCURVE",
"558 522 CURVE SMOOTH",
"558 437 OFFCURVE",
"498 394 OFFCURVE",
"404 394 CURVE SMOOTH",
"290 394 LINE",
"290 324 LINE",
"435 324 LINE",
"466 336 LINE SMOOTH",
"616 336 OFFCURVE",
"720 402 OFFCURVE",
"720 526 CURVE SMOOTH",
"720 652 OFFCURVE",
"616 720 OFFCURVE",
"466 720 CURVE SMOOTH",
"290 720 LINE"
);
},
{
closed = 1;
nodes = (
"390 70 LINE",
"32 70 LINE",
"32 0 LINE",
"390 0 LINE"
);
},
{
closed = 1;
nodes = (
"290 720 LINE",
"132 720 LINE",
"132 0 LINE",
"290 0 LINE"
);
},
{
closed = 1;
nodes = (
"132 720 LINE",
"32 720 LINE",
"32 650 LINE",
"132 650 LINE"
);
},
{
closed = 1;
nodes = (
"290 324 LINE",
"350 324 LINE SMOOTH",
"421 324 OFFCURVE",
"458 293 OFFCURVE",
"458 218 CURVE SMOOTH",
"458 146 LINE SMOOTH",
"458 53 OFFCURVE",
"512 -10 OFFCURVE",
"613 -10 CURVE SMOOTH",
"704 -10 OFFCURVE",
"754 43 OFFCURVE",
"754 124 CURVE SMOOTH",
"754 170 LINE",
"680 170 LINE",
"680 124 LINE SMOOTH",
"680 97 OFFCURVE",
"669 80 OFFCURVE",
"646 80 CURVE SMOOTH",
"623 80 OFFCURVE",
"612 97 OFFCURVE",
"612 124 CURVE SMOOTH",
"612 184 LINE SMOOTH",
"612 292 OFFCURVE",
"560 342 OFFCURVE",
"449 342 CURVE SMOOTH",
"290 342 LINE"
);
}
);
width = 766;
},
{
layerId = "15B5FD12-AAB5-4088-829B-CB8139BF8816";
paths = (
{
closed = 1;
nodes = (
"262 700 LINE",
"374 700 LINE SMOOTH",
"467 700 OFFCURVE",
"538 652 OFFCURVE",
"538 532 CURVE SMOOTH",
"538 412 OFFCURVE",
"467 364 OFFCURVE",
"374 364 CURVE SMOOTH",
"262 364 LINE",
"262 344 LINE",
"393 344 LINE",
"400 348 LINE",
"585 348 OFFCURVE",
"700 404 OFFCURVE",
"700 536 CURVE SMOOTH",
"700 665 OFFCURVE",
"600 720 OFFCURVE",
"440 720 CURVE SMOOTH",
"262 720 LINE"
);
},
{
closed = 1;
nodes = (
"372 20 LINE",
"14 20 LINE",
"14 0 LINE",
"372 0 LINE"
);
},
{
closed = 1;
nodes = (
"262 720 LINE",
"104 720 LINE",
"104 0 LINE",
"262 0 LINE"
);
},
{
closed = 1;
nodes = (
"104 720 LINE",
"14 720 LINE",
"14 700 LINE",
"104 700 LINE"
);
},
{
closed = 1;
nodes = (
"252 344 LINE",
"326 344 LINE SMOOTH",
"404 344 OFFCURVE",
"442 313 OFFCURVE",
"442 228 CURVE SMOOTH",
"442 174 LINE SMOOTH",
"442 46 OFFCURVE",
"488 -10 OFFCURVE",
"591 -10 CURVE SMOOTH",
"680 -10 OFFCURVE",
"720 46 OFFCURVE",
"720 126 CURVE SMOOTH",
"720 200 LINE",
"700 200 LINE",
"700 126 LINE SMOOTH",
"700 80 OFFCURVE",
"684 54 OFFCURVE",
"650 54 CURVE SMOOTH",
"616 54 OFFCURVE",
"600 79 OFFCURVE",
"600 120 CURVE SMOOTH",
"600 200 LINE SMOOTH",
"600 305 OFFCURVE",
"534 348 OFFCURVE",
"400 348 CURVE SMOOTH",
"252 352 LINE"
);
}
);
width = 740;
},
{
layerId = "CA54B7DC-FBBB-40FE-ACF3-AABDD76D6A7B";
paths = (
{
closed = 1;
nodes = (
"186 700 LINE",
"420 700 LINE SMOOTH",
"533 700 OFFCURVE",
"604 645 OFFCURVE",
"604 536 CURVE SMOOTH",
"604 427 OFFCURVE",
"533 372 OFFCURVE",
"420 372 CURVE SMOOTH",
"186 372 LINE",
"186 352 LINE",
"403 352 LINE",
"426 354 LINE",
"562 354 OFFCURVE",
"656 415 OFFCURVE",
"656 536 CURVE SMOOTH",
"656 658 OFFCURVE",
"562 720 OFFCURVE",
"426 720 CURVE SMOOTH",
"186 720 LINE"
);
},
{
closed = 1;
nodes = (
"326 20 LINE",
"24 20 LINE",
"24 0 LINE",
"326 0 LINE"
);
},
{
closed = 1;
nodes = (
"186 720 LINE",
"134 720 LINE",
"134 0 LINE",
"186 0 LINE"
);
},
{
closed = 1;
nodes = (
"134 720 LINE",
"24 720 LINE",
"24 700 LINE",
"134 700 LINE"
);
},
{
closed = 1;
nodes = (
"186 352 LINE",
"368 352 LINE SMOOTH",
"443 352 OFFCURVE",
"484 304 OFFCURVE",
"484 218 CURVE SMOOTH",
"484 94 LINE SMOOTH",
"484 22 OFFCURVE",
"518 -10 OFFCURVE",
"581 -10 CURVE SMOOTH",
"646 -10 OFFCURVE",
"670 27 OFFCURVE",
"670 86 CURVE SMOOTH",
"670 150 LINE",
"648 150 LINE",
"648 86 LINE SMOOTH",
"648 42 OFFCURVE",
"632 12 OFFCURVE",
"592 12 CURVE SMOOTH",
"552 12 OFFCURVE",
"536 43 OFFCURVE",
"536 86 CURVE SMOOTH",
"536 214 LINE SMOOTH",
"536 308 OFFCURVE",
"485 360 OFFCURVE",
"377 360 CURVE SMOOTH",
"186 360 LINE"
);
}
);
width = 706;
}
);
leftKerningGroup = I;
leftMetricsKey = I;
rightKerningGroup = R;
unicode = 0052;
},
{
glyphname = S;
lastChange = "2020-05-07 14:18:09 +0000";
layers = (
{
layerId = "8E2477B1-6F82-4933-924D-A4D021D30CA2";
paths = (
{
closed = 1;
nodes = (
"98 426 OFFCURVE",
"189 377 OFFCURVE",
"309 353 CURVE SMOOTH",
"413 332 LINE SMOOTH",
"526 309 OFFCURVE",
"598 276 OFFCURVE",
"598 178 CURVE SMOOTH",
"598 90 OFFCURVE",
"526 30 OFFCURVE",
"404 30 CURVE SMOOTH",
"282 30 OFFCURVE",
"182 89 OFFCURVE",
"130 220 CURVE",
"92 220 LINE",
"132 63 OFFCURVE",
"260 -10 OFFCURVE",
"406 -10 CURVE SMOOTH",
"552 -10 OFFCURVE",
"648 62 OFFCURVE",
"648 182 CURVE SMOOTH",
"648 302 OFFCURVE",
"557 352 OFFCURVE",
"428 378 CURVE SMOOTH",
"324 399 LINE SMOOTH",
"218 420 OFFCURVE",
"148 456 OFFCURVE",
"148 546 CURVE SMOOTH",
"148 636 OFFCURVE",
"217 690 OFFCURVE",
"335 690 CURVE SMOOTH",
"450 690 OFFCURVE",
"543 637 OFFCURVE",
"588 510 CURVE",
"626 510 LINE",
"586 662 OFFCURVE",
"471 730 OFFCURVE",
"333 730 CURVE SMOOTH",
"195 730 OFFCURVE",
"98 662 OFFCURVE",
"98 544 CURVE SMOOTH"
);
},
{
closed = 1;
nodes = (
"586 720 LINE",
"586 577 LINE",
"626 510 LINE",
"628 510 LINE",
"628 720 LINE"
);
},
{
closed = 1;
nodes = (
"132 0 LINE",
"132 171 LINE",
"92 220 LINE",
"90 220 LINE",
"90 0 LINE"
);
}
);
width = 728;
},
{
layerId = "38DA3315-22D6-4CA2-8458-CB7E0975637F";
paths = (
{
closed = 1;
nodes = (
"70 375 OFFCURVE",
"180 322 OFFCURVE",
"326 296 CURVE SMOOTH",
"392 284 LINE SMOOTH",
"497 265 OFFCURVE",
"562 241 OFFCURVE",
"562 169 CURVE SMOOTH",
"562 100 OFFCURVE",
"506 60 OFFCURVE",
"412 60 CURVE SMOOTH",
"293 60 OFFCURVE",
"195 104 OFFCURVE",
"146 210 CURVE",
"83 210 LINE",
"127 62 OFFCURVE",
"253 -10 OFFCURVE",
"404 -10 CURVE SMOOTH",
"568 -10 OFFCURVE",
"676 74 OFFCURVE",
"676 210 CURVE SMOOTH",
"676 351 OFFCURVE",
"567 406 OFFCURVE",
"408 435 CURVE SMOOTH",
"342 447 LINE SMOOTH",
"246 464 OFFCURVE",
"184 489 OFFCURVE",
"184 556 CURVE SMOOTH",
"184 622 OFFCURVE",
"242 660 OFFCURVE",
"339 660 CURVE SMOOTH",
"445 660 OFFCURVE",
"533 618 OFFCURVE",
"576 520 CURVE",
"639 520 LINE",
"594 667 OFFCURVE",
"474 730 OFFCURVE",
"331 730 CURVE SMOOTH",
"177 730 OFFCURVE",
"70 655 OFFCURVE",
"70 518 CURVE SMOOTH"
);
},
{
closed = 1;
nodes = (
"578 720 LINE",
"578 557 LINE",
"639 520 LINE",
"650 520 LINE",
"650 720 LINE"
);
},
{
closed = 1;
nodes = (
"144 0 LINE",
"144 171 LINE",
"83 210 LINE",
"72 210 LINE",
"72 0 LINE"
);
}
);
width = 738;
},
{
layerId = "15B5FD12-AAB5-4088-829B-CB8139BF8816";
paths = (
{
closed = 1;
nodes = (
"58 381 OFFCURVE",
"168 322 OFFCURVE",
"314 296 CURVE SMOOTH",
"380 284 LINE SMOOTH",
"497 263 OFFCURVE",
"570 236 OFFCURVE",
"570 152 CURVE SMOOTH",
"570 68 OFFCURVE",
"506 18 OFFCURVE",
"400 18 CURVE SMOOTH",
"257 18 OFFCURVE",
"139 71 OFFCURVE",
"80 200 CURVE",
"61 200 LINE",
"106 59 OFFCURVE",
"236 -10 OFFCURVE",
"392 -10 CURVE SMOOTH",
"556 -10 OFFCURVE",
"664 74 OFFCURVE",
"664 210 CURVE SMOOTH",
"664 347 OFFCURVE",
"555 406 OFFCURVE",
"396 435 CURVE SMOOTH",
"330 447 LINE SMOOTH",
"222 467 OFFCURVE",
"152 494 OFFCURVE",
"152 574 CURVE SMOOTH",
"152 654 OFFCURVE",
"217 702 OFFCURVE",
"327 702 CURVE SMOOTH",
"457 702 OFFCURVE",
"563 651 OFFCURVE",
"616 530 CURVE",
"635 530 LINE",
"587 670 OFFCURVE",
"466 730 OFFCURVE",
"319 730 CURVE SMOOTH",
"165 730 OFFCURVE",
"58 655 OFFCURVE",
"58 518 CURVE SMOOTH"
);
},
{
closed = 1;
nodes = (
"614 720 LINE",
"614 567 LINE",
"635 530 LINE",
"636 530 LINE",
"636 720 LINE"
);
},
{
closed = 1;
nodes = (
"82 0 LINE",
"82 161 LINE",
"61 200 LINE",
"60 200 LINE",
"60 0 LINE"
);
}
);
width = 708;
},
{
layerId = "CA54B7DC-FBBB-40FE-ACF3-AABDD76D6A7B";
paths = (
{
closed = 1;
nodes = (
"84 426 OFFCURVE",
"174 376 OFFCURVE",
"293 352 CURVE SMOOTH",
"397 331 LINE SMOOTH",
"515 307 OFFCURVE",
"590 270 OFFCURVE",
"590 170 CURVE SMOOTH",
"590 70 OFFCURVE",
"514 12 OFFCURVE",
"386 12 CURVE SMOOTH",
"260 12 OFFCURVE",
"151 70 OFFCURVE",
"98 210 CURVE",
"79 210 LINE",
"121 62 OFFCURVE",
"242 -10 OFFCURVE",
"388 -10 CURVE SMOOTH",
"534 -10 OFFCURVE",
"630 62 OFFCURVE",
"630 182 CURVE SMOOTH",
"630 302 OFFCURVE",
"540 353 OFFCURVE",
"412 379 CURVE SMOOTH",
"308 400 LINE SMOOTH",
"197 422 OFFCURVE",
"124 460 OFFCURVE",
"124 556 CURVE SMOOTH",
"124 652 OFFCURVE",
"195 708 OFFCURVE",
"317 708 CURVE SMOOTH",
"439 708 OFFCURVE",
"539 652 OFFCURVE",
"588 520 CURVE",
"607 520 LINE",
"563 667 OFFCURVE",
"451 730 OFFCURVE",
"315 730 CURVE SMOOTH",
"179 730 OFFCURVE",
"84 666 OFFCURVE",
"84 546 CURVE SMOOTH"
);
},
{
closed = 1;
nodes = (
"586 720 LINE",
"586 557 LINE",
"607 520 LINE",
"608 520 LINE",
"608 720 LINE"
);
},
{
closed = 1;
nodes = (
"100 0 LINE",
"100 171 LINE",
"79 210 LINE",
"78 210 LINE",
"78 0 LINE"
);
}
);
width = 698;
}
);
leftKerningGroup = S;
rightKerningGroup = S;
unicode = 0053;
},
{
glyphname = T;
lastChange = "2020-05-07 14:18:34 +0000";
layers = (
{
layerId = "8E2477B1-6F82-4933-924D-A4D021D30CA2";
paths = (
{
closed = 1;
nodes = (
"507 40 LINE",
"195 40 LINE",
"195 0 LINE",
"507 0 LINE"
);
},
{
closed = 1;
nodes = (
"377 720 LINE",
"325 720 LINE",
"325 0 LINE",
"377 0 LINE"
);
},
{
closed = 1;
nodes = (
"662 720 LINE",
"40 720 LINE",
"40 680 LINE",
"662 680 LINE"
);
},
{
closed = 1;
nodes = (
"610 680 OFFCURVE",
"620 665 OFFCURVE",
"620 616 CURVE SMOOTH",
"620 535 LINE",
"662 535 LINE",
"662 680 LINE",
"555 680 LINE"
);
},
{
closed = 1;
nodes = (
"40 680 LINE",
"40 535 LINE",
"82 535 LINE",
"82 616 LINE SMOOTH",
"82 665 OFFCURVE",
"92 680 OFFCURVE",
"147 680 CURVE"
);
}
);
width = 702;
},
{
layerId = "38DA3315-22D6-4CA2-8458-CB7E0975637F";
paths = (
{
closed = 1;
nodes = (
"566 70 LINE",
"186 70 LINE",
"186 0 LINE",
"566 0 LINE"
);
},
{
closed = 1;
nodes = (
"456 720 LINE",
"296 720 LINE",
"296 0 LINE",
"456 0 LINE"
);
},
{
closed = 1;
nodes = (
"716 720 LINE",
"36 720 LINE",
"36 650 LINE",
"716 650 LINE"
);
},
{
closed = 1;
nodes = (
"629 650 OFFCURVE",
"644 628 OFFCURVE",
"644 556 CURVE SMOOTH",
"644 495 LINE",
"716 495 LINE",
"716 650 LINE",
"549 650 LINE"
);
},
{
closed = 1;
nodes = (
"36 650 LINE",
"36 495 LINE",
"108 495 LINE",
"108 556 LINE SMOOTH",
"108 628 OFFCURVE",
"123 650 OFFCURVE",
"203 650 CURVE"
);
}
);
width = 752;
},
{
layerId = "15B5FD12-AAB5-4088-829B-CB8139BF8816";
paths = (
{
closed = 1;
nodes = (
"547 20 LINE",
"177 20 LINE",
"177 0 LINE",
"547 0 LINE"
);
},
{
closed = 1;
nodes = (
"442 720 LINE",
"282 720 LINE",
"282 0 LINE",
"442 0 LINE"
);
},
{
closed = 1;
nodes = (
"702 720 LINE",
"22 720 LINE",
"22 700 LINE",
"702 700 LINE"
);
},
{
closed = 1;
nodes = (
"662 700 OFFCURVE",
"680 676 OFFCURVE",
"680 596 CURVE SMOOTH",
"680 535 LINE",
"702 535 LINE",
"702 700 LINE",
"576 700 LINE"
);
},
{
closed = 1;
nodes = (
"22 700 LINE",
"22 535 LINE",
"44 535 LINE",
"44 596 LINE SMOOTH",
"44 676 OFFCURVE",
"62 700 OFFCURVE",
"148 700 CURVE"
);
}
);
width = 724;
},
{
layerId = "CA54B7DC-FBBB-40FE-ACF3-AABDD76D6A7B";
paths = (
{
closed = 1;
nodes = (
"486 20 LINE",
"184 20 LINE",
"184 0 LINE",
"486 0 LINE"
);
},
{
closed = 1;
nodes = (
"361 720 LINE",
"309 720 LINE",
"309 0 LINE",
"361 0 LINE"
);
},
{
closed = 1;
nodes = (
"641 720 LINE",
"30 720 LINE",
"30 700 LINE",
"641 700 LINE"
);
},
{
closed = 1;
nodes = (
"609 700 OFFCURVE",
"619 685 OFFCURVE",
"619 636 CURVE SMOOTH",
"619 545 LINE",
"641 545 LINE",
"641 700 LINE",
"554 700 LINE"
);
},
{
closed = 1;
nodes = (
"30 700 LINE",
"30 545 LINE",
"52 545 LINE",
"52 636 LINE SMOOTH",
"52 685 OFFCURVE",
"62 700 OFFCURVE",
"117 700 CURVE"
);
}
);
width = 671;
}
);
leftKerningGroup = T;
rightKerningGroup = T;
unicode = 0054;
},
{
glyphname = U;
lastChange = "2020-05-07 14:20:10 +0000";
layers = (
{
layerId = "8E2477B1-6F82-4933-924D-A4D021D30CA2";
paths = (
{
closed = 1;
nodes = (
"148 88 OFFCURVE",
"241 -10 OFFCURVE",
"414 -10 CURVE SMOOTH",
"587 -10 OFFCURVE",
"678 88 OFFCURVE",
"678 260 CURVE SMOOTH",
"678 720 LINE",
"632 720 LINE",
"632 260 LINE SMOOTH",
"632 119 OFFCURVE",
"561 32 OFFCURVE",
"416 32 CURVE SMOOTH",
"271 32 OFFCURVE",
"200 119 OFFCURVE",
"200 260 CURVE SMOOTH",
"200 720 LINE",
"148 720 LINE",
"148 262 LINE SMOOTH"
);
},
{
closed = 1;
nodes = (
"28 680 LINE",
"320 680 LINE",
"320 720 LINE",
"28 720 LINE"
);
},
{
closed = 1;
nodes = (
"512 680 LINE",
"798 680 LINE",
"798 720 LINE",
"512 720 LINE"
);
}
);
width = 826;
},
{
layerId = "38DA3315-22D6-4CA2-8458-CB7E0975637F";
paths = (
{
closed = 1;
nodes = (
"120 95 OFFCURVE",
"226 -10 OFFCURVE",
"430 -10 CURVE SMOOTH",
"625 -10 OFFCURVE",
"724 91 OFFCURVE",
"724 270 CURVE SMOOTH",
"724 720 LINE",
"648 720 LINE",
"648 270 LINE SMOOTH",
"648 142 OFFCURVE",
"593 62 OFFCURVE",
"474 62 CURVE SMOOTH",
"335 62 OFFCURVE",
"270 142 OFFCURVE",
"270 270 CURVE SMOOTH",
"270 720 LINE",
"120 720 LINE",
"120 286 LINE SMOOTH"
);
},
{
closed = 1;
nodes = (
"20 650 LINE",
"370 650 LINE",
"370 720 LINE",
"20 720 LINE"
);
},
{
closed = 1;
nodes = (
"548 650 LINE",
"824 650 LINE",
"824 720 LINE",
"548 720 LINE"
);
}
);
width = 844;
},
{
layerId = "15B5FD12-AAB5-4088-829B-CB8139BF8816";
paths = (
{
closed = 1;
nodes = (
"98 88 OFFCURVE",
"204 -10 OFFCURVE",
"408 -10 CURVE SMOOTH",
"587 -10 OFFCURVE",
"678 84 OFFCURVE",
"678 250 CURVE SMOOTH",
"678 720 LINE",
"656 720 LINE",
"656 250 LINE SMOOTH",
"656 115 OFFCURVE",
"591 30 OFFCURVE",
"452 30 CURVE SMOOTH",
"313 30 OFFCURVE",
"248 115 OFFCURVE",
"248 250 CURVE SMOOTH",
"248 720 LINE",
"98 720 LINE",
"98 266 LINE SMOOTH"
);
},
{
closed = 1;
nodes = (
"8 700 LINE",
"338 700 LINE",
"338 720 LINE",
"8 720 LINE"
);
},
{
closed = 1;
nodes = (
"566 700 LINE",
"768 700 LINE",
"768 720 LINE",
"566 720 LINE"
);
}
);
width = 776;
},
{
layerId = "CA54B7DC-FBBB-40FE-ACF3-AABDD76D6A7B";
paths = (
{
closed = 1;
nodes = (
"126 89 OFFCURVE",
"219 -10 OFFCURVE",
"394 -10 CURVE SMOOTH",
"570 -10 OFFCURVE",
"660 89 OFFCURVE",
"660 264 CURVE SMOOTH",
"660 720 LINE",
"638 720 LINE",
"638 264 LINE SMOOTH",
"638 109 OFFCURVE",
"564 12 OFFCURVE",
"408 12 CURVE SMOOTH",
"252 12 OFFCURVE",
"178 109 OFFCURVE",
"178 264 CURVE SMOOTH",
"178 720 LINE",
"126 720 LINE",
"126 270 LINE SMOOTH"
);
},
{
closed = 1;
nodes = (
"16 700 LINE",
"288 700 LINE",
"288 720 LINE",
"16 720 LINE"
);
},
{
closed = 1;
nodes = (
"528 700 LINE",
"770 700 LINE",
"770 720 LINE",
"528 720 LINE"
);
}
);
width = 786;
}
);
leftKerningGroup = U;
rightKerningGroup = U;
unicode = 0055;
},
{
glyphname = V;
lastChange = "2020-05-07 14:19:53 +0000";
layers = (
{
layerId = "8E2477B1-6F82-4933-924D-A4D021D30CA2";
paths = (
{
closed = 1;
nodes = (
"663 680 LINE",
"615 680 LINE",
"366 25 LINE",
"368 0 LINE",
"405 0 LINE"
);
},
{
closed = 1;
nodes = (
"376 0 LINE",
"396 49 LINE",
"157 680 LINE",
"103 680 LINE",
"361 0 LINE"
);
},
{
closed = 1;
nodes = (
"738 720 LINE",
"500 720 LINE",
"500 680 LINE",
"738 680 LINE"
);
},
{
closed = 1;
nodes = (
"277 720 LINE",
"28 720 LINE",
"28 680 LINE",
"277 680 LINE"
);
}
);
width = 766;
},
{
layerId = "38DA3315-22D6-4CA2-8458-CB7E0975637F";
paths = (
{
closed = 1;
nodes = (
"709 650 LINE",
"629 650 LINE",
"373 30 LINE",
"403 0 LINE",
"440 0 LINE"
);
},
{
closed = 1;
nodes = (
"409 0 LINE",
"459 149 LINE",
"253 650 LINE",
"85 650 LINE",
"364 0 LINE"
);
},
{
closed = 1;
nodes = (
"774 720 LINE",
"534 720 LINE",
"534 650 LINE",
"774 650 LINE"
);
},
{
closed = 1;
nodes = (
"353 720 LINE",
"20 720 LINE",
"20 650 LINE",
"353 650 LINE"
);
}
);
width = 794;
},
{
layerId = "15B5FD12-AAB5-4088-829B-CB8139BF8816";
paths = (
{
closed = 1;
nodes = (
"693 700 LINE",
"669 700 LINE",
"396 30 LINE",
"399 0 LINE",
"407 0 LINE"
);
},
{
closed = 1;
nodes = (
"403 0 LINE",
"462 165 LINE",
"243 700 LINE",
"77 700 LINE",
"383 0 LINE"
);
},
{
closed = 1;
nodes = (
"758 720 LINE",
"574 720 LINE",
"574 700 LINE",
"758 700 LINE"
);
},
{
closed = 1;
nodes = (
"343 720 LINE",
"12 720 LINE",
"12 700 LINE",
"343 700 LINE"
);
}
);
width = 770;
},
{
layerId = "CA54B7DC-FBBB-40FE-ACF3-AABDD76D6A7B";
paths = (
{
closed = 1;
nodes = (
"636 700 LINE",
"612 700 LINE",
"358 25 LINE",
"359 0 LINE",
"372 0 LINE"
);
},
{
closed = 1;
nodes = (
"365 0 LINE",
"384 52 LINE",
"140 700 LINE",
"86 700 LINE",
"350 0 LINE"
);
},
{
closed = 1;
nodes = (
"706 720 LINE",
"497 720 LINE",
"497 700 LINE",
"706 700 LINE"
);
},
{
closed = 1;
nodes = (
"260 720 LINE",
"16 720 LINE",
"16 700 LINE",
"260 700 LINE"
);
}
);
width = 722;
}
);
leftKerningGroup = V;
rightKerningGroup = V;
unicode = 0056;
},
{
glyphname = W;
lastChange = "2020-05-07 14:22:08 +0000";
layers = (
{
layerId = "8E2477B1-6F82-4933-924D-A4D021D30CA2";
paths = (
{
closed = 1;
nodes = (
"526 559 LINE",
"501 632 LINE",
"318 27 LINE",
"320 0 LINE",
"357 0 LINE"
);
},
{
closed = 1;
nodes = (
"324 0 LINE",
"344 58 LINE",
"156 680 LINE",
"103 680 LINE",
"309 0 LINE"
);
},
{
closed = 1;
nodes = (
"276 720 LINE",
"28 720 LINE",
"28 680 LINE",
"276 680 LINE"
);
},
{
closed = 1;
nodes = (
"923 680 LINE",
"876 680 LINE",
"678 27 LINE",
"680 0 LINE",
"717 0 LINE"
);
},
{
closed = 1;
nodes = (
"684 0 LINE",
"704 58 LINE",
"516 680 LINE",
"463 680 LINE",
"669 0 LINE"
);
},
{
closed = 1;
nodes = (
"998 720 LINE",
"761 720 LINE",
"761 680 LINE",
"998 680 LINE"
);
},
{
closed = 1;
nodes = (
"636 720 LINE",
"358 720 LINE",
"358 680 LINE",
"636 680 LINE"
);
}
);
width = 1026;
},
{
layerId = "38DA3315-22D6-4CA2-8458-CB7E0975637F";
paths = (
{
closed = 1;
nodes = (
"615 605 LINE",
"539 605 LINE",
"336 30 LINE",
"365 0 LINE",
"402 0 LINE"
);
},
{
closed = 1;
nodes = (
"369 0 LINE",
"420 149 LINE",
"250 650 LINE",
"85 650 LINE",
"324 0 LINE"
);
},
{
closed = 1;
nodes = (
"350 720 LINE",
"20 720 LINE",
"20 650 LINE",
"350 650 LINE"
);
},
{
closed = 1;
nodes = (
"1006 650 LINE",
"930 650 LINE",
"711 30 LINE",
"740 0 LINE",
"777 0 LINE"
);
},
{
closed = 1;
nodes = (
"744 0 LINE",
"795 149 LINE",
"625 650 LINE",
"460 650 LINE",
"699 0 LINE"
);
},
{
closed = 1;
nodes = (
"1071 720 LINE",
"835 720 LINE",
"835 650 LINE",
"1071 650 LINE"
);
},
{
closed = 1;
nodes = (
"725 720 LINE",
"390 720 LINE",
"390 650 LINE",
"725 650 LINE"
);
}
);
width = 1091;
},
{
layerId = "15B5FD12-AAB5-4088-829B-CB8139BF8816";
paths = (
{
closed = 1;
nodes = (
"592 635 LINE",
"569 635 LINE",
"356 30 LINE",
"359 0 LINE",
"369 0 LINE"
);
},
{
closed = 1;
nodes = (
"363 0 LINE",
"422 176 LINE",
"240 700 LINE",
"77 700 LINE",
"343 0 LINE"
);
},
{
closed = 1;
nodes = (
"340 720 LINE",
"12 720 LINE",
"12 700 LINE",
"340 700 LINE"
);
},
{
closed = 1;
nodes = (
"985 700 LINE",
"962 700 LINE",
"726 30 LINE",
"729 0 LINE",
"739 0 LINE"
);
},
{
closed = 1;
nodes = (
"733 0 LINE",
"792 176 LINE",
"610 700 LINE",
"447 700 LINE",
"713 0 LINE"
);
},
{
closed = 1;
nodes = (
"1050 720 LINE",
"867 720 LINE",
"867 700 LINE",
"1050 700 LINE"
);
},
{
closed = 1;
nodes = (
"710 720 LINE",
"377 720 LINE",
"377 700 LINE",
"710 700 LINE"
);
}
);
width = 1062;
},
{
layerId = "CA54B7DC-FBBB-40FE-ACF3-AABDD76D6A7B";
paths = (
{
closed = 1;
nodes = (
"515 625 LINE",
"492 625 LINE",
"310 29 LINE",
"311 0 LINE",
"324 0 LINE"
);
},
{
closed = 1;
nodes = (
"315 0 LINE",
"333 64 LINE",
"139 700 LINE",
"86 700 LINE",
"300 0 LINE"
);
},
{
closed = 1;
nodes = (
"259 720 LINE",
"16 720 LINE",
"16 700 LINE",
"259 700 LINE"
);
},
{
closed = 1;
nodes = (
"898 700 LINE",
"875 700 LINE",
"670 29 LINE",
"671 0 LINE",
"684 0 LINE"
);
},
{
closed = 1;
nodes = (
"675 0 LINE",
"693 64 LINE",
"499 700 LINE",
"446 700 LINE",
"660 0 LINE"
);
},
{
closed = 1;
nodes = (
"968 720 LINE",
"760 720 LINE",
"760 700 LINE",
"968 700 LINE"
);
},
{
closed = 1;
nodes = (
"619 720 LINE",
"346 720 LINE",
"346 700 LINE",
"619 700 LINE"
);
}
);
width = 984;
}
);
leftKerningGroup = W;
leftMetricsKey = V;
rightKerningGroup = W;
rightMetricsKey = V;
unicode = 0057;
},
{
glyphname = X;
lastChange = "2020-05-07 14:19:34 +0000";
layers = (
{
layerId = "8E2477B1-6F82-4933-924D-A4D021D30CA2";
paths = (
{
closed = 1;
nodes = (
"394 379 LINE",
"183 680 LINE",
"121 680 LINE",
"366 336 LINE"
);
},
{
closed = 1;
nodes = (
"303 720 LINE",
"46 720 LINE",
"46 680 LINE",
"303 680 LINE"
);
},
{
closed = 1;
nodes = (
"368 341 LINE",
"579 40 LINE",
"641 40 LINE",
"396 384 LINE"
);
},
{
closed = 1;
nodes = (
"716 40 LINE",
"459 40 LINE",
"459 0 LINE",
"716 0 LINE"
);
},
{
closed = 1;
nodes = (
"382 336 LINE",
"627 680 LINE",
"573 680 LINE",
"352 370 LINE"
);
},
{
closed = 1;
nodes = (
"702 720 LINE",
"458 720 LINE",
"458 680 LINE",
"702 680 LINE"
);
},
{
closed = 1;
nodes = (
"352 384 LINE",
"107 40 LINE",
"161 40 LINE",
"382 350 LINE"
);
},
{
closed = 1;
nodes = (
"276 40 LINE",
"32 40 LINE",
"32 0 LINE",
"276 0 LINE"
);
}
);
width = 748;
},
{
layerId = "38DA3315-22D6-4CA2-8458-CB7E0975637F";
paths = (
{
closed = 1;
nodes = (
"465 398 LINE",
"281 650 LINE",
"89 650 LINE",
"336 322 LINE"
);
},
{
closed = 1;
nodes = (
"381 720 LINE",
"24 720 LINE",
"24 650 LINE",
"381 650 LINE"
);
},
{
closed = 1;
nodes = (
"348 322 LINE",
"532 70 LINE",
"724 70 LINE",
"477 398 LINE"
);
},
{
closed = 1;
nodes = (
"789 70 LINE",
"432 70 LINE",
"432 0 LINE",
"789 0 LINE"
);
},
{
closed = 1;
nodes = (
"420 312 LINE",
"696 650 LINE",
"606 650 LINE",
"354 340 LINE"
);
},
{
closed = 1;
nodes = (
"761 720 LINE",
"511 720 LINE",
"511 650 LINE",
"761 650 LINE"
);
},
{
closed = 1;
nodes = (
"379 408 LINE",
"103 70 LINE",
"193 70 LINE",
"445 380 LINE"
);
},
{
closed = 1;
nodes = (
"288 70 LINE",
"38 70 LINE",
"38 0 LINE",
"288 0 LINE"
);
}
);
width = 807;
},
{
layerId = "15B5FD12-AAB5-4088-829B-CB8139BF8816";
paths = (
{
closed = 1;
nodes = (
"444 419 LINE",
"259 700 LINE",
"75 700 LINE",
"332 319 LINE"
);
},
{
closed = 1;
nodes = (
"359 720 LINE",
"10 720 LINE",
"10 700 LINE",
"359 700 LINE"
);
},
{
closed = 1;
nodes = (
"332 319 LINE",
"529 20 LINE",
"713 20 LINE",
"444 419 LINE"
);
},
{
closed = 1;
nodes = (
"778 20 LINE",
"429 20 LINE",
"429 0 LINE",
"778 0 LINE"
);
},
{
closed = 1;
nodes = (
"384 324 LINE",
"669 700 LINE",
"642 700 LINE",
"377 352 LINE"
);
},
{
closed = 1;
nodes = (
"734 720 LINE",
"547 720 LINE",
"547 700 LINE",
"734 700 LINE"
);
},
{
closed = 1;
nodes = (
"378 396 LINE",
"93 20 LINE",
"120 20 LINE",
"385 368 LINE"
);
},
{
closed = 1;
nodes = (
"215 20 LINE",
"28 20 LINE",
"28 0 LINE",
"215 0 LINE"
);
}
);
width = 784;
},
{
layerId = "CA54B7DC-FBBB-40FE-ACF3-AABDD76D6A7B";
paths = (
{
closed = 1;
nodes = (
"383 380 LINE",
"154 700 LINE",
"92 700 LINE",
"347 347 LINE"
);
},
{
closed = 1;
nodes = (
"274 720 LINE",
"22 720 LINE",
"22 700 LINE",
"274 700 LINE"
);
},
{
closed = 1;
nodes = (
"349 351 LINE",
"588 20 LINE",
"648 20 LINE",
"385 384 LINE"
);
},
{
closed = 1;
nodes = (
"718 20 LINE",
"468 20 LINE",
"468 0 LINE",
"718 0 LINE"
);
},
{
closed = 1;
nodes = (
"369 347 LINE",
"624 700 LINE",
"597 700 LINE",
"357 368 LINE"
);
},
{
closed = 1;
nodes = (
"694 720 LINE",
"483 720 LINE",
"483 700 LINE",
"694 700 LINE"
);
},
{
closed = 1;
nodes = (
"347 373 LINE",
"92 20 LINE",
"119 20 LINE",
"359 352 LINE"
);
},
{
closed = 1;
nodes = (
"234 20 LINE",
"22 20 LINE",
"22 0 LINE",
"234 0 LINE"
);
}
);
width = 732;
}
);
leftKerningGroup = X;
rightKerningGroup = X;
unicode = 0058;
},
{
glyphname = Y;
lastChange = "2020-05-07 14:16:54 +0000";
layers = (
{
layerId = "8E2477B1-6F82-4933-924D-A4D021D30CA2";
paths = (
{
closed = 1;
nodes = (
"399 335 LINE",
"159 680 LINE",
"99 680 LINE",
"368 295 LINE"
);
},
{
closed = 1;
nodes = (
"24 680 LINE",
"279 680 LINE",
"279 720 LINE",
"24 720 LINE"
);
},
{
closed = 1;
nodes = (
"496 680 LINE",
"740 680 LINE",
"740 720 LINE",
"496 720 LINE"
);
},
{
closed = 1;
nodes = (
"396 295 LINE",
"665 680 LINE",
"611 680 LINE",
"371 336 LINE"
);
},
{
closed = 1;
nodes = (
"538 40 LINE",
"226 40 LINE",
"226 0 LINE",
"538 0 LINE"
);
},
{
closed = 1;
nodes = (
"408 342 LINE",
"356 342 LINE",
"356 0 LINE",
"408 0 LINE"
);
}
);
width = 764;
},
{
layerId = "38DA3315-22D6-4CA2-8458-CB7E0975637F";
paths = (
{
closed = 1;
nodes = (
"458 335 LINE",
"273 650 LINE",
"91 650 LINE",
"311 295 LINE"
);
},
{
closed = 1;
nodes = (
"21 650 LINE",
"383 650 LINE",
"383 720 LINE",
"21 720 LINE"
);
},
{
closed = 1;
nodes = (
"483 650 LINE",
"745 650 LINE",
"745 720 LINE",
"483 720 LINE"
);
},
{
closed = 1;
nodes = (
"455 295 LINE",
"675 650 LINE",
"588 650 LINE",
"396 336 LINE"
);
},
{
closed = 1;
nodes = (
"594 70 LINE",
"176 70 LINE",
"176 0 LINE",
"594 0 LINE"
);
},
{
closed = 1;
nodes = (
"464 342 LINE",
"306 342 LINE",
"306 0 LINE",
"464 0 LINE"
);
}
);
width = 766;
},
{
layerId = "15B5FD12-AAB5-4088-829B-CB8139BF8816";
paths = (
{
closed = 1;
nodes = (
"460 353 LINE",
"259 700 LINE",
"79 700 LINE",
"323 295 LINE"
);
},
{
closed = 1;
nodes = (
"4 700 LINE",
"369 700 LINE",
"369 720 LINE",
"4 720 LINE"
);
},
{
closed = 1;
nodes = (
"542 700 LINE",
"748 700 LINE",
"748 720 LINE",
"542 720 LINE"
);
},
{
closed = 1;
nodes = (
"429 295 LINE",
"673 700 LINE",
"647 700 LINE",
"428 336 LINE"
);
},
{
closed = 1;
nodes = (
"590 20 LINE",
"172 20 LINE",
"172 0 LINE",
"590 0 LINE"
);
},
{
closed = 1;
nodes = (
"460 359 LINE",
"302 342 LINE",
"302 0 LINE",
"460 0 LINE"
);
}
);
width = 752;
},
{
layerId = "CA54B7DC-FBBB-40FE-ACF3-AABDD76D6A7B";
paths = (
{
closed = 1;
nodes = (
"390 337 LINE",
"146 700 LINE",
"88 700 LINE",
"359 299 LINE"
);
},
{
closed = 1;
nodes = (
"18 700 LINE",
"266 700 LINE",
"266 720 LINE",
"18 720 LINE"
);
},
{
closed = 1;
nodes = (
"512 700 LINE",
"724 700 LINE",
"724 720 LINE",
"512 720 LINE"
);
},
{
closed = 1;
nodes = (
"383 299 LINE",
"654 700 LINE",
"627 700 LINE",
"374 325 LINE"
);
},
{
closed = 1;
nodes = (
"522 20 LINE",
"220 20 LINE",
"220 0 LINE",
"522 0 LINE"
);
},
{
closed = 1;
nodes = (
"397 336 LINE",
"345 336 LINE",
"345 0 LINE",
"397 0 LINE"
);
}
);
width = 742;
}
);
leftKerningGroup = Y;
rightKerningGroup = Y;
unicode = 0059;
},
{
glyphname = Z;
lastChange = "2020-05-07 14:18:27 +0000";
layers = (
{
layerId = "8E2477B1-6F82-4933-924D-A4D021D30CA2";
paths = (
{
closed = 1;
nodes = (
"84 680 LINE",
"554 680 LINE",
"620 682 LINE",
"620 720 LINE",
"84 720 LINE"
);
},
{
closed = 1;
nodes = (
"66 0 LINE",
"622 0 LINE",
"622 40 LINE",
"132 40 LINE",
"66 38 LINE"
);
},
{
closed = 1;
nodes = (
"132 40 LINE",
"620 682 LINE",
"554 680 LINE",
"66 38 LINE"
);
},
{
closed = 1;
nodes = (
"84 680 LINE",
"84 535 LINE",
"124 535 LINE",
"124 616 LINE SMOOTH",
"124 665 OFFCURVE",
"135 680 OFFCURVE",
"188 680 CURVE"
);
},
{
closed = 1;
nodes = (
"622 40 LINE",
"622 195 LINE",
"582 195 LINE",
"582 104 LINE SMOOTH",
"582 55 OFFCURVE",
"571 40 OFFCURVE",
"518 40 CURVE"
);
}
);
width = 686;
},
{
layerId = "38DA3315-22D6-4CA2-8458-CB7E0975637F";
paths = (
{
closed = 1;
nodes = (
"82 650 LINE",
"461 650 LINE",
"648 654 LINE",
"648 720 LINE",
"82 720 LINE"
);
},
{
closed = 1;
nodes = (
"64 0 LINE",
"650 0 LINE",
"650 70 LINE",
"251 70 LINE",
"64 66 LINE"
);
},
{
closed = 1;
nodes = (
"251 70 LINE",
"648 654 LINE",
"461 650 LINE",
"64 66 LINE"
);
},
{
closed = 1;
nodes = (
"82 650 LINE",
"82 495 LINE",
"154 495 LINE",
"154 586 LINE SMOOTH",
"154 635 OFFCURVE",
"165 650 OFFCURVE",
"218 650 CURVE"
);
},
{
closed = 1;
nodes = (
"650 70 LINE",
"650 235 LINE",
"578 235 LINE",
"578 134 LINE SMOOTH",
"578 85 OFFCURVE",
"567 70 OFFCURVE",
"514 70 CURVE"
);
}
);
width = 716;
},
{
layerId = "15B5FD12-AAB5-4088-829B-CB8139BF8816";
paths = (
{
closed = 1;
nodes = (
"64 700 LINE",
"444 700 LINE",
"622 702 LINE",
"622 720 LINE",
"64 720 LINE"
);
},
{
closed = 1;
nodes = (
"36 0 LINE",
"618 0 LINE",
"618 20 LINE",
"214 20 LINE",
"36 18 LINE"
);
},
{
closed = 1;
nodes = (
"214 20 LINE",
"622 702 LINE",
"444 700 LINE",
"36 18 LINE"
);
},
{
closed = 1;
nodes = (
"64 700 LINE",
"64 535 LINE",
"86 535 LINE",
"86 636 LINE SMOOTH",
"86 685 OFFCURVE",
"97 700 OFFCURVE",
"150 700 CURVE"
);
},
{
closed = 1;
nodes = (
"618 20 LINE",
"618 185 LINE",
"596 185 LINE",
"596 84 LINE SMOOTH",
"596 35 OFFCURVE",
"585 20 OFFCURVE",
"532 20 CURVE"
);
}
);
width = 656;
},
{
layerId = "CA54B7DC-FBBB-40FE-ACF3-AABDD76D6A7B";
paths = (
{
closed = 1;
nodes = (
"78 700 LINE",
"536 700 LINE",
"600 702 LINE",
"600 720 LINE",
"78 720 LINE"
);
},
{
closed = 1;
nodes = (
"54 0 LINE",
"598 0 LINE",
"598 20 LINE",
"118 20 LINE",
"54 18 LINE"
);
},
{
closed = 1;
nodes = (
"118 20 LINE",
"600 702 LINE",
"536 700 LINE",
"54 18 LINE"
);
},
{
closed = 1;
nodes = (
"78 700 LINE",
"78 535 LINE",
"100 535 LINE",
"100 636 LINE SMOOTH",
"100 685 OFFCURVE",
"111 700 OFFCURVE",
"164 700 CURVE"
);
},
{
closed = 1;
nodes = (
"598 20 LINE",
"598 185 LINE",
"576 185 LINE",
"576 84 LINE SMOOTH",
"576 35 OFFCURVE",
"565 20 OFFCURVE",
"512 20 CURVE"
);
}
);
width = 658;
}
);
leftKerningGroup = Z;
rightKerningGroup = Z;
unicode = 005A;
},
{
glyphname = a;
lastChange = "2020-05-07 14:08:52 +0000";
layers = (
{
layerId = "8E2477B1-6F82-4933-924D-A4D021D30CA2";
paths = (
{
closed = 1;
nodes = (
"110 382 OFFCURVE",
"127 358 OFFCURVE",
"150 358 CURVE SMOOTH",
"169 358 OFFCURVE",
"179 370 OFFCURVE",
"179 385 CURVE SMOOTH",
"179 394 OFFCURVE",
"177 400 OFFCURVE",
"173 407 CURVE SMOOTH",
"168 416 OFFCURVE",
"165 425 OFFCURVE",
"165 440 CURVE SMOOTH",
"165 486 OFFCURVE",
"224 522 OFFCURVE",
"310 522 CURVE SMOOTH",
"397 522 OFFCURVE",
"443 479 OFFCURVE",
"443 417 CURVE",
"491 413 LINE",
"491 510 OFFCURVE",
"421 560 OFFCURVE",
"314 560 CURVE SMOOTH",
"200 560 OFFCURVE",
"110 504 OFFCURVE",
"110 414 CURVE SMOOTH"
);
},
{
closed = 1;
nodes = (
"325 282 LINE SMOOTH",
"389 300 OFFCURVE",
"423 314 OFFCURVE",
"443 341 CURVE",
"443 417 LINE",
"443 356 OFFCURVE",
"397 345 OFFCURVE",
"317 323 CURVE SMOOTH",
"254 306 LINE SMOOTH",
"152 278 OFFCURVE",
"82 232 OFFCURVE",
"82 138 CURVE SMOOTH",
"82 44 OFFCURVE",
"158 -10 OFFCURVE",
"259 -10 CURVE SMOOTH",
"394 -10 OFFCURVE",
"471 67 OFFCURVE",
"471 251 CURVE",
"443 251 LINE",
"443 94 OFFCURVE",
"366 32 OFFCURVE",
"263 32 CURVE SMOOTH",
"186 32 OFFCURVE",
"132 75 OFFCURVE",
"132 140 CURVE SMOOTH",
"132 205 OFFCURVE",
"178 241 OFFCURVE",
"271 267 CURVE SMOOTH"
);
},
{
closed = 1;
nodes = (
"443 138 LINE",
"447 138 LINE",
"447 86 LINE SMOOTH",
"447 21 OFFCURVE",
"482 -10 OFFCURVE",
"532 -10 CURVE SMOOTH",
"582 -10 OFFCURVE",
"613 21 OFFCURVE",
"613 76 CURVE SMOOTH",
"613 100 LINE",
"571 100 LINE",
"571 74 LINE SMOOTH",
"571 47 OFFCURVE",
"557 30 OFFCURVE",
"531 30 CURVE SMOOTH",
"507 30 OFFCURVE",
"491 47 OFFCURVE",
"491 74 CURVE SMOOTH",
"491 413 LINE",
"443 417 LINE"
);
}
);
width = 637;
},
{
layerId = "38DA3315-22D6-4CA2-8458-CB7E0975637F";
paths = (
{
closed = 1;
nodes = (
"105 380 OFFCURVE",
"135 346 OFFCURVE",
"183 346 CURVE SMOOTH",
"226 346 OFFCURVE",
"251 369 OFFCURVE",
"251 399 CURVE SMOOTH",
"251 412 OFFCURVE",
"249 420 OFFCURVE",
"247 432 CURVE SMOOTH",
"246 440 OFFCURVE",
"245 446 OFFCURVE",
"245 458 CURVE SMOOTH",
"245 486 OFFCURVE",
"272 504 OFFCURVE",
"315 504 CURVE SMOOTH",
"365 504 OFFCURVE",
"392 475 OFFCURVE",
"392 420 CURVE",
"536 397 LINE",
"536 514 OFFCURVE",
"458 570 OFFCURVE",
"329 570 CURVE SMOOTH",
"217 570 OFFCURVE",
"105 519 OFFCURVE",
"105 426 CURVE SMOOTH"
);
},
{
closed = 1;
nodes = (
"340 278 LINE SMOOTH",
"362 285 OFFCURVE",
"382 296 OFFCURVE",
"392 310 CURVE",
"392 420 LINE",
"392 375 OFFCURVE",
"371 353 OFFCURVE",
"327 341 CURVE SMOOTH",
"286 330 LINE SMOOTH",
"176 300 OFFCURVE",
"72 262 OFFCURVE",
"72 145 CURVE SMOOTH",
"72 43 OFFCURVE",
"153 -10 OFFCURVE",
"257 -10 CURVE SMOOTH",
"360 -10 OFFCURVE",
"438 50 OFFCURVE",
"438 211 CURVE",
"392 211 LINE",
"392 119 OFFCURVE",
"344 86 OFFCURVE",
"296 86 CURVE SMOOTH",
"248 86 OFFCURVE",
"212 117 OFFCURVE",
"212 169 CURVE SMOOTH",
"212 229 OFFCURVE",
"264 254 OFFCURVE",
"308 268 CURVE SMOOTH"
);
},
{
closed = 1;
nodes = (
"392 165 LINE",
"404 165 LINE",
"404 140 LINE SMOOTH",
"404 40 OFFCURVE",
"450 -10 OFFCURVE",
"545 -10 CURVE SMOOTH",
"630 -10 OFFCURVE",
"672 40 OFFCURVE",
"672 116 CURVE SMOOTH",
"672 135 LINE",
"602 135 LINE",
"602 116 LINE SMOOTH",
"602 92 OFFCURVE",
"592 76 OFFCURVE",
"569 76 CURVE SMOOTH",
"546 76 OFFCURVE",
"536 92 OFFCURVE",
"536 116 CURVE SMOOTH",
"536 397 LINE",
"392 420 LINE"
);
}
);
width = 676;
},
{
layerId = "15B5FD12-AAB5-4088-829B-CB8139BF8816";
paths = (
{
closed = 1;
nodes = (
"63 378 OFFCURVE",
"94 348 OFFCURVE",
"138 348 CURVE SMOOTH",
"183 348 OFFCURVE",
"207 375 OFFCURVE",
"207 407 CURVE SMOOTH",
"207 422 OFFCURVE",
"205 432 OFFCURVE",
"202 444 CURVE SMOOTH",
"198 459 OFFCURVE",
"195 468 OFFCURVE",
"195 489 CURVE SMOOTH",
"195 525 OFFCURVE",
"225 551 OFFCURVE",
"267 551 CURVE SMOOTH",
"320 551 OFFCURVE",
"348 510 OFFCURVE",
"348 428 CURVE",
"496 397 LINE",
"496 514 OFFCURVE",
"414 570 OFFCURVE",
"285 570 CURVE SMOOTH",
"174 570 OFFCURVE",
"63 521 OFFCURVE",
"63 424 CURVE SMOOTH"
);
},
{
closed = 1;
nodes = (
"304 315 LINE SMOOTH",
"326 323 OFFCURVE",
"340 332 OFFCURVE",
"348 347 CURVE",
"348 428 LINE",
"348 356 OFFCURVE",
"323 342 OFFCURVE",
"285 329 CURVE SMOOTH",
"247 316 LINE SMOOTH",
"153 284 OFFCURVE",
"32 256 OFFCURVE",
"32 137 CURVE SMOOTH",
"32 39 OFFCURVE",
"99 -10 OFFCURVE",
"193 -10 CURVE SMOOTH",
"288 -10 OFFCURVE",
"362 45 OFFCURVE",
"362 191 CURVE",
"348 191 LINE",
"348 105 OFFCURVE",
"313 72 OFFCURVE",
"270 72 CURVE SMOOTH",
"209 72 OFFCURVE",
"166 111 OFFCURVE",
"166 174 CURVE SMOOTH",
"166 228 OFFCURVE",
"187 273 OFFCURVE",
"257 298 CURVE SMOOTH"
);
},
{
closed = 1;
nodes = (
"348 165 LINE",
"354 165 LINE",
"354 114 LINE SMOOTH",
"354 30 OFFCURVE",
"407 -10 OFFCURVE",
"475 -10 CURVE SMOOTH",
"543 -10 OFFCURVE",
"594 30 OFFCURVE",
"594 104 CURVE SMOOTH",
"594 130 LINE",
"574 130 LINE",
"574 104 LINE SMOOTH",
"574 75 OFFCURVE",
"562 56 OFFCURVE",
"535 56 CURVE SMOOTH",
"508 56 OFFCURVE",
"496 75 OFFCURVE",
"496 104 CURVE SMOOTH",
"496 397 LINE",
"348 428 LINE"
);
}
);
width = 598;
},
{
layerId = "CA54B7DC-FBBB-40FE-ACF3-AABDD76D6A7B";
paths = (
{
closed = 1;
nodes = (
"88 382 OFFCURVE",
"104 358 OFFCURVE",
"126 358 CURVE SMOOTH",
"146 358 OFFCURVE",
"156 369 OFFCURVE",
"156 383 CURVE SMOOTH",
"156 396 OFFCURVE",
"150 404 OFFCURVE",
"143 411 CURVE SMOOTH",
"133 421 OFFCURVE",
"128 429 OFFCURVE",
"128 444 CURVE SMOOTH",
"128 497 OFFCURVE",
"192 539 OFFCURVE",
"286 539 CURVE SMOOTH",
"381 539 OFFCURVE",
"421 495 OFFCURVE",
"421 426 CURVE",
"469 417 LINE",
"469 514 OFFCURVE",
"401 560 OFFCURVE",
"290 560 CURVE SMOOTH",
"184 560 OFFCURVE",
"88 502 OFFCURVE",
"88 414 CURVE SMOOTH"
);
},
{
closed = 1;
nodes = (
"302 295 LINE SMOOTH",
"364 313 OFFCURVE",
"403 331 OFFCURVE",
"421 360 CURVE",
"421 426 LINE",
"421 353 OFFCURVE",
"369 337 OFFCURVE",
"295 316 CURVE SMOOTH",
"230 298 LINE SMOOTH",
"128 270 OFFCURVE",
"60 219 OFFCURVE",
"60 133 CURVE SMOOTH",
"60 47 OFFCURVE",
"131 -10 OFFCURVE",
"240 -10 CURVE SMOOTH",
"355 -10 OFFCURVE",
"439 62 OFFCURVE",
"439 251 CURVE",
"421 251 LINE",
"421 82 OFFCURVE",
"343 16 OFFCURVE",
"243 16 CURVE SMOOTH",
"166 16 OFFCURVE",
"111 61 OFFCURVE",
"111 133 CURVE SMOOTH",
"111 205 OFFCURVE",
"150 250 OFFCURVE",
"244 278 CURVE SMOOTH"
);
},
{
closed = 1;
nodes = (
"421 165 LINE",
"425 165 LINE",
"425 90 LINE SMOOTH",
"425 18 OFFCURVE",
"463 -10 OFFCURVE",
"508 -10 CURVE SMOOTH",
"555 -10 OFFCURVE",
"579 21 OFFCURVE",
"579 76 CURVE SMOOTH",
"579 100 LINE",
"559 100 LINE",
"559 76 LINE SMOOTH",
"559 37 OFFCURVE",
"545 12 OFFCURVE",
"514 12 CURVE SMOOTH",
"483 12 OFFCURVE",
"469 37 OFFCURVE",
"469 76 CURVE SMOOTH",
"469 417 LINE",
"421 426 LINE"
);
}
);
width = 597;
}
);
leftKerningGroup = a;
rightKerningGroup = a;
rightMetricsKey = u;
unicode = 0061;
},
{
glyphname = b;
lastChange = "2020-05-07 14:11:08 +0000";
layers = (
{
layerId = "8E2477B1-6F82-4933-924D-A4D021D30CA2";
paths = (
{
closed = 1;
nodes = (
"165 165 LINE",
"154 275 LINE",
"169 375 LINE",
"169 760 LINE",
"119 760 LINE",
"119 0 LINE",
"165 0 LINE"
);
},
{
closed = 1;
nodes = (
"14 720 LINE",
"169 720 LINE",
"169 760 LINE",
"14 760 LINE"
);
},
{
closed = 1;
nodes = (
"520 -10 OFFCURVE",
"623 97 OFFCURVE",
"623 275 CURVE SMOOTH",
"623 453 OFFCURVE",
"520 560 OFFCURVE",
"375 560 CURVE SMOOTH",
"225 560 OFFCURVE",
"131 453 OFFCURVE",
"131 275 CURVE SMOOTH",
"131 97 OFFCURVE",
"225 -10 OFFCURVE",
"375 -10 CURVE SMOOTH"
);
},
{
closed = 1;
nodes = (
"251 30 OFFCURVE",
"167 122 OFFCURVE",
"167 275 CURVE SMOOTH",
"167 428 OFFCURVE",
"251 520 OFFCURVE",
"371 520 CURVE SMOOTH",
"489 520 OFFCURVE",
"571 428 OFFCURVE",
"571 275 CURVE SMOOTH",
"571 122 OFFCURVE",
"489 30 OFFCURVE",
"371 30 CURVE SMOOTH"
);
}
);
width = 687;
},
{
layerId = "38DA3315-22D6-4CA2-8458-CB7E0975637F";
paths = (
{
closed = 1;
nodes = (
"249 165 LINE",
"246 280 LINE",
"261 389 LINE",
"261 760 LINE",
"111 760 LINE",
"111 0 LINE",
"249 0 LINE"
);
},
{
closed = 1;
nodes = (
"26 690 LINE",
"261 690 LINE",
"261 760 LINE",
"26 760 LINE"
);
},
{
closed = 1;
nodes = (
"585 -10 OFFCURVE",
"691 97 OFFCURVE",
"691 280 CURVE SMOOTH",
"691 463 OFFCURVE",
"585 570 OFFCURVE",
"435 570 CURVE SMOOTH",
"284 570 OFFCURVE",
"199 463 OFFCURVE",
"199 280 CURVE SMOOTH",
"199 97 OFFCURVE",
"284 -10 OFFCURVE",
"435 -10 CURVE SMOOTH"
);
},
{
closed = 1;
nodes = (
"311 68 OFFCURVE",
"255 142 OFFCURVE",
"255 280 CURVE SMOOTH",
"255 418 OFFCURVE",
"311 492 OFFCURVE",
"397 492 CURVE SMOOTH",
"481 492 OFFCURVE",
"535 418 OFFCURVE",
"535 280 CURVE SMOOTH",
"535 142 OFFCURVE",
"481 68 OFFCURVE",
"397 68 CURVE SMOOTH"
);
}
);
width = 749;
},
{
layerId = "15B5FD12-AAB5-4088-829B-CB8139BF8816";
paths = (
{
closed = 1;
nodes = (
"229 165 LINE",
"220 280 LINE",
"235 389 LINE",
"235 760 LINE",
"85 760 LINE",
"85 0 LINE",
"229 0 LINE"
);
},
{
closed = 1;
nodes = (
"10 740 LINE",
"235 740 LINE",
"235 760 LINE",
"10 760 LINE"
);
},
{
closed = 1;
nodes = (
"563 -10 OFFCURVE",
"665 97 OFFCURVE",
"665 280 CURVE SMOOTH",
"665 463 OFFCURVE",
"563 570 OFFCURVE",
"419 570 CURVE SMOOTH",
"275 570 OFFCURVE",
"211 480 OFFCURVE",
"211 280 CURVE SMOOTH",
"211 80 OFFCURVE",
"275 -10 OFFCURVE",
"419 -10 CURVE SMOOTH"
);
},
{
closed = 1;
nodes = (
"285 22 OFFCURVE",
"229 113 OFFCURVE",
"229 280 CURVE SMOOTH",
"229 447 OFFCURVE",
"285 538 OFFCURVE",
"371 538 CURVE SMOOTH",
"455 538 OFFCURVE",
"509 447 OFFCURVE",
"509 280 CURVE SMOOTH",
"509 113 OFFCURVE",
"455 22 OFFCURVE",
"371 22 CURVE SMOOTH"
);
}
);
width = 705;
},
{
layerId = "CA54B7DC-FBBB-40FE-ACF3-AABDD76D6A7B";
paths = (
{
closed = 1;
nodes = (
"155 165 LINE",
"144 275 LINE",
"159 375 LINE",
"159 760 LINE",
"109 760 LINE",
"109 0 LINE",
"155 0 LINE"
);
},
{
closed = 1;
nodes = (
"14 740 LINE",
"159 740 LINE",
"159 760 LINE",
"14 760 LINE"
);
},
{
closed = 1;
nodes = (
"509 -10 OFFCURVE",
"613 97 OFFCURVE",
"613 275 CURVE SMOOTH",
"613 453 OFFCURVE",
"509 560 OFFCURVE",
"363 560 CURVE SMOOTH",
"221 560 OFFCURVE",
"135 453 OFFCURVE",
"135 275 CURVE SMOOTH",
"135 97 OFFCURVE",
"221 -10 OFFCURVE",
"363 -10 CURVE SMOOTH"
);
},
{
closed = 1;
nodes = (
"241 10 OFFCURVE",
"157 108 OFFCURVE",
"157 275 CURVE SMOOTH",
"157 442 OFFCURVE",
"241 540 OFFCURVE",
"361 540 CURVE SMOOTH",
"479 540 OFFCURVE",
"561 442 OFFCURVE",
"561 275 CURVE SMOOTH",
"561 108 OFFCURVE",
"479 10 OFFCURVE",
"361 10 CURVE SMOOTH"
);
}
);
width = 669;
}
);
leftKerningGroup = b;
rightKerningGroup = o;
rightMetricsKey = o;
unicode = 0062;
},
{
glyphname = c;
lastChange = "2020-05-07 14:10:27 +0000";
layers = (
{
layerId = "8E2477B1-6F82-4933-924D-A4D021D30CA2";
paths = (
{
closed = 1;
nodes = (
"328 521 LINE",
"442 521 OFFCURVE",
"485 446 OFFCURVE",
"482 377 CURVE SMOOTH",
"481 353 OFFCURVE",
"491 340 OFFCURVE",
"509 340 CURVE SMOOTH",
"531 340 OFFCURVE",
"540 360 OFFCURVE",
"540 384 CURVE SMOOTH",
"540 469 OFFCURVE",
"469 560 OFFCURVE",
"328 560 CURVE"
);
},
{
closed = 1;
nodes = (
"511 161 LINE",
"481 84 OFFCURVE",
"423 32 OFFCURVE",
"330 32 CURVE SMOOTH",
"209 32 OFFCURVE",
"116 122 OFFCURVE",
"116 275 CURVE SMOOTH",
"116 429 OFFCURVE",
"207 521 OFFCURVE",
"328 521 CURVE",
"328 560 LINE",
"174 560 OFFCURVE",
"64 453 OFFCURVE",
"64 275 CURVE SMOOTH",
"64 97 OFFCURVE",
"176 -10 OFFCURVE",
"330 -10 CURVE SMOOTH",
"444 -10 OFFCURVE",
"515 52 OFFCURVE",
"548 146 CURVE"
);
}
);
width = 610;
},
{
layerId = "38DA3315-22D6-4CA2-8458-CB7E0975637F";
paths = (
{
closed = 1;
nodes = (
"343 500 LINE",
"391 500 OFFCURVE",
"418 482 OFFCURVE",
"412 412 CURVE SMOOTH",
"407 354 OFFCURVE",
"433 325 OFFCURVE",
"485 325 CURVE SMOOTH",
"534 325 OFFCURVE",
"561 362 OFFCURVE",
"561 414 CURVE SMOOTH",
"561 487 OFFCURVE",
"486 570 OFFCURVE",
"345 570 CURVE"
);
},
{
closed = 1;
nodes = (
"496 183 LINE",
"481 116 OFFCURVE",
"430 76 OFFCURVE",
"370 76 CURVE SMOOTH",
"278 76 OFFCURVE",
"210 150 OFFCURVE",
"210 280 CURVE SMOOTH",
"210 420 OFFCURVE",
"266 500 OFFCURVE",
"343 500 CURVE",
"345 570 LINE",
"177 570 OFFCURVE",
"58 467 OFFCURVE",
"58 280 CURVE SMOOTH",
"58 93 OFFCURVE",
"179 -10 OFFCURVE",
"345 -10 CURVE SMOOTH",
"452 -10 OFFCURVE",
"534 52 OFFCURVE",
"563 157 CURVE"
);
}
);
width = 615;
},
{
layerId = "15B5FD12-AAB5-4088-829B-CB8139BF8816";
paths = (
{
closed = 1;
nodes = (
"325 551 LINE",
"373 551 OFFCURVE",
"407 524 OFFCURVE",
"398 422 CURVE SMOOTH",
"392 357 OFFCURVE",
"419 325 OFFCURVE",
"471 325 CURVE SMOOTH",
"520 325 OFFCURVE",
"547 359 OFFCURVE",
"547 406 CURVE SMOOTH",
"547 489 OFFCURVE",
"466 570 OFFCURVE",
"321 570 CURVE"
);
},
{
closed = 1;
nodes = (
"524 163 LINE",
"505 84 OFFCURVE",
"440 36 OFFCURVE",
"362 36 CURVE SMOOTH",
"264 36 OFFCURVE",
"192 125 OFFCURVE",
"192 280 CURVE SMOOTH",
"192 452 OFFCURVE",
"248 551 OFFCURVE",
"325 551 CURVE",
"321 570 LINE",
"157 570 OFFCURVE",
"40 467 OFFCURVE",
"40 280 CURVE SMOOTH",
"40 93 OFFCURVE",
"158 -10 OFFCURVE",
"321 -10 CURVE SMOOTH",
"431 -10 OFFCURVE",
"516 52 OFFCURVE",
"545 157 CURVE"
);
}
);
width = 581;
},
{
layerId = "CA54B7DC-FBBB-40FE-ACF3-AABDD76D6A7B";
paths = (
{
closed = 1;
nodes = (
"317 541 LINE",
"447 541 OFFCURVE",
"477 461 OFFCURVE",
"471 385 CURVE SMOOTH",
"469 361 OFFCURVE",
"478 350 OFFCURVE",
"496 350 CURVE SMOOTH",
"515 350 OFFCURVE",
"525 369 OFFCURVE",
"525 396 CURVE SMOOTH",
"525 473 OFFCURVE",
"453 560 OFFCURVE",
"319 560 CURVE"
);
},
{
closed = 1;
nodes = (
"512 163 LINE",
"489 67 OFFCURVE",
"414 10 OFFCURVE",
"324 10 CURVE SMOOTH",
"200 10 OFFCURVE",
"108 108 OFFCURVE",
"108 275 CURVE SMOOTH",
"108 442 OFFCURVE",
"196 541 OFFCURVE",
"317 541 CURVE",
"319 560 LINE",
"165 560 OFFCURVE",
"56 457 OFFCURVE",
"56 275 CURVE SMOOTH",
"56 93 OFFCURVE",
"169 -10 OFFCURVE",
"324 -10 CURVE SMOOTH",
"427 -10 OFFCURVE",
"506 52 OFFCURVE",
"533 157 CURVE"
);
}
);
width = 585;
}
);
leftKerningGroup = o;
leftMetricsKey = o;
rightKerningGroup = o;
unicode = 0063;
},
{
glyphname = d;
lastChange = "2020-05-07 14:10:21 +0000";
layers = (
{
layerId = "8E2477B1-6F82-4933-924D-A4D021D30CA2";
paths = (
{
closed = 1;
nodes = (
"568 0 LINE",
"568 760 LINE",
"518 760 LINE",
"518 375 LINE",
"533 275 LINE",
"522 165 LINE",
"522 0 LINE"
);
},
{
closed = 1;
nodes = (
"462 -10 OFFCURVE",
"556 97 OFFCURVE",
"556 275 CURVE SMOOTH",
"556 453 OFFCURVE",
"462 560 OFFCURVE",
"312 560 CURVE SMOOTH",
"167 560 OFFCURVE",
"64 453 OFFCURVE",
"64 275 CURVE SMOOTH",
"64 97 OFFCURVE",
"167 -10 OFFCURVE",
"312 -10 CURVE SMOOTH"
);
},
{
closed = 1;
nodes = (
"198 30 OFFCURVE",
"116 122 OFFCURVE",
"116 275 CURVE SMOOTH",
"116 428 OFFCURVE",
"198 520 OFFCURVE",
"316 520 CURVE SMOOTH",
"436 520 OFFCURVE",
"520 428 OFFCURVE",
"520 275 CURVE SMOOTH",
"520 122 OFFCURVE",
"436 30 OFFCURVE",
"316 30 CURVE SMOOTH"
);
},
{
closed = 1;
nodes = (
"522 40 LINE",
"522 0 LINE",
"678 0 LINE",
"678 40 LINE"
);
},
{
closed = 1;
nodes = (
"413 720 LINE",
"568 720 LINE",
"568 760 LINE",
"413 760 LINE"
);
}
);
width = 708;
},
{
layerId = "38DA3315-22D6-4CA2-8458-CB7E0975637F";
paths = (
{
closed = 1;
nodes = (
"638 0 LINE",
"638 760 LINE",
"488 760 LINE",
"488 389 LINE",
"503 280 LINE",
"500 165 LINE",
"500 0 LINE"
);
},
{
closed = 1;
nodes = (
"465 -10 OFFCURVE",
"550 97 OFFCURVE",
"550 280 CURVE SMOOTH",
"550 463 OFFCURVE",
"465 570 OFFCURVE",
"314 570 CURVE SMOOTH",
"164 570 OFFCURVE",
"58 463 OFFCURVE",
"58 280 CURVE SMOOTH",
"58 97 OFFCURVE",
"164 -10 OFFCURVE",
"314 -10 CURVE SMOOTH"
);
},
{
closed = 1;
nodes = (
"268 68 OFFCURVE",
"214 142 OFFCURVE",
"214 280 CURVE SMOOTH",
"214 418 OFFCURVE",
"268 492 OFFCURVE",
"352 492 CURVE SMOOTH",
"438 492 OFFCURVE",
"494 418 OFFCURVE",
"494 280 CURVE SMOOTH",
"494 142 OFFCURVE",
"438 68 OFFCURVE",
"352 68 CURVE SMOOTH"
);
},
{
closed = 1;
nodes = (
"723 0 LINE",
"723 70 LINE",
"500 70 LINE",
"500 0 LINE"
);
},
{
closed = 1;
nodes = (
"403 690 LINE",
"638 690 LINE",
"638 760 LINE",
"403 760 LINE"
);
}
);
width = 749;
},
{
layerId = "15B5FD12-AAB5-4088-829B-CB8139BF8816";
paths = (
{
closed = 1;
nodes = (
"620 0 LINE",
"620 760 LINE",
"470 760 LINE",
"470 389 LINE",
"485 280 LINE",
"476 165 LINE",
"476 0 LINE"
);
},
{
closed = 1;
nodes = (
"430 -10 OFFCURVE",
"494 80 OFFCURVE",
"494 280 CURVE SMOOTH",
"494 480 OFFCURVE",
"430 570 OFFCURVE",
"286 570 CURVE SMOOTH",
"142 570 OFFCURVE",
"40 463 OFFCURVE",
"40 280 CURVE SMOOTH",
"40 97 OFFCURVE",
"142 -10 OFFCURVE",
"286 -10 CURVE SMOOTH"
);
},
{
closed = 1;
nodes = (
"250 22 OFFCURVE",
"196 113 OFFCURVE",
"196 280 CURVE SMOOTH",
"196 447 OFFCURVE",
"250 538 OFFCURVE",
"334 538 CURVE SMOOTH",
"420 538 OFFCURVE",
"476 447 OFFCURVE",
"476 280 CURVE SMOOTH",
"476 113 OFFCURVE",
"420 22 OFFCURVE",
"334 22 CURVE SMOOTH"
);
},
{
closed = 1;
nodes = (
"476 20 LINE",
"476 0 LINE",
"700 0 LINE",
"700 20 LINE"
);
},
{
closed = 1;
nodes = (
"395 740 LINE",
"620 740 LINE",
"620 760 LINE",
"395 760 LINE"
);
}
);
width = 710;
},
{
layerId = "CA54B7DC-FBBB-40FE-ACF3-AABDD76D6A7B";
paths = (
{
closed = 1;
nodes = (
"560 0 LINE",
"560 760 LINE",
"510 760 LINE",
"510 375 LINE",
"525 275 LINE",
"514 165 LINE",
"514 0 LINE"
);
},
{
closed = 1;
nodes = (
"448 -10 OFFCURVE",
"534 97 OFFCURVE",
"534 275 CURVE SMOOTH",
"534 453 OFFCURVE",
"448 560 OFFCURVE",
"306 560 CURVE SMOOTH",
"160 560 OFFCURVE",
"56 453 OFFCURVE",
"56 275 CURVE SMOOTH",
"56 97 OFFCURVE",
"160 -10 OFFCURVE",
"306 -10 CURVE SMOOTH"
);
},
{
closed = 1;
nodes = (
"190 10 OFFCURVE",
"108 108 OFFCURVE",
"108 275 CURVE SMOOTH",
"108 442 OFFCURVE",
"190 540 OFFCURVE",
"308 540 CURVE SMOOTH",
"428 540 OFFCURVE",
"512 442 OFFCURVE",
"512 275 CURVE SMOOTH",
"512 108 OFFCURVE",
"428 10 OFFCURVE",
"308 10 CURVE SMOOTH"
);
},
{
closed = 1;
nodes = (
"514 20 LINE",
"514 0 LINE",
"660 0 LINE",
"660 20 LINE"
);
},
{
closed = 1;
nodes = (
"415 740 LINE",
"560 740 LINE",
"560 760 LINE",
"415 760 LINE"
);
}
);
width = 680;
}
);
leftKerningGroup = o;
leftMetricsKey = o;
rightKerningGroup = l;
rightMetricsKey = l;
unicode = 0064;
},
{
glyphname = e;
lastChange = "2020-05-07 14:21:18 +0000";
layers = (
{
layerId = "8E2477B1-6F82-4933-924D-A4D021D30CA2";
paths = (
{
closed = 1;
nodes = (
"495 156 LINE",
"469 80 OFFCURVE",
"411 32 OFFCURVE",
"314 32 CURVE SMOOTH",
"193 32 OFFCURVE",
"114 119 OFFCURVE",
"114 275 CURVE SMOOTH",
"114 432 OFFCURVE",
"194 520 OFFCURVE",
"312 520 CURVE",
"312 560 LINE",
"166 560 OFFCURVE",
"64 453 OFFCURVE",
"64 275 CURVE SMOOTH",
"64 97 OFFCURVE",
"165 -10 OFFCURVE",
"314 -10 CURVE SMOOTH",
"434 -10 OFFCURVE",
"503 50 OFFCURVE",
"533 143 CURVE"
);
},
{
closed = 1;
nodes = (
"540 322 LINE",
"540 467 OFFCURVE",
"454 560 OFFCURVE",
"312 560 CURVE",
"312 520 LINE",
"428 520 OFFCURVE",
"490 448 OFFCURVE",
"492 332 CURVE"
);
},
{
closed = 1;
nodes = (
"91 292 LINE",
"540 292 LINE",
"540 322 LINE",
"492 332 LINE",
"91 332 LINE"
);
}
);
width = 604;
},
{
layerId = "38DA3315-22D6-4CA2-8458-CB7E0975637F";
paths = (
{
closed = 1;
nodes = (
"510 176 LINE",
"486 115 OFFCURVE",
"438 76 OFFCURVE",
"372 76 CURVE SMOOTH",
"270 76 OFFCURVE",
"208 144 OFFCURVE",
"208 280 CURVE SMOOTH",
"208 416 OFFCURVE",
"257 500 OFFCURVE",
"336 500 CURVE",
"336 570 LINE",
"174 570 OFFCURVE",
"58 465 OFFCURVE",
"58 280 CURVE SMOOTH",
"58 95 OFFCURVE",
"176 -10 OFFCURVE",
"336 -10 CURVE SMOOTH",
"459 -10 OFFCURVE",
"533 48 OFFCURVE",
"573 149 CURVE"
);
},
{
closed = 1;
nodes = (
"582 320 LINE",
"582 463 OFFCURVE",
"499 570 OFFCURVE",
"336 570 CURVE",
"336 500 LINE",
"411 500 OFFCURVE",
"437 427 OFFCURVE",
"438 352 CURVE"
);
},
{
closed = 1;
nodes = (
"131 282 LINE",
"582 282 LINE",
"582 320 LINE",
"438 352 LINE",
"131 352 LINE"
);
}
);
width = 640;
},
{
layerId = "15B5FD12-AAB5-4088-829B-CB8139BF8816";
paths = (
{
closed = 1;
nodes = (
"526 155 LINE",
"503 82 OFFCURVE",
"444 38 OFFCURVE",
"368 38 CURVE SMOOTH",
"256 38 OFFCURVE",
"188 125 OFFCURVE",
"188 280 CURVE SMOOTH",
"188 450 OFFCURVE",
"241 551 OFFCURVE",
"320 551 CURVE",
"320 570 LINE",
"158 570 OFFCURVE",
"40 465 OFFCURVE",
"40 280 CURVE SMOOTH",
"40 95 OFFCURVE",
"160 -10 OFFCURVE",
"320 -10 CURVE SMOOTH",
"432 -10 OFFCURVE",
"513 49 OFFCURVE",
"547 149 CURVE"
);
},
{
closed = 1;
nodes = (
"562 326 LINE",
"564 465 OFFCURVE",
"479 570 OFFCURVE",
"320 570 CURVE",
"320 551 LINE",
"397 551 OFFCURVE",
"420 447 OFFCURVE",
"418 328 CURVE"
);
},
{
closed = 1;
nodes = (
"115 308 LINE",
"562 308 LINE",
"562 326 LINE",
"418 328 LINE",
"115 328 LINE"
);
}
);
width = 602;
},
{
layerId = "CA54B7DC-FBBB-40FE-ACF3-AABDD76D6A7B";
paths = (
{
closed = 1;
nodes = (
"506 151 LINE",
"482 63 OFFCURVE",
"404 10 OFFCURVE",
"310 10 CURVE SMOOTH",
"191 10 OFFCURVE",
"106 107 OFFCURVE",
"106 275 CURVE SMOOTH",
"106 443 OFFCURVE",
"174 541 OFFCURVE",
"308 541 CURVE",
"308 560 LINE",
"158 560 OFFCURVE",
"56 457 OFFCURVE",
"56 275 CURVE SMOOTH",
"56 93 OFFCURVE",
"160 -10 OFFCURVE",
"310 -10 CURVE SMOOTH",
"417 -10 OFFCURVE",
"500 48 OFFCURVE",
"527 145 CURVE"
);
},
{
closed = 1;
nodes = (
"528 328 LINE",
"528 460 OFFCURVE",
"454 560 OFFCURVE",
"308 560 CURVE",
"308 541 LINE",
"437 541 OFFCURVE",
"477 442 OFFCURVE",
"480 330 CURVE"
);
},
{
closed = 1;
nodes = (
"83 310 LINE",
"528 310 LINE",
"528 328 LINE",
"480 330 LINE",
"83 330 LINE"
);
}
);
width = 584;
}
);
leftKerningGroup = o;
leftMetricsKey = o;
rightKerningGroup = o;
rightMetricsKey = o;
unicode = 0065;
},
{
glyphname = f;
lastChange = "2020-05-07 14:12:11 +0000";
layers = (
{
layerId = "8E2477B1-6F82-4933-924D-A4D021D30CA2";
paths = (
{
closed = 1;
nodes = (
"223 580 LINE",
"223 708 OFFCURVE",
"279 754 OFFCURVE",
"344 754 CURVE SMOOTH",
"379 754 OFFCURVE",
"398 736 OFFCURVE",
"398 711 CURVE SMOOTH",
"398 689 OFFCURVE",
"380 686 OFFCURVE",
"380 662 CURVE SMOOTH",
"380 646 OFFCURVE",
"389 635 OFFCURVE",
"407 635 CURVE SMOOTH",
"434 635 OFFCURVE",
"453 661 OFFCURVE",
"453 699 CURVE SMOOTH",
"453 749 OFFCURVE",
"417 790 OFFCURVE",
"344 790 CURVE SMOOTH",
"263 790 OFFCURVE",
"173 738 OFFCURVE",
"173 574 CURVE"
);
},
{
closed = 1;
nodes = (
"173 0 LINE",
"223 0 LINE",
"223 580 LINE",
"173 574 LINE"
);
},
{
closed = 1;
nodes = (
"18 510 LINE",
"419 510 LINE",
"419 550 LINE",
"18 550 LINE"
);
},
{
closed = 1;
nodes = (
"383 40 LINE",
"53 40 LINE",
"53 0 LINE",
"383 0 LINE"
);
}
);
width = 455;
},
{
layerId = "38DA3315-22D6-4CA2-8458-CB7E0975637F";
paths = (
{
closed = 1;
nodes = (
"305 630 LINE",
"305 702 OFFCURVE",
"336 728 OFFCURVE",
"379 728 CURVE SMOOTH",
"401 728 OFFCURVE",
"412 720 OFFCURVE",
"412 705 CURVE SMOOTH",
"412 687 OFFCURVE",
"405 679 OFFCURVE",
"405 656 CURVE SMOOTH",
"405 623 OFFCURVE",
"425 602 OFFCURVE",
"466 602 CURVE SMOOTH",
"507 602 OFFCURVE",
"535 633 OFFCURVE",
"535 679 CURVE SMOOTH",
"535 743 OFFCURVE",
"482 790 OFFCURVE",
"386 790 CURVE SMOOTH",
"277 790 OFFCURVE",
"155 736 OFFCURVE",
"155 566 CURVE"
);
},
{
closed = 1;
nodes = (
"155 0 LINE",
"305 0 LINE",
"305 630 LINE",
"155 566 LINE"
);
},
{
closed = 1;
nodes = (
"20 490 LINE",
"485 490 LINE",
"485 560 LINE",
"20 560 LINE"
);
},
{
closed = 1;
nodes = (
"445 70 LINE",
"55 70 LINE",
"55 0 LINE",
"445 0 LINE"
);
}
);
width = 499;
},
{
layerId = "15B5FD12-AAB5-4088-829B-CB8139BF8816";
paths = (
{
closed = 1;
nodes = (
"275 670 LINE",
"275 742 OFFCURVE",
"304 768 OFFCURVE",
"345 768 CURVE SMOOTH",
"375 768 OFFCURVE",
"390 756 OFFCURVE",
"390 733 CURVE SMOOTH",
"390 707 OFFCURVE",
"371 695 OFFCURVE",
"371 662 CURVE SMOOTH",
"371 627 OFFCURVE",
"391 605 OFFCURVE",
"432 605 CURVE SMOOTH",
"475 605 OFFCURVE",
"505 636 OFFCURVE",
"505 683 CURVE SMOOTH",
"505 745 OFFCURVE",
"452 790 OFFCURVE",
"356 790 CURVE SMOOTH",
"247 790 OFFCURVE",
"125 736 OFFCURVE",
"125 566 CURVE"
);
},
{
closed = 1;
nodes = (
"125 0 LINE",
"275 0 LINE",
"275 670 LINE",
"125 566 LINE"
);
},
{
closed = 1;
nodes = (
"0 540 LINE",
"445 540 LINE",
"445 560 LINE",
"0 560 LINE"
);
},
{
closed = 1;
nodes = (
"405 20 LINE",
"35 20 LINE",
"35 0 LINE",
"405 0 LINE"
);
}
);
width = 441;
},
{
layerId = "CA54B7DC-FBBB-40FE-ACF3-AABDD76D6A7B";
paths = (
{
closed = 1;
nodes = (
"207 580 LINE",
"207 718 OFFCURVE",
"263 770 OFFCURVE",
"328 770 CURVE SMOOTH",
"369 770 OFFCURVE",
"395 749 OFFCURVE",
"395 712 CURVE SMOOTH",
"395 689 OFFCURVE",
"377 685 OFFCURVE",
"377 662 CURVE SMOOTH",
"377 651 OFFCURVE",
"384 641 OFFCURVE",
"398 641 CURVE SMOOTH",
"419 641 OFFCURVE",
"432 663 OFFCURVE",
"432 696 CURVE SMOOTH",
"432 755 OFFCURVE",
"383 790 OFFCURVE",
"328 790 CURVE SMOOTH",
"247 790 OFFCURVE",
"157 738 OFFCURVE",
"157 574 CURVE"
);
},
{
closed = 1;
nodes = (
"157 0 LINE",
"207 0 LINE",
"207 580 LINE",
"157 574 LINE"
);
},
{
closed = 1;
nodes = (
"12 530 LINE",
"407 530 LINE",
"407 550 LINE",
"12 550 LINE"
);
},
{
closed = 1;
nodes = (
"357 20 LINE",
"47 20 LINE",
"47 0 LINE",
"357 0 LINE"
);
}
);
width = 424;
}
);
leftKerningGroup = f;
rightKerningGroup = f;
unicode = 0066;
},
{
glyphname = g;
lastChange = "2020-05-07 14:10:44 +0000";
layers = (
{
layerId = "8E2477B1-6F82-4933-924D-A4D021D30CA2";
paths = (
{
closed = 1;
nodes = (
"420 184 OFFCURVE",
"506 257 OFFCURVE",
"506 369 CURVE SMOOTH",
"506 448 OFFCURVE",
"461 494 OFFCURVE",
"417 514 CURVE",
"304 554 LINE",
"176 554 OFFCURVE",
"90 481 OFFCURVE",
"90 369 CURVE SMOOTH",
"90 257 OFFCURVE",
"176 184 OFFCURVE",
"298 184 CURVE SMOOTH"
);
},
{
closed = 1;
nodes = (
"205 222 OFFCURVE",
"140 280 OFFCURVE",
"140 369 CURVE SMOOTH",
"140 458 OFFCURVE",
"205 516 OFFCURVE",
"298 516 CURVE SMOOTH",
"391 516 OFFCURVE",
"456 458 OFFCURVE",
"456 369 CURVE SMOOTH",
"456 280 OFFCURVE",
"391 222 OFFCURVE",
"298 222 CURVE SMOOTH"
);
},
{
closed = 1;
nodes = (
"170 215 OFFCURVE",
"122 189 OFFCURVE",
"122 131 CURVE SMOOTH",
"122 81 OFFCURVE",
"165 36 OFFCURVE",
"244 36 CURVE SMOOTH",
"443 36 LINE SMOOTH",
"498 36 OFFCURVE",
"528 15 OFFCURVE",
"528 -32 CURVE SMOOTH",
"528 -114 OFFCURVE",
"440 -160 OFFCURVE",
"306 -160 CURVE SMOOTH",
"196 -160 OFFCURVE",
"116 -124 OFFCURVE",
"116 -49 CURVE SMOOTH",
"116 13 OFFCURVE",
"173 39 OFFCURVE",
"219 46 CURVE",
"211 78 LINE",
"155 67 OFFCURVE",
"66 33 OFFCURVE",
"66 -55 CURVE SMOOTH",
"66 -146 OFFCURVE",
"158 -200 OFFCURVE",
"306 -200 CURVE SMOOTH",
"456 -200 OFFCURVE",
"578 -143 OFFCURVE",
"578 -26 CURVE SMOOTH",
"578 46 OFFCURVE",
"525 82 OFFCURVE",
"449 82 CURVE SMOOTH",
"247 82 LINE SMOOTH",
"193 82 OFFCURVE",
"170 106 OFFCURVE",
"170 139 CURVE SMOOTH",
"170 169 OFFCURVE",
"193 191 OFFCURVE",
"222 197 CURVE",
"213 228 LINE"
);
},
{
closed = 1;
nodes = (
"417 514 LINE",
"576 514 LINE",
"576 554 LINE",
"304 554 LINE"
);
}
);
width = 632;
},
{
layerId = "38DA3315-22D6-4CA2-8458-CB7E0975637F";
paths = (
{
closed = 1;
nodes = (
"441 182 OFFCURVE",
"541 253 OFFCURVE",
"541 363 CURVE SMOOTH",
"541 439 OFFCURVE",
"495 479 OFFCURVE",
"458 494 CURVE",
"307 564 LINE",
"158 564 OFFCURVE",
"57 489 OFFCURVE",
"57 373 CURVE SMOOTH",
"57 257 OFFCURVE",
"158 182 OFFCURVE",
"301 182 CURVE SMOOTH"
);
},
{
closed = 1;
nodes = (
"245 248 OFFCURVE",
"205 297 OFFCURVE",
"205 373 CURVE SMOOTH",
"205 449 OFFCURVE",
"245 498 OFFCURVE",
"301 498 CURVE SMOOTH",
"357 498 OFFCURVE",
"397 449 OFFCURVE",
"397 373 CURVE SMOOTH",
"397 297 OFFCURVE",
"357 248 OFFCURVE",
"301 248 CURVE SMOOTH"
);
},
{
closed = 1;
nodes = (
"159 230 OFFCURVE",
"87 198 OFFCURVE",
"87 120 CURVE SMOOTH",
"87 42 OFFCURVE",
"145 -6 OFFCURVE",
"241 -6 CURVE SMOOTH",
"418 -6 LINE SMOOTH",
"461 -6 OFFCURVE",
"483 -19 OFFCURVE",
"483 -50 CURVE SMOOTH",
"483 -94 OFFCURVE",
"444 -132 OFFCURVE",
"315 -132 CURVE SMOOTH",
"203 -132 OFFCURVE",
"162 -94 OFFCURVE",
"163 -50 CURVE SMOOTH",
"164 -18 OFFCURVE",
"180 2 OFFCURVE",
"190 9 CURVE",
"165 47 LINE",
"108 43 OFFCURVE",
"46 11 OFFCURVE",
"46 -59 CURVE SMOOTH",
"46 -152 OFFCURVE",
"160 -200 OFFCURVE",
"309 -200 CURVE SMOOTH",
"474 -200 OFFCURVE",
"599 -138 OFFCURVE",
"599 -13 CURVE SMOOTH",
"599 72 OFFCURVE",
"539 112 OFFCURVE",
"432 112 CURVE SMOOTH",
"246 112 LINE SMOOTH",
"206 112 OFFCURVE",
"189 126 OFFCURVE",
"189 150 CURVE SMOOTH",
"189 176 OFFCURVE",
"212 188 OFFCURVE",
"228 194 CURVE",
"205 242 LINE"
);
},
{
closed = 1;
nodes = (
"458 494 LINE",
"603 494 LINE",
"603 564 LINE",
"307 564 LINE"
);
}
);
width = 643;
},
{
layerId = "15B5FD12-AAB5-4088-829B-CB8139BF8816";
paths = (
{
closed = 1;
nodes = (
"435 182 OFFCURVE",
"537 257 OFFCURVE",
"537 373 CURVE SMOOTH",
"537 471 OFFCURVE",
"469 525 OFFCURVE",
"386 544 CURVE",
"297 564 LINE",
"147 564 OFFCURVE",
"45 489 OFFCURVE",
"45 373 CURVE SMOOTH",
"45 257 OFFCURVE",
"147 182 OFFCURVE",
"291 182 CURVE SMOOTH"
);
},
{
closed = 1;
nodes = (
"230 201 OFFCURVE",
"187 268 OFFCURVE",
"187 373 CURVE SMOOTH",
"187 478 OFFCURVE",
"230 545 OFFCURVE",
"291 545 CURVE SMOOTH",
"352 545 OFFCURVE",
"395 478 OFFCURVE",
"395 373 CURVE SMOOTH",
"395 268 OFFCURVE",
"352 201 OFFCURVE",
"291 201 CURVE SMOOTH"
);
},
{
closed = 1;
nodes = (
"154 206 OFFCURVE",
"83 178 OFFCURVE",
"83 108 CURVE SMOOTH",
"83 41 OFFCURVE",
"139 0 OFFCURVE",
"231 0 CURVE SMOOTH",
"392 0 LINE SMOOTH",
"451 0 OFFCURVE",
"481 -21 OFFCURVE",
"481 -68 CURVE SMOOTH",
"481 -118 OFFCURVE",
"439 -180 OFFCURVE",
"305 -180 CURVE SMOOTH",
"186 -180 OFFCURVE",
"136 -124 OFFCURVE",
"136 -60 CURVE SMOOTH",
"136 -19 OFFCURVE",
"153 8 OFFCURVE",
"164 17 CURVE",
"159 30 LINE",
"106 30 OFFCURVE",
"34 7 OFFCURVE",
"34 -63 CURVE SMOOTH",
"33 -153 OFFCURVE",
"139 -200 OFFCURVE",
"299 -200 CURVE SMOOTH",
"466 -200 OFFCURVE",
"593 -138 OFFCURVE",
"593 -13 CURVE SMOOTH",
"593 68 OFFCURVE",
"533 106 OFFCURVE",
"426 106 CURVE SMOOTH",
"230 106 LINE SMOOTH",
"180 106 OFFCURVE",
"159 124 OFFCURVE",
"159 152 CURVE SMOOTH",
"159 178 OFFCURVE",
"181 197 OFFCURVE",
"201 204 CURVE",
"195 218 LINE"
);
},
{
closed = 1;
nodes = (
"386 544 LINE",
"585 544 LINE",
"585 564 LINE",
"297 564 LINE"
);
}
);
width = 615;
},
{
layerId = "CA54B7DC-FBBB-40FE-ACF3-AABDD76D6A7B";
paths = (
{
closed = 1;
nodes = (
"403 184 OFFCURVE",
"490 257 OFFCURVE",
"490 369 CURVE SMOOTH",
"490 459 OFFCURVE",
"434 515 OFFCURVE",
"361 534 CURVE",
"286 554 LINE",
"157 554 OFFCURVE",
"70 481 OFFCURVE",
"70 369 CURVE SMOOTH",
"70 257 OFFCURVE",
"157 184 OFFCURVE",
"280 184 CURVE SMOOTH"
);
},
{
closed = 1;
nodes = (
"185 204 OFFCURVE",
"118 269 OFFCURVE",
"118 369 CURVE SMOOTH",
"118 469 OFFCURVE",
"185 534 OFFCURVE",
"280 534 CURVE SMOOTH",
"375 534 OFFCURVE",
"442 469 OFFCURVE",
"442 369 CURVE SMOOTH",
"442 269 OFFCURVE",
"375 204 OFFCURVE",
"280 204 CURVE SMOOTH"
);
},
{
closed = 1;
nodes = (
"156 208 OFFCURVE",
"108 186 OFFCURVE",
"108 130 CURVE SMOOTH",
"108 73 OFFCURVE",
"156 38 OFFCURVE",
"234 38 CURVE SMOOTH",
"425 38 LINE SMOOTH",
"484 38 OFFCURVE",
"514 17 OFFCURVE",
"514 -31 CURVE SMOOTH",
"514 -118 OFFCURVE",
"434 -180 OFFCURVE",
"294 -180 CURVE SMOOTH",
"176 -180 OFFCURVE",
"96 -140 OFFCURVE",
"96 -52 CURVE SMOOTH",
"96 6 OFFCURVE",
"129 35 OFFCURVE",
"170 48 CURVE",
"165 61 LINE",
"111 51 OFFCURVE",
"50 17 OFFCURVE",
"50 -57 CURVE SMOOTH",
"50 -150 OFFCURVE",
"144 -200 OFFCURVE",
"294 -200 CURVE SMOOTH",
"448 -200 OFFCURVE",
"556 -132 OFFCURVE",
"556 -23 CURVE SMOOTH",
"556 46 OFFCURVE",
"510 78 OFFCURVE",
"429 78 CURVE SMOOTH",
"239 78 LINE SMOOTH",
"175 78 OFFCURVE",
"148 103 OFFCURVE",
"148 142 CURVE SMOOTH",
"148 173 OFFCURVE",
"170 196 OFFCURVE",
"190 204 CURVE",
"184 218 LINE"
);
},
{
closed = 1;
nodes = (
"361 534 LINE",
"554 534 LINE",
"554 554 LINE",
"286 554 LINE"
);
}
);
width = 596;
}
);
leftKerningGroup = g;
rightKerningGroup = g;
unicode = 0067;
},
{
glyphname = h;
lastChange = "2020-05-07 14:22:08 +0000";
layers = (
{
layerId = "8E2477B1-6F82-4933-924D-A4D021D30CA2";
paths = (
{
closed = 1;
nodes = (
"150 0 LINE",
"200 0 LINE",
"200 760 LINE",
"150 760 LINE"
);
},
{
closed = 1;
nodes = (
"200 268 LINE",
"200 452 OFFCURVE",
"292 519 OFFCURVE",
"391 518 CURVE SMOOTH",
"460 518 OFFCURVE",
"502 482 OFFCURVE",
"502 406 CURVE SMOOTH",
"502 0 LINE",
"552 0 LINE",
"552 414 LINE SMOOTH",
"552 519 OFFCURVE",
"485 560 OFFCURVE",
"395 560 CURVE SMOOTH",
"262 560 OFFCURVE",
"170 472 OFFCURVE",
"170 268 CURVE"
);
},
{
closed = 1;
nodes = (
"45 720 LINE",
"200 720 LINE",
"200 760 LINE",
"45 760 LINE"
);
},
{
closed = 1;
nodes = (
"30 0 LINE",
"320 0 LINE",
"320 40 LINE",
"30 40 LINE"
);
},
{
closed = 1;
nodes = (
"382 0 LINE",
"657 0 LINE",
"657 40 LINE",
"382 40 LINE"
);
}
);
width = 677;
},
{
layerId = "38DA3315-22D6-4CA2-8458-CB7E0975637F";
paths = (
{
closed = 1;
nodes = (
"126 0 LINE",
"272 0 LINE",
"272 760 LINE",
"126 760 LINE"
);
},
{
closed = 1;
nodes = (
"272 328 LINE",
"272 435 OFFCURVE",
"323 480 OFFCURVE",
"385 480 CURVE SMOOTH",
"428 480 OFFCURVE",
"454 454 OFFCURVE",
"454 404 CURVE SMOOTH",
"454 0 LINE",
"600 0 LINE",
"600 414 LINE SMOOTH",
"600 526 OFFCURVE",
"536 570 OFFCURVE",
"441 570 CURVE SMOOTH",
"321 570 OFFCURVE",
"237 500 OFFCURVE",
"237 328 CURVE"
);
},
{
closed = 1;
nodes = (
"41 690 LINE",
"272 690 LINE",
"272 760 LINE",
"41 760 LINE"
);
},
{
closed = 1;
nodes = (
"26 0 LINE",
"342 0 LINE",
"342 70 LINE",
"26 70 LINE"
);
},
{
closed = 1;
nodes = (
"384 0 LINE",
"685 0 LINE",
"685 70 LINE",
"384 70 LINE"
);
}
);
width = 703;
},
{
layerId = "15B5FD12-AAB5-4088-829B-CB8139BF8816";
paths = (
{
closed = 1;
nodes = (
"100 0 LINE",
"250 0 LINE",
"250 760 LINE",
"100 760 LINE"
);
},
{
closed = 1;
nodes = (
"250 378 LINE",
"250 484 OFFCURVE",
"301 528 OFFCURVE",
"361 528 CURVE SMOOTH",
"406 528 OFFCURVE",
"432 500 OFFCURVE",
"432 450 CURVE SMOOTH",
"432 0 LINE",
"582 0 LINE",
"582 414 LINE SMOOTH",
"582 526 OFFCURVE",
"515 570 OFFCURVE",
"421 570 CURVE SMOOTH",
"312 570 OFFCURVE",
"230 509 OFFCURVE",
"230 378 CURVE"
);
},
{
closed = 1;
nodes = (
"25 740 LINE",
"250 740 LINE",
"250 760 LINE",
"25 760 LINE"
);
},
{
closed = 1;
nodes = (
"10 0 LINE",
"325 0 LINE",
"325 20 LINE",
"10 20 LINE"
);
},
{
closed = 1;
nodes = (
"357 0 LINE",
"657 0 LINE",
"657 20 LINE",
"357 20 LINE"
);
}
);
width = 661;
},
{
layerId = "CA54B7DC-FBBB-40FE-ACF3-AABDD76D6A7B";
paths = (
{
closed = 1;
nodes = (
"130 0 LINE",
"180 0 LINE",
"180 760 LINE",
"130 760 LINE"
);
},
{
closed = 1;
nodes = (
"180 298 LINE",
"180 465 OFFCURVE",
"272 536 OFFCURVE",
"371 536 CURVE SMOOTH",
"440 536 OFFCURVE",
"482 495 OFFCURVE",
"482 414 CURVE SMOOTH",
"482 0 LINE",
"532 0 LINE",
"532 414 LINE SMOOTH",
"532 519 OFFCURVE",
"465 560 OFFCURVE",
"375 560 CURVE SMOOTH",
"265 560 OFFCURVE",
"162 485 OFFCURVE",
"162 298 CURVE"
);
},
{
closed = 1;
nodes = (
"35 740 LINE",
"180 740 LINE",
"180 760 LINE",
"35 760 LINE"
);
},
{
closed = 1;
nodes = (
"20 0 LINE",
"290 0 LINE",
"290 20 LINE",
"20 20 LINE"
);
},
{
closed = 1;
nodes = (
"372 0 LINE",
"627 0 LINE",
"627 20 LINE",
"372 20 LINE"
);
}
);
width = 637;
}
);
leftKerningGroup = l;
leftMetricsKey = l;
rightKerningGroup = n;
rightMetricsKey = n;
unicode = 0068;
},
{
glyphname = idotless;
lastChange = "2020-05-07 14:07:14 +0000";
layers = (
{
anchors = (
{
name = top;
position = "{155, 550}";
}
);
layerId = "CA54B7DC-FBBB-40FE-ACF3-AABDD76D6A7B";
paths = (
{
closed = 1;
nodes = (
"130 0 LINE",
"180 0 LINE",
"180 550 LINE",
"130 550 LINE"
);
},
{
closed = 1;
nodes = (
"35 530 LINE",
"180 530 LINE",
"180 550 LINE",
"35 550 LINE"
);
},
{
closed = 1;
nodes = (
"20 0 LINE",
"280 0 LINE",
"280 20 LINE",
"20 20 LINE"
);
}
);
width = 300;
},
{
anchors = (
{
name = top;
position = "{175, 560}";
}
);
layerId = "15B5FD12-AAB5-4088-829B-CB8139BF8816";
paths = (
{
closed = 1;
nodes = (
"100 0 LINE",
"250 0 LINE",
"250 560 LINE",
"100 560 LINE"
);
},
{
closed = 1;
nodes = (
"25 540 LINE",
"250 540 LINE",
"250 560 LINE",
"25 560 LINE"
);
},
{
closed = 1;
nodes = (
"10 0 LINE",
"330 0 LINE",
"330 20 LINE",
"10 20 LINE"
);
}
);
width = 340;
},
{
anchors = (
{
name = top;
position = "{175, 550}";
}
);
layerId = "8E2477B1-6F82-4933-924D-A4D021D30CA2";
paths = (
{
closed = 1;
nodes = (
"150 0 LINE",
"200 0 LINE",
"200 550 LINE",
"150 550 LINE"
);
},
{
closed = 1;
nodes = (
"45 510 LINE",
"200 510 LINE",
"200 550 LINE",
"45 550 LINE"
);
},
{
closed = 1;
nodes = (
"30 0 LINE",
"310 0 LINE",
"310 40 LINE",
"30 40 LINE"
);
}
);
width = 340;
},
{
anchors = (
{
name = top;
position = "{201, 560}";
}
);
layerId = "38DA3315-22D6-4CA2-8458-CB7E0975637F";
paths = (
{
closed = 1;
nodes = (
"126 0 LINE",
"276 0 LINE",
"276 560 LINE",
"126 560 LINE"
);
},
{
closed = 1;
nodes = (
"41 490 LINE",
"276 490 LINE",
"276 560 LINE",
"41 560 LINE"
);
},
{
closed = 1;
nodes = (
"26 0 LINE",
"361 0 LINE",
"361 70 LINE",
"26 70 LINE"
);
}
);
width = 387;
}
);
leftKerningGroup = n;
leftMetricsKey = l;
rightKerningGroup = l;
rightMetricsKey = l;
unicode = 0131;
},
{
glyphname = jdotless;
lastChange = "2020-05-07 14:03:03 +0000";
layers = (
{
anchors = (
{
name = top;
position = "{180, 550}";
}
);
layerId = "8E2477B1-6F82-4933-924D-A4D021D30CA2";
paths = (
{
closed = 1;
nodes = (
"155 -40 LINE",
"155 -132 OFFCURVE",
"121 -166 OFFCURVE",
"80 -166 CURVE SMOOTH",
"54 -166 OFFCURVE",
"38 -152 OFFCURVE",
"38 -136 CURVE SMOOTH",
"38 -116 OFFCURVE",
"47 -114 OFFCURVE",
"47 -92 CURVE SMOOTH",
"47 -76 OFFCURVE",
"37 -66 OFFCURVE",
"20 -66 CURVE SMOOTH",
"-2 -66 OFFCURVE",
"-15 -85 OFFCURVE",
"-15 -113 CURVE SMOOTH",
"-15 -164 OFFCURVE",
"20 -200 OFFCURVE",
"81 -200 CURVE SMOOTH",
"147 -200 OFFCURVE",
"205 -154 OFFCURVE",
"205 -32 CURVE"
);
},
{
closed = 1;
nodes = (
"205 550 LINE",
"155 550 LINE",
"155 -40 LINE",
"205 -32 LINE"
);
},
{
closed = 1;
nodes = (
"50 510 LINE",
"205 510 LINE",
"205 550 LINE",
"50 550 LINE"
);
}
);
width = 315;
},
{
anchors = (
{
name = top;
position = "{230, 560}";
}
);
layerId = "38DA3315-22D6-4CA2-8458-CB7E0975637F";
paths = (
{
closed = 1;
nodes = (
"155 -89 LINE",
"155 -129 OFFCURVE",
"134 -143 OFFCURVE",
"109 -143 CURVE SMOOTH",
"91 -143 OFFCURVE",
"78 -135 OFFCURVE",
"78 -119 CURVE SMOOTH",
"78 -106 OFFCURVE",
"81 -99 OFFCURVE",
"81 -83 CURVE SMOOTH",
"81 -49 OFFCURVE",
"58 -28 OFFCURVE",
"22 -28 CURVE SMOOTH",
"-18 -28 OFFCURVE",
"-47 -52 OFFCURVE",
"-47 -96 CURVE SMOOTH",
"-47 -160 OFFCURVE",
"8 -200 OFFCURVE",
"100 -200 CURVE SMOOTH",
"197 -200 OFFCURVE",
"305 -153 OFFCURVE",
"305 -1 CURVE"
);
},
{
closed = 1;
nodes = (
"305 560 LINE",
"155 560 LINE",
"155 -89 LINE",
"305 -1 LINE"
);
},
{
closed = 1;
nodes = (
"70 490 LINE",
"305 490 LINE",
"305 560 LINE",
"70 560 LINE"
);
}
);
width = 385;
},
{
anchors = (
{
name = top;
position = "{191, 560}";
}
);
layerId = "15B5FD12-AAB5-4088-829B-CB8139BF8816";
paths = (
{
closed = 1;
nodes = (
"116 -109 LINE",
"116 -162 OFFCURVE",
"95 -180 OFFCURVE",
"70 -180 CURVE SMOOTH",
"50 -180 OFFCURVE",
"35 -168 OFFCURVE",
"35 -143 CURVE SMOOTH",
"35 -121 OFFCURVE",
"42 -110 OFFCURVE",
"42 -83 CURVE SMOOTH",
"42 -49 OFFCURVE",
"19 -28 OFFCURVE",
"-17 -28 CURVE SMOOTH",
"-56 -28 OFFCURVE",
"-84 -53 OFFCURVE",
"-84 -98 CURVE SMOOTH",
"-84 -161 OFFCURVE",
"-30 -200 OFFCURVE",
"61 -200 CURVE SMOOTH",
"158 -200 OFFCURVE",
"266 -153 OFFCURVE",
"266 -1 CURVE"
);
},
{
closed = 1;
nodes = (
"266 560 LINE",
"116 560 LINE",
"116 -109 LINE",
"266 -1 LINE"
);
},
{
closed = 1;
nodes = (
"41 540 LINE",
"266 540 LINE",
"266 560 LINE",
"41 560 LINE"
);
}
);
width = 328;
},
{
anchors = (
{
name = top;
position = "{145, 550}";
}
);
layerId = "CA54B7DC-FBBB-40FE-ACF3-AABDD76D6A7B";
paths = (
{
closed = 1;
nodes = (
"120 -50 LINE",
"120 -138 OFFCURVE",
"93 -181 OFFCURVE",
"42 -181 CURVE SMOOTH",
"12 -181 OFFCURVE",
"-6 -165 OFFCURVE",
"-6 -140 CURVE SMOOTH",
"-6 -122 OFFCURVE",
"2 -115 OFFCURVE",
"2 -100 CURVE SMOOTH",
"2 -87 OFFCURVE",
"-6 -79 OFFCURVE",
"-18 -79 CURVE SMOOTH",
"-34 -79 OFFCURVE",
"-45 -92 OFFCURVE",
"-45 -116 CURVE SMOOTH",
"-45 -169 OFFCURVE",
"-10 -200 OFFCURVE",
"43 -200 CURVE SMOOTH",
"107 -200 OFFCURVE",
"170 -161 OFFCURVE",
"170 -40 CURVE"
);
},
{
closed = 1;
nodes = (
"170 550 LINE",
"120 550 LINE",
"120 -50 LINE",
"170 -40 LINE"
);
},
{
closed = 1;
nodes = (
"25 530 LINE",
"170 530 LINE",
"170 550 LINE",
"25 550 LINE"
);
}
);
width = 260;
}
);
leftKerningGroup = p;
rightKerningGroup = q;
unicode = 0237;
},
{
glyphname = k;
lastChange = "2020-05-07 14:07:14 +0000";
layers = (
{
layerId = "8E2477B1-6F82-4933-924D-A4D021D30CA2";
paths = (
{
closed = 1;
nodes = (
"150 0 LINE",
"200 0 LINE",
"200 760 LINE",
"150 760 LINE"
);
},
{
closed = 1;
nodes = (
"30 0 LINE",
"320 0 LINE",
"320 40 LINE",
"30 40 LINE"
);
},
{
closed = 1;
nodes = (
"45 720 LINE",
"200 720 LINE",
"200 760 LINE",
"45 760 LINE"
);
},
{
closed = 1;
nodes = (
"293 287 LINE",
"505 40 LINE",
"568 40 LINE",
"327 318 LINE"
);
},
{
closed = 1;
nodes = (
"622 550 LINE",
"394 550 LINE",
"394 510 LINE",
"622 510 LINE"
);
},
{
closed = 1;
nodes = (
"638 40 LINE",
"405 40 LINE",
"405 0 LINE",
"638 0 LINE"
);
},
{
closed = 1;
nodes = (
"191 185 LINE",
"552 510 LINE",
"489 510 LINE",
"168 220 LINE"
);
}
);
width = 666;
},
{
layerId = "38DA3315-22D6-4CA2-8458-CB7E0975637F";
paths = (
{
closed = 1;
nodes = (
"126 0 LINE",
"276 0 LINE",
"276 760 LINE",
"126 760 LINE"
);
},
{
closed = 1;
nodes = (
"26 0 LINE",
"356 0 LINE",
"356 70 LINE",
"26 70 LINE"
);
},
{
closed = 1;
nodes = (
"41 690 LINE",
"276 690 LINE",
"276 760 LINE",
"41 760 LINE"
);
},
{
closed = 1;
nodes = (
"328 276 LINE",
"480 70 LINE",
"666 70 LINE",
"443 365 LINE"
);
},
{
closed = 1;
nodes = (
"709 560 LINE",
"442 560 LINE",
"442 490 LINE",
"709 490 LINE"
);
},
{
closed = 1;
nodes = (
"731 70 LINE",
"400 70 LINE",
"400 0 LINE",
"731 0 LINE"
);
},
{
closed = 1;
nodes = (
"261 185 LINE",
"644 490 LINE",
"532 490 LINE",
"220 238 LINE"
);
}
);
width = 750;
},
{
layerId = "15B5FD12-AAB5-4088-829B-CB8139BF8816";
paths = (
{
closed = 1;
nodes = (
"100 0 LINE",
"250 0 LINE",
"250 760 LINE",
"100 760 LINE"
);
},
{
closed = 1;
nodes = (
"10 0 LINE",
"330 0 LINE",
"330 20 LINE",
"10 20 LINE"
);
},
{
closed = 1;
nodes = (
"25 740 LINE",
"250 740 LINE",
"250 760 LINE",
"25 760 LINE"
);
},
{
closed = 1;
nodes = (
"292 281 LINE",
"462 20 LINE",
"641 20 LINE",
"399 379 LINE"
);
},
{
closed = 1;
nodes = (
"659 560 LINE",
"481 560 LINE",
"481 540 LINE",
"659 540 LINE"
);
},
{
closed = 1;
nodes = (
"701 20 LINE",
"382 20 LINE",
"382 0 LINE",
"701 0 LINE"
);
},
{
closed = 1;
nodes = (
"226 203 LINE",
"599 540 LINE",
"566 540 LINE",
"212 220 LINE"
);
}
);
width = 705;
},
{
layerId = "CA54B7DC-FBBB-40FE-ACF3-AABDD76D6A7B";
paths = (
{
closed = 1;
nodes = (
"130 0 LINE",
"180 0 LINE",
"180 760 LINE",
"130 760 LINE"
);
},
{
closed = 1;
nodes = (
"20 0 LINE",
"290 0 LINE",
"290 20 LINE",
"20 20 LINE"
);
},
{
closed = 1;
nodes = (
"35 740 LINE",
"180 740 LINE",
"180 760 LINE",
"35 760 LINE"
);
},
{
closed = 1;
nodes = (
"260 295 LINE",
"490 20 LINE",
"553 20 LINE",
"294 326 LINE"
);
},
{
closed = 1;
nodes = (
"599 550 LINE",
"402 550 LINE",
"402 530 LINE",
"599 530 LINE"
);
},
{
closed = 1;
nodes = (
"623 20 LINE",
"390 20 LINE",
"390 0 LINE",
"623 0 LINE"
);
},
{
closed = 1;
nodes = (
"166 198 LINE",
"529 530 LINE",
"497 530 LINE",
"152 215 LINE"
);
}
);
width = 639;
}
);
leftKerningGroup = l;
leftMetricsKey = l;
rightKerningGroup = k;
unicode = 006B;
},
{
glyphname = l;
lastChange = "2020-05-07 14:07:12 +0000";
layers = (
{
layerId = "8E2477B1-6F82-4933-924D-A4D021D30CA2";
paths = (
{
closed = 1;
nodes = (
"150 0 LINE",
"200 0 LINE",
"200 760 LINE",
"150 760 LINE"
);
},
{
closed = 1;
nodes = (
"45 720 LINE",
"200 720 LINE",
"200 760 LINE",
"45 760 LINE"
);
},
{
closed = 1;
nodes = (
"30 0 LINE",
"310 0 LINE",
"310 40 LINE",
"30 40 LINE"
);
}
);
width = 340;
},
{
layerId = "38DA3315-22D6-4CA2-8458-CB7E0975637F";
paths = (
{
closed = 1;
nodes = (
"126 0 LINE",
"276 0 LINE",
"276 760 LINE",
"126 760 LINE"
);
},
{
closed = 1;
nodes = (
"41 690 LINE",
"276 690 LINE",
"276 760 LINE",
"41 760 LINE"
);
},
{
closed = 1;
nodes = (
"26 0 LINE",
"361 0 LINE",
"361 70 LINE",
"26 70 LINE"
);
}
);
width = 387;
},
{
layerId = "15B5FD12-AAB5-4088-829B-CB8139BF8816";
paths = (
{
closed = 1;
nodes = (
"100 0 LINE",
"250 0 LINE",
"250 760 LINE",
"100 760 LINE"
);
},
{
closed = 1;
nodes = (
"25 740 LINE",
"250 740 LINE",
"250 760 LINE",
"25 760 LINE"
);
},
{
closed = 1;
nodes = (
"10 0 LINE",
"330 0 LINE",
"330 20 LINE",
"10 20 LINE"
);
}
);
width = 340;
},
{
layerId = "CA54B7DC-FBBB-40FE-ACF3-AABDD76D6A7B";
paths = (
{
closed = 1;
nodes = (
"130 0 LINE",
"180 0 LINE",
"180 760 LINE",
"130 760 LINE"
);
},
{
closed = 1;
nodes = (
"35 740 LINE",
"180 740 LINE",
"180 760 LINE",
"35 760 LINE"
);
},
{
closed = 1;
nodes = (
"20 0 LINE",
"280 0 LINE",
"280 20 LINE",
"20 20 LINE"
);
}
);
width = 300;
}
);
leftKerningGroup = l;
rightKerningGroup = l;
unicode = 006C;
},
{
glyphname = m;
lastChange = "2020-05-07 14:22:08 +0000";
layers = (
{
layerId = "8E2477B1-6F82-4933-924D-A4D021D30CA2";
paths = (
{
closed = 1;
nodes = (
"150 0 LINE",
"198 0 LINE",
"198 415 LINE",
"194 415 LINE",
"194 550 LINE",
"150 550 LINE"
);
},
{
closed = 1;
nodes = (
"30 0 LINE",
"288 0 LINE",
"288 40 LINE",
"30 40 LINE"
);
},
{
closed = 1;
nodes = (
"45 510 LINE",
"194 510 LINE",
"194 550 LINE",
"45 550 LINE"
);
},
{
closed = 1;
nodes = (
"198 328 LINE",
"198 466 OFFCURVE",
"267 520 OFFCURVE",
"335 520 CURVE SMOOTH",
"390 520 OFFCURVE",
"418 491 OFFCURVE",
"418 438 CURVE SMOOTH",
"418 0 LINE",
"466 0 LINE",
"466 440 LINE SMOOTH",
"466 521 OFFCURVE",
"424 560 OFFCURVE",
"343 560 CURVE SMOOTH",
"233 560 OFFCURVE",
"168 481 OFFCURVE",
"168 328 CURVE"
);
},
{
closed = 1;
nodes = (
"328 0 LINE",
"556 0 LINE",
"556 40 LINE",
"328 40 LINE"
);
},
{
closed = 1;
nodes = (
"466 328 LINE",
"466 466 OFFCURVE",
"535 520 OFFCURVE",
"603 520 CURVE SMOOTH",
"658 520 OFFCURVE",
"686 491 OFFCURVE",
"686 438 CURVE SMOOTH",
"686 0 LINE",
"734 0 LINE",
"734 440 LINE SMOOTH",
"734 521 OFFCURVE",
"692 560 OFFCURVE",
"611 560 CURVE SMOOTH",
"501 560 OFFCURVE",
"436 481 OFFCURVE",
"436 328 CURVE"
);
},
{
closed = 1;
nodes = (
"596 0 LINE",
"839 0 LINE",
"839 40 LINE",
"596 40 LINE"
);
}
);
width = 859;
},
{
layerId = "38DA3315-22D6-4CA2-8458-CB7E0975637F";
paths = (
{
closed = 1;
nodes = (
"126 0 LINE",
"270 0 LINE",
"270 385 LINE",
"266 385 LINE",
"266 560 LINE",
"126 560 LINE"
);
},
{
closed = 1;
nodes = (
"26 0 LINE",
"330 0 LINE",
"330 70 LINE",
"26 70 LINE"
);
},
{
closed = 1;
nodes = (
"41 490 LINE",
"266 490 LINE",
"266 560 LINE",
"41 560 LINE"
);
},
{
closed = 1;
nodes = (
"270 338 LINE",
"270 438 OFFCURVE",
"314 480 OFFCURVE",
"367 480 CURVE SMOOTH",
"400 480 OFFCURVE",
"420 457 OFFCURVE",
"420 414 CURVE SMOOTH",
"420 0 LINE",
"564 0 LINE",
"564 424 LINE SMOOTH",
"564 529 OFFCURVE",
"507 570 OFFCURVE",
"423 570 CURVE SMOOTH",
"313 570 OFFCURVE",
"235 503 OFFCURVE",
"235 338 CURVE"
);
},
{
closed = 1;
nodes = (
"360 0 LINE",
"624 0 LINE",
"624 70 LINE",
"360 70 LINE"
);
},
{
closed = 1;
nodes = (
"564 338 LINE",
"564 438 OFFCURVE",
"608 480 OFFCURVE",
"661 480 CURVE SMOOTH",
"694 480 OFFCURVE",
"714 457 OFFCURVE",
"714 414 CURVE SMOOTH",
"714 0 LINE",
"858 0 LINE",
"858 424 LINE SMOOTH",
"858 529 OFFCURVE",
"801 570 OFFCURVE",
"717 570 CURVE SMOOTH",
"607 570 OFFCURVE",
"529 503 OFFCURVE",
"529 338 CURVE"
);
},
{
closed = 1;
nodes = (
"654 0 LINE",
"943 0 LINE",
"943 70 LINE",
"654 70 LINE"
);
}
);
width = 961;
},
{
layerId = "15B5FD12-AAB5-4088-829B-CB8139BF8816";
paths = (
{
closed = 1;
nodes = (
"100 0 LINE",
"246 0 LINE",
"246 425 LINE",
"242 425 LINE",
"242 560 LINE",
"100 560 LINE"
);
},
{
closed = 1;
nodes = (
"10 0 LINE",
"306 0 LINE",
"306 20 LINE",
"10 20 LINE"
);
},
{
closed = 1;
nodes = (
"25 540 LINE",
"242 540 LINE",
"242 560 LINE",
"25 560 LINE"
);
},
{
closed = 1;
nodes = (
"246 408 LINE",
"246 491 OFFCURVE",
"289 530 OFFCURVE",
"336 530 CURVE SMOOTH",
"374 530 OFFCURVE",
"396 512 OFFCURVE",
"396 468 CURVE SMOOTH",
"396 0 LINE",
"542 0 LINE",
"542 436 LINE SMOOTH",
"542 534 OFFCURVE",
"479 570 OFFCURVE",
"405 570 CURVE SMOOTH",
"292 570 OFFCURVE",
"228 514 OFFCURVE",
"228 408 CURVE"
);
},
{
closed = 1;
nodes = (
"336 0 LINE",
"602 0 LINE",
"602 20 LINE",
"336 20 LINE"
);
},
{
closed = 1;
nodes = (
"542 408 LINE",
"542 491 OFFCURVE",
"585 530 OFFCURVE",
"632 530 CURVE SMOOTH",
"670 530 OFFCURVE",
"692 512 OFFCURVE",
"692 468 CURVE SMOOTH",
"692 0 LINE",
"838 0 LINE",
"838 436 LINE SMOOTH",
"838 534 OFFCURVE",
"775 570 OFFCURVE",
"701 570 CURVE SMOOTH",
"588 570 OFFCURVE",
"524 514 OFFCURVE",
"524 408 CURVE"
);
},
{
closed = 1;
nodes = (
"632 0 LINE",
"913 0 LINE",
"913 20 LINE",
"632 20 LINE"
);
}
);
width = 917;
},
{
layerId = "CA54B7DC-FBBB-40FE-ACF3-AABDD76D6A7B";
paths = (
{
closed = 1;
nodes = (
"130 0 LINE",
"178 0 LINE",
"178 415 LINE",
"174 415 LINE",
"174 550 LINE",
"130 550 LINE"
);
},
{
closed = 1;
nodes = (
"20 0 LINE",
"268 0 LINE",
"268 20 LINE",
"20 20 LINE"
);
},
{
closed = 1;
nodes = (
"35 530 LINE",
"174 530 LINE",
"174 550 LINE",
"35 550 LINE"
);
},
{
closed = 1;
nodes = (
"178 358 LINE",
"178 482 OFFCURVE",
"248 534 OFFCURVE",
"317 534 CURVE SMOOTH",
"369 534 OFFCURVE",
"398 506 OFFCURVE",
"398 454 CURVE SMOOTH",
"398 0 LINE",
"446 0 LINE",
"446 446 LINE SMOOTH",
"446 530 OFFCURVE",
"397 560 OFFCURVE",
"329 560 CURVE SMOOTH",
"238 560 OFFCURVE",
"160 501 OFFCURVE",
"160 358 CURVE"
);
},
{
closed = 1;
nodes = (
"308 0 LINE",
"536 0 LINE",
"536 20 LINE",
"308 20 LINE"
);
},
{
closed = 1;
nodes = (
"446 358 LINE",
"446 483 OFFCURVE",
"516 534 OFFCURVE",
"585 534 CURVE SMOOTH",
"637 534 OFFCURVE",
"666 506 OFFCURVE",
"666 454 CURVE SMOOTH",
"666 0 LINE",
"714 0 LINE",
"714 446 LINE SMOOTH",
"714 530 OFFCURVE",
"665 560 OFFCURVE",
"597 560 CURVE SMOOTH",
"506 560 OFFCURVE",
"428 501 OFFCURVE",
"428 358 CURVE"
);
},
{
closed = 1;
nodes = (
"576 0 LINE",
"809 0 LINE",
"809 20 LINE",
"576 20 LINE"
);
}
);
width = 819;
}
);
leftKerningGroup = n;
leftMetricsKey = n;
rightKerningGroup = n;
rightMetricsKey = n;
unicode = 006D;
},
{
glyphname = n;
lastChange = "2020-05-07 14:21:56 +0000";
layers = (
{
layerId = "8E2477B1-6F82-4933-924D-A4D021D30CA2";
paths = (
{
closed = 1;
nodes = (
"150 0 LINE",
"200 0 LINE",
"200 405 LINE",
"196 405 LINE",
"196 550 LINE",
"150 550 LINE"
);
},
{
closed = 1;
nodes = (
"30 0 LINE",
"320 0 LINE",
"320 40 LINE",
"30 40 LINE"
);
},
{
closed = 1;
nodes = (
"45 510 LINE",
"196 510 LINE",
"196 550 LINE",
"45 550 LINE"
);
},
{
closed = 1;
nodes = (
"200 268 LINE",
"200 452 OFFCURVE",
"292 518 OFFCURVE",
"391 518 CURVE SMOOTH",
"460 518 OFFCURVE",
"502 482 OFFCURVE",
"502 406 CURVE SMOOTH",
"502 0 LINE",
"552 0 LINE",
"552 414 LINE SMOOTH",
"552 519 OFFCURVE",
"485 560 OFFCURVE",
"395 560 CURVE SMOOTH",
"261 560 OFFCURVE",
"169 472 OFFCURVE",
"169 268 CURVE"
);
},
{
closed = 1;
nodes = (
"382 0 LINE",
"657 0 LINE",
"657 40 LINE",
"382 40 LINE"
);
}
);
width = 677;
},
{
layerId = "38DA3315-22D6-4CA2-8458-CB7E0975637F";
paths = (
{
closed = 1;
nodes = (
"126 0 LINE",
"272 0 LINE",
"272 385 LINE",
"268 385 LINE",
"268 560 LINE",
"126 560 LINE"
);
},
{
closed = 1;
nodes = (
"26 0 LINE",
"342 0 LINE",
"342 70 LINE",
"26 70 LINE"
);
},
{
closed = 1;
nodes = (
"41 490 LINE",
"268 490 LINE",
"268 560 LINE",
"41 560 LINE"
);
},
{
closed = 1;
nodes = (
"272 328 LINE",
"272 435 OFFCURVE",
"323 480 OFFCURVE",
"385 480 CURVE SMOOTH",
"428 480 OFFCURVE",
"454 454 OFFCURVE",
"454 404 CURVE SMOOTH",
"454 0 LINE",
"600 0 LINE",
"600 414 LINE SMOOTH",
"600 526 OFFCURVE",
"536 570 OFFCURVE",
"441 570 CURVE SMOOTH",
"315 570 OFFCURVE",
"227 500 OFFCURVE",
"227 328 CURVE"
);
},
{
closed = 1;
nodes = (
"384 0 LINE",
"685 0 LINE",
"685 70 LINE",
"384 70 LINE"
);
}
);
width = 703;
},
{
layerId = "15B5FD12-AAB5-4088-829B-CB8139BF8816";
paths = (
{
closed = 1;
nodes = (
"100 0 LINE",
"250 0 LINE",
"250 385 LINE",
"246 385 LINE",
"246 560 LINE",
"100 560 LINE"
);
},
{
closed = 1;
nodes = (
"10 0 LINE",
"330 0 LINE",
"330 20 LINE",
"10 20 LINE"
);
},
{
closed = 1;
nodes = (
"25 540 LINE",
"246 540 LINE",
"246 560 LINE",
"25 560 LINE"
);
},
{
closed = 1;
nodes = (
"250 378 LINE",
"250 484 OFFCURVE",
"301 528 OFFCURVE",
"361 528 CURVE SMOOTH",
"406 528 OFFCURVE",
"432 500 OFFCURVE",
"432 450 CURVE SMOOTH",
"432 0 LINE",
"582 0 LINE",
"582 414 LINE SMOOTH",
"582 526 OFFCURVE",
"515 570 OFFCURVE",
"421 570 CURVE SMOOTH",
"312 570 OFFCURVE",
"230 509 OFFCURVE",
"230 378 CURVE"
);
},
{
closed = 1;
nodes = (
"352 0 LINE",
"657 0 LINE",
"657 20 LINE",
"352 20 LINE"
);
}
);
width = 661;
},
{
layerId = "CA54B7DC-FBBB-40FE-ACF3-AABDD76D6A7B";
paths = (
{
closed = 1;
nodes = (
"130 0 LINE",
"180 0 LINE",
"180 375 LINE",
"176 375 LINE",
"176 550 LINE",
"130 550 LINE"
);
},
{
closed = 1;
nodes = (
"20 0 LINE",
"290 0 LINE",
"290 20 LINE",
"20 20 LINE"
);
},
{
closed = 1;
nodes = (
"35 530 LINE",
"176 530 LINE",
"176 550 LINE",
"35 550 LINE"
);
},
{
closed = 1;
nodes = (
"180 298 LINE",
"180 465 OFFCURVE",
"272 536 OFFCURVE",
"371 536 CURVE SMOOTH",
"440 536 OFFCURVE",
"482 495 OFFCURVE",
"482 414 CURVE SMOOTH",
"482 0 LINE",
"532 0 LINE",
"532 414 LINE SMOOTH",
"532 519 OFFCURVE",
"465 560 OFFCURVE",
"375 560 CURVE SMOOTH",
"264 560 OFFCURVE",
"161 485 OFFCURVE",
"161 298 CURVE"
);
},
{
closed = 1;
nodes = (
"372 0 LINE",
"627 0 LINE",
"627 20 LINE",
"372 20 LINE"
);
}
);
width = 637;
}
);
leftKerningGroup = n;
leftMetricsKey = l;
rightKerningGroup = n;
unicode = 006E;
},
{
glyphname = o;
lastChange = "2020-05-07 14:10:19 +0000";
layers = (
{
layerId = "8E2477B1-6F82-4933-924D-A4D021D30CA2";
paths = (
{
closed = 1;
nodes = (
"486 -10 OFFCURVE",
"596 97 OFFCURVE",
"596 275 CURVE SMOOTH",
"596 453 OFFCURVE",
"486 560 OFFCURVE",
"330 560 CURVE SMOOTH",
"174 560 OFFCURVE",
"64 453 OFFCURVE",
"64 275 CURVE SMOOTH",
"64 97 OFFCURVE",
"174 -10 OFFCURVE",
"330 -10 CURVE SMOOTH"
);
},
{
closed = 1;
nodes = (
"206 30 OFFCURVE",
"116 123 OFFCURVE",
"116 275 CURVE SMOOTH",
"116 427 OFFCURVE",
"206 520 OFFCURVE",
"330 520 CURVE SMOOTH",
"454 520 OFFCURVE",
"544 427 OFFCURVE",
"544 275 CURVE SMOOTH",
"544 123 OFFCURVE",
"454 30 OFFCURVE",
"330 30 CURVE SMOOTH"
);
}
);
width = 660;
},
{
layerId = "38DA3315-22D6-4CA2-8458-CB7E0975637F";
paths = (
{
closed = 1;
nodes = (
"540 -10 OFFCURVE",
"666 95 OFFCURVE",
"666 280 CURVE SMOOTH",
"666 465 OFFCURVE",
"540 570 OFFCURVE",
"362 570 CURVE SMOOTH",
"184 570 OFFCURVE",
"58 465 OFFCURVE",
"58 280 CURVE SMOOTH",
"58 95 OFFCURVE",
"184 -10 OFFCURVE",
"362 -10 CURVE SMOOTH"
);
},
{
closed = 1;
nodes = (
"274 62 OFFCURVE",
"212 143 OFFCURVE",
"212 280 CURVE SMOOTH",
"212 417 OFFCURVE",
"274 498 OFFCURVE",
"362 498 CURVE SMOOTH",
"450 498 OFFCURVE",
"512 417 OFFCURVE",
"512 280 CURVE SMOOTH",
"512 143 OFFCURVE",
"450 62 OFFCURVE",
"362 62 CURVE SMOOTH"
);
}
);
width = 724;
},
{
layerId = "15B5FD12-AAB5-4088-829B-CB8139BF8816";
paths = (
{
closed = 1;
nodes = (
"519 -10 OFFCURVE",
"644 95 OFFCURVE",
"644 280 CURVE SMOOTH",
"644 465 OFFCURVE",
"519 570 OFFCURVE",
"342 570 CURVE SMOOTH",
"165 570 OFFCURVE",
"40 465 OFFCURVE",
"40 280 CURVE SMOOTH",
"40 95 OFFCURVE",
"165 -10 OFFCURVE",
"342 -10 CURVE SMOOTH"
);
},
{
closed = 1;
nodes = (
"256 9 OFFCURVE",
"196 110 OFFCURVE",
"196 280 CURVE SMOOTH",
"196 450 OFFCURVE",
"256 551 OFFCURVE",
"342 551 CURVE SMOOTH",
"428 551 OFFCURVE",
"488 450 OFFCURVE",
"488 280 CURVE SMOOTH",
"488 110 OFFCURVE",
"428 9 OFFCURVE",
"342 9 CURVE SMOOTH"
);
}
);
width = 684;
},
{
layerId = "CA54B7DC-FBBB-40FE-ACF3-AABDD76D6A7B";
paths = (
{
closed = 1;
nodes = (
"478 -10 OFFCURVE",
"588 93 OFFCURVE",
"588 275 CURVE SMOOTH",
"588 457 OFFCURVE",
"478 560 OFFCURVE",
"322 560 CURVE SMOOTH",
"166 560 OFFCURVE",
"56 457 OFFCURVE",
"56 275 CURVE SMOOTH",
"56 93 OFFCURVE",
"166 -10 OFFCURVE",
"322 -10 CURVE SMOOTH"
);
},
{
closed = 1;
nodes = (
"196 9 OFFCURVE",
"108 108 OFFCURVE",
"108 275 CURVE SMOOTH",
"108 442 OFFCURVE",
"196 541 OFFCURVE",
"322 541 CURVE SMOOTH",
"448 541 OFFCURVE",
"536 442 OFFCURVE",
"536 275 CURVE SMOOTH",
"536 108 OFFCURVE",
"448 9 OFFCURVE",
"322 9 CURVE SMOOTH"
);
}
);
width = 644;
}
);
leftKerningGroup = o;
rightKerningGroup = o;
unicode = 006F;
},
{
glyphname = p;
lastChange = "2020-05-07 14:10:54 +0000";
layers = (
{
layerId = "8E2477B1-6F82-4933-924D-A4D021D30CA2";
paths = (
{
closed = 1;
nodes = (
"345 -150 LINE",
"15 -150 LINE",
"15 -190 LINE",
"345 -190 LINE"
);
},
{
closed = 1;
nodes = (
"185 165 LINE",
"170 275 LINE",
"181 375 LINE",
"181 550 LINE",
"135 550 LINE",
"135 -190 LINE",
"185 -190 LINE"
);
},
{
closed = 1;
nodes = (
"30 510 LINE",
"181 510 LINE",
"181 550 LINE",
"30 550 LINE"
);
},
{
closed = 1;
nodes = (
"536 -10 OFFCURVE",
"639 97 OFFCURVE",
"639 275 CURVE SMOOTH",
"639 453 OFFCURVE",
"536 560 OFFCURVE",
"391 560 CURVE SMOOTH",
"241 560 OFFCURVE",
"147 453 OFFCURVE",
"147 275 CURVE SMOOTH",
"147 97 OFFCURVE",
"241 -10 OFFCURVE",
"391 -10 CURVE SMOOTH"
);
},
{
closed = 1;
nodes = (
"267 30 OFFCURVE",
"183 122 OFFCURVE",
"183 275 CURVE SMOOTH",
"183 428 OFFCURVE",
"267 520 OFFCURVE",
"387 520 CURVE SMOOTH",
"505 520 OFFCURVE",
"587 428 OFFCURVE",
"587 275 CURVE SMOOTH",
"587 122 OFFCURVE",
"505 30 OFFCURVE",
"387 30 CURVE SMOOTH"
);
}
);
width = 703;
},
{
layerId = "38DA3315-22D6-4CA2-8458-CB7E0975637F";
paths = (
{
closed = 1;
nodes = (
"408 -120 LINE",
"18 -120 LINE",
"18 -190 LINE",
"408 -190 LINE"
);
},
{
closed = 1;
nodes = (
"268 165 LINE",
"253 280 LINE",
"256 389 LINE",
"256 560 LINE",
"118 560 LINE",
"118 -190 LINE",
"268 -190 LINE"
);
},
{
closed = 1;
nodes = (
"33 490 LINE",
"256 490 LINE",
"256 560 LINE",
"33 560 LINE"
);
},
{
closed = 1;
nodes = (
"592 -10 OFFCURVE",
"698 97 OFFCURVE",
"698 280 CURVE SMOOTH",
"698 463 OFFCURVE",
"592 570 OFFCURVE",
"442 570 CURVE SMOOTH",
"291 570 OFFCURVE",
"206 463 OFFCURVE",
"206 280 CURVE SMOOTH",
"206 97 OFFCURVE",
"291 -10 OFFCURVE",
"442 -10 CURVE SMOOTH"
);
},
{
closed = 1;
nodes = (
"318 68 OFFCURVE",
"262 142 OFFCURVE",
"262 280 CURVE SMOOTH",
"262 418 OFFCURVE",
"318 492 OFFCURVE",
"404 492 CURVE SMOOTH",
"488 492 OFFCURVE",
"542 418 OFFCURVE",
"542 280 CURVE SMOOTH",
"542 142 OFFCURVE",
"488 68 OFFCURVE",
"404 68 CURVE SMOOTH"
);
}
);
width = 756;
},
{
layerId = "15B5FD12-AAB5-4088-829B-CB8139BF8816";
paths = (
{
closed = 1;
nodes = (
"380 -170 LINE",
"10 -170 LINE",
"10 -190 LINE",
"380 -190 LINE"
);
},
{
closed = 1;
nodes = (
"250 165 LINE",
"235 280 LINE",
"244 389 LINE",
"244 560 LINE",
"100 560 LINE",
"100 -190 LINE",
"250 -190 LINE"
);
},
{
closed = 1;
nodes = (
"25 540 LINE",
"244 540 LINE",
"244 560 LINE",
"25 560 LINE"
);
},
{
closed = 1;
nodes = (
"578 -10 OFFCURVE",
"680 97 OFFCURVE",
"680 280 CURVE SMOOTH",
"680 463 OFFCURVE",
"578 570 OFFCURVE",
"434 570 CURVE SMOOTH",
"290 570 OFFCURVE",
"226 480 OFFCURVE",
"226 280 CURVE SMOOTH",
"226 80 OFFCURVE",
"290 -10 OFFCURVE",
"434 -10 CURVE SMOOTH"
);
},
{
closed = 1;
nodes = (
"300 22 OFFCURVE",
"244 113 OFFCURVE",
"244 280 CURVE SMOOTH",
"244 447 OFFCURVE",
"300 538 OFFCURVE",
"386 538 CURVE SMOOTH",
"470 538 OFFCURVE",
"524 447 OFFCURVE",
"524 280 CURVE SMOOTH",
"524 113 OFFCURVE",
"470 22 OFFCURVE",
"386 22 CURVE SMOOTH"
);
}
);
width = 720;
},
{
layerId = "CA54B7DC-FBBB-40FE-ACF3-AABDD76D6A7B";
paths = (
{
closed = 1;
nodes = (
"316 -170 LINE",
"16 -170 LINE",
"16 -190 LINE",
"316 -190 LINE"
);
},
{
closed = 1;
nodes = (
"166 165 LINE",
"151 275 LINE",
"162 375 LINE",
"162 550 LINE",
"116 550 LINE",
"116 -190 LINE",
"166 -190 LINE"
);
},
{
closed = 1;
nodes = (
"26 530 LINE",
"162 530 LINE",
"162 550 LINE",
"26 550 LINE"
);
},
{
closed = 1;
nodes = (
"516 -10 OFFCURVE",
"620 97 OFFCURVE",
"620 275 CURVE SMOOTH",
"620 453 OFFCURVE",
"516 560 OFFCURVE",
"370 560 CURVE SMOOTH",
"228 560 OFFCURVE",
"142 453 OFFCURVE",
"142 275 CURVE SMOOTH",
"142 97 OFFCURVE",
"228 -10 OFFCURVE",
"370 -10 CURVE SMOOTH"
);
},
{
closed = 1;
nodes = (
"248 10 OFFCURVE",
"164 108 OFFCURVE",
"164 275 CURVE SMOOTH",
"164 442 OFFCURVE",
"248 540 OFFCURVE",
"368 540 CURVE SMOOTH",
"486 540 OFFCURVE",
"568 442 OFFCURVE",
"568 275 CURVE SMOOTH",
"568 108 OFFCURVE",
"486 10 OFFCURVE",
"368 10 CURVE SMOOTH"
);
}
);
width = 676;
}
);
leftKerningGroup = p;
rightKerningGroup = o;
rightMetricsKey = o;
unicode = 0070;
},
{
glyphname = q;
lastChange = "2020-05-07 14:11:21 +0000";
layers = (
{
layerId = "8E2477B1-6F82-4933-924D-A4D021D30CA2";
paths = (
{
closed = 1;
nodes = (
"678 -190 LINE",
"678 -150 LINE",
"358 -150 LINE",
"358 -190 LINE"
);
},
{
closed = 1;
nodes = (
"568 -190 LINE",
"568 550 LINE",
"522 550 LINE",
"522 375 LINE",
"533 275 LINE",
"518 165 LINE",
"518 -190 LINE"
);
},
{
closed = 1;
nodes = (
"462 -10 OFFCURVE",
"556 97 OFFCURVE",
"556 275 CURVE SMOOTH",
"556 453 OFFCURVE",
"462 560 OFFCURVE",
"312 560 CURVE SMOOTH",
"167 560 OFFCURVE",
"64 453 OFFCURVE",
"64 275 CURVE SMOOTH",
"64 97 OFFCURVE",
"167 -10 OFFCURVE",
"312 -10 CURVE SMOOTH"
);
},
{
closed = 1;
nodes = (
"198 30 OFFCURVE",
"116 122 OFFCURVE",
"116 275 CURVE SMOOTH",
"116 428 OFFCURVE",
"198 520 OFFCURVE",
"316 520 CURVE SMOOTH",
"436 520 OFFCURVE",
"520 428 OFFCURVE",
"520 275 CURVE SMOOTH",
"520 122 OFFCURVE",
"436 30 OFFCURVE",
"316 30 CURVE SMOOTH"
);
}
);
width = 682;
},
{
layerId = "38DA3315-22D6-4CA2-8458-CB7E0975637F";
paths = (
{
closed = 1;
nodes = (
"723 -190 LINE",
"723 -120 LINE",
"348 -120 LINE",
"348 -190 LINE"
);
},
{
closed = 1;
nodes = (
"638 -190 LINE",
"638 560 LINE",
"500 560 LINE",
"500 389 LINE",
"503 280 LINE",
"488 165 LINE",
"488 -190 LINE"
);
},
{
closed = 1;
nodes = (
"465 -10 OFFCURVE",
"550 97 OFFCURVE",
"550 280 CURVE SMOOTH",
"550 463 OFFCURVE",
"465 570 OFFCURVE",
"314 570 CURVE SMOOTH",
"164 570 OFFCURVE",
"58 463 OFFCURVE",
"58 280 CURVE SMOOTH",
"58 97 OFFCURVE",
"164 -10 OFFCURVE",
"314 -10 CURVE SMOOTH"
);
},
{
closed = 1;
nodes = (
"268 68 OFFCURVE",
"214 142 OFFCURVE",
"214 280 CURVE SMOOTH",
"214 418 OFFCURVE",
"268 492 OFFCURVE",
"352 492 CURVE SMOOTH",
"438 492 OFFCURVE",
"494 418 OFFCURVE",
"494 280 CURVE SMOOTH",
"494 142 OFFCURVE",
"438 68 OFFCURVE",
"352 68 CURVE SMOOTH"
);
}
);
width = 717;
},
{
layerId = "15B5FD12-AAB5-4088-829B-CB8139BF8816";
paths = (
{
closed = 1;
nodes = (
"700 -190 LINE",
"700 -170 LINE",
"340 -170 LINE",
"340 -190 LINE"
);
},
{
closed = 1;
nodes = (
"620 -190 LINE",
"620 560 LINE",
"476 560 LINE",
"476 389 LINE",
"485 280 LINE",
"470 165 LINE",
"470 -190 LINE"
);
},
{
closed = 1;
nodes = (
"430 -10 OFFCURVE",
"494 80 OFFCURVE",
"494 280 CURVE SMOOTH",
"494 480 OFFCURVE",
"430 570 OFFCURVE",
"286 570 CURVE SMOOTH",
"142 570 OFFCURVE",
"40 463 OFFCURVE",
"40 280 CURVE SMOOTH",
"40 97 OFFCURVE",
"142 -10 OFFCURVE",
"286 -10 CURVE SMOOTH"
);
},
{
closed = 1;
nodes = (
"250 22 OFFCURVE",
"196 113 OFFCURVE",
"196 280 CURVE SMOOTH",
"196 447 OFFCURVE",
"250 538 OFFCURVE",
"334 538 CURVE SMOOTH",
"420 538 OFFCURVE",
"476 447 OFFCURVE",
"476 280 CURVE SMOOTH",
"476 113 OFFCURVE",
"420 22 OFFCURVE",
"334 22 CURVE SMOOTH"
);
}
);
width = 688;
},
{
layerId = "CA54B7DC-FBBB-40FE-ACF3-AABDD76D6A7B";
paths = (
{
closed = 1;
nodes = (
"660 -190 LINE",
"660 -170 LINE",
"360 -170 LINE",
"360 -190 LINE"
);
},
{
closed = 1;
nodes = (
"560 -190 LINE",
"560 550 LINE",
"514 550 LINE",
"514 375 LINE",
"525 275 LINE",
"510 165 LINE",
"510 -190 LINE"
);
},
{
closed = 1;
nodes = (
"448 -10 OFFCURVE",
"534 97 OFFCURVE",
"534 275 CURVE SMOOTH",
"534 453 OFFCURVE",
"448 560 OFFCURVE",
"306 560 CURVE SMOOTH",
"160 560 OFFCURVE",
"56 453 OFFCURVE",
"56 275 CURVE SMOOTH",
"56 97 OFFCURVE",
"160 -10 OFFCURVE",
"306 -10 CURVE SMOOTH"
);
},
{
closed = 1;
nodes = (
"190 10 OFFCURVE",
"108 108 OFFCURVE",
"108 275 CURVE SMOOTH",
"108 442 OFFCURVE",
"190 540 OFFCURVE",
"308 540 CURVE SMOOTH",
"428 540 OFFCURVE",
"512 442 OFFCURVE",
"512 275 CURVE SMOOTH",
"512 108 OFFCURVE",
"428 10 OFFCURVE",
"308 10 CURVE SMOOTH"
);
}
);
width = 654;
}
);
leftKerningGroup = o;
leftMetricsKey = o;
rightKerningGroup = q;
unicode = 0071;
},
{
glyphname = r;
lastChange = "2020-05-07 14:22:31 +0000";
layers = (
{
layerId = "8E2477B1-6F82-4933-924D-A4D021D30CA2";
paths = (
{
closed = 1;
nodes = (
"150 0 LINE",
"200 0 LINE",
"200 385 LINE",
"194 385 LINE",
"194 550 LINE",
"150 550 LINE"
);
},
{
closed = 1;
nodes = (
"200 290 LINE",
"200 438 OFFCURVE",
"267 520 OFFCURVE",
"355 520 CURVE SMOOTH",
"398 520 OFFCURVE",
"427 497 OFFCURVE",
"427 451 CURVE SMOOTH",
"427 424 OFFCURVE",
"417 418 OFFCURVE",
"417 395 CURVE SMOOTH",
"417 378 OFFCURVE",
"427 366 OFFCURVE",
"447 366 CURVE SMOOTH",
"469 366 OFFCURVE",
"484 386 OFFCURVE",
"484 430 CURVE SMOOTH",
"484 509 OFFCURVE",
"437 558 OFFCURVE",
"357 558 CURVE SMOOTH",
"247 558 OFFCURVE",
"174 475 OFFCURVE",
"174 290 CURVE"
);
},
{
closed = 1;
nodes = (
"360 40 LINE",
"30 40 LINE",
"30 0 LINE",
"360 0 LINE"
);
},
{
closed = 1;
nodes = (
"45 510 LINE",
"194 510 LINE",
"194 550 LINE",
"45 550 LINE"
);
}
);
width = 532;
},
{
layerId = "38DA3315-22D6-4CA2-8458-CB7E0975637F";
paths = (
{
closed = 1;
nodes = (
"126 0 LINE",
"276 0 LINE",
"276 385 LINE",
"264 385 LINE",
"264 560 LINE",
"126 560 LINE"
);
},
{
closed = 1;
nodes = (
"276 320 LINE",
"276 425 OFFCURVE",
"320 484 OFFCURVE",
"377 487 CURVE SMOOTH",
"409 488 OFFCURVE",
"429 476 OFFCURVE",
"429 448 CURVE SMOOTH",
"429 431 OFFCURVE",
"422 422 OFFCURVE",
"422 398 CURVE SMOOTH",
"422 358 OFFCURVE",
"445 334 OFFCURVE",
"485 334 CURVE SMOOTH",
"534 334 OFFCURVE",
"564 375 OFFCURVE",
"564 439 CURVE SMOOTH",
"564 517 OFFCURVE",
"506 568 OFFCURVE",
"419 568 CURVE SMOOTH",
"288 568 OFFCURVE",
"240 479 OFFCURVE",
"240 320 CURVE"
);
},
{
closed = 1;
nodes = (
"416 70 LINE",
"26 70 LINE",
"26 0 LINE",
"416 0 LINE"
);
},
{
closed = 1;
nodes = (
"41 490 LINE",
"264 490 LINE",
"264 560 LINE",
"41 560 LINE"
);
}
);
width = 602;
},
{
layerId = "15B5FD12-AAB5-4088-829B-CB8139BF8816";
paths = (
{
closed = 1;
nodes = (
"100 0 LINE",
"250 0 LINE",
"250 385 LINE",
"242 385 LINE",
"242 560 LINE",
"100 560 LINE"
);
},
{
closed = 1;
nodes = (
"250 340 LINE",
"250 465 OFFCURVE",
"299 538 OFFCURVE",
"361 538 CURVE SMOOTH",
"393 538 OFFCURVE",
"411 519 OFFCURVE",
"411 487 CURVE SMOOTH",
"411 458 OFFCURVE",
"397 441 OFFCURVE",
"397 409 CURVE SMOOTH",
"397 371 OFFCURVE",
"420 348 OFFCURVE",
"460 348 CURVE SMOOTH",
"507 348 OFFCURVE",
"536 387 OFFCURVE",
"536 448 CURVE SMOOTH",
"536 521 OFFCURVE",
"484 568 OFFCURVE",
"403 568 CURVE SMOOTH",
"284 568 OFFCURVE",
"233 484 OFFCURVE",
"233 340 CURVE"
);
},
{
closed = 1;
nodes = (
"380 20 LINE",
"10 20 LINE",
"10 0 LINE",
"380 0 LINE"
);
},
{
closed = 1;
nodes = (
"25 540 LINE",
"242 540 LINE",
"242 560 LINE",
"25 560 LINE"
);
}
);
width = 548;
},
{
layerId = "CA54B7DC-FBBB-40FE-ACF3-AABDD76D6A7B";
paths = (
{
closed = 1;
nodes = (
"130 0 LINE",
"180 0 LINE",
"180 385 LINE",
"174 385 LINE",
"174 550 LINE",
"130 550 LINE"
);
},
{
closed = 1;
nodes = (
"180 310 LINE",
"180 457 OFFCURVE",
"254 536 OFFCURVE",
"335 536 CURVE SMOOTH",
"396 536 OFFCURVE",
"423 503 OFFCURVE",
"423 451 CURVE SMOOTH",
"423 423 OFFCURVE",
"413 412 OFFCURVE",
"413 388 CURVE SMOOTH",
"413 374 OFFCURVE",
"420 366 OFFCURVE",
"433 366 CURVE SMOOTH",
"452 366 OFFCURVE",
"464 388 OFFCURVE",
"464 430 CURVE SMOOTH",
"464 516 OFFCURVE",
"411 558 OFFCURVE",
"337 558 CURVE SMOOTH",
"242 558 OFFCURVE",
"162 481 OFFCURVE",
"162 310 CURVE"
);
},
{
closed = 1;
nodes = (
"330 20 LINE",
"20 20 LINE",
"20 0 LINE",
"330 0 LINE"
);
},
{
closed = 1;
nodes = (
"35 530 LINE",
"174 530 LINE",
"174 550 LINE",
"35 550 LINE"
);
}
);
width = 500;
}
);
leftKerningGroup = n;
leftMetricsKey = n;
rightKerningGroup = r;
unicode = 0072;
},
{
glyphname = s;
lastChange = "2020-05-07 14:09:21 +0000";
layers = (
{
layerId = "8E2477B1-6F82-4933-924D-A4D021D30CA2";
paths = (
{
closed = 1;
nodes = (
"86 320 OFFCURVE",
"159 284 OFFCURVE",
"254 263 CURVE SMOOTH",
"317 249 LINE SMOOTH",
"385 234 OFFCURVE",
"450 210 OFFCURVE",
"450 138 CURVE SMOOTH",
"450 66 OFFCURVE",
"398 29 OFFCURVE",
"316 29 CURVE SMOOTH",
"231 29 OFFCURVE",
"163 66 OFFCURVE",
"124 170 CURVE",
"90 170 LINE",
"122 38 OFFCURVE",
"213 -10 OFFCURVE",
"318 -10 CURVE SMOOTH",
"422 -10 OFFCURVE",
"496 46 OFFCURVE",
"496 144 CURVE SMOOTH",
"496 241 OFFCURVE",
"418 275 OFFCURVE",
"327 295 CURVE SMOOTH",
"263 309 LINE SMOOTH",
"189 325 OFFCURVE",
"132 351 OFFCURVE",
"132 419 CURVE SMOOTH",
"132 487 OFFCURVE",
"185 521 OFFCURVE",
"260 521 CURVE SMOOTH",
"334 521 OFFCURVE",
"409 487 OFFCURVE",
"439 390 CURVE",
"474 390 LINE",
"452 508 OFFCURVE",
"361 560 OFFCURVE",
"260 560 CURVE SMOOTH",
"162 560 OFFCURVE",
"86 511 OFFCURVE",
"86 413 CURVE SMOOTH"
);
},
{
closed = 1;
nodes = (
"437 550 LINE",
"437 444 LINE",
"474 390 LINE",
"477 390 LINE",
"477 550 LINE"
);
},
{
closed = 1;
nodes = (
"126 0 LINE",
"126 130 LINE",
"90 170 LINE",
"86 170 LINE",
"86 0 LINE"
);
}
);
width = 570;
},
{
layerId = "38DA3315-22D6-4CA2-8458-CB7E0975637F";
paths = (
{
closed = 1;
nodes = (
"70 288 OFFCURVE",
"142 228 OFFCURVE",
"273 210 CURVE SMOOTH",
"318 204 LINE SMOOTH",
"374 197 OFFCURVE",
"409 178 OFFCURVE",
"409 132 CURVE SMOOTH",
"409 84 OFFCURVE",
"372 58 OFFCURVE",
"313 58 CURVE SMOOTH",
"239 58 OFFCURVE",
"180 91 OFFCURVE",
"146 180 CURVE",
"89 180 LINE",
"115 40 OFFCURVE",
"215 -10 OFFCURVE",
"322 -10 CURVE SMOOTH",
"442 -10 OFFCURVE",
"524 60 OFFCURVE",
"524 179 CURVE SMOOTH",
"524 300 OFFCURVE",
"428 342 OFFCURVE",
"317 357 CURVE SMOOTH",
"272 363 LINE SMOOTH",
"216 370 OFFCURVE",
"184 390 OFFCURVE",
"184 433 CURVE SMOOTH",
"184 479 OFFCURVE",
"222 502 OFFCURVE",
"275 502 CURVE SMOOTH",
"338 502 OFFCURVE",
"402 474 OFFCURVE",
"428 390 CURVE",
"488 390 LINE",
"466 519 OFFCURVE",
"371 570 OFFCURVE",
"268 570 CURVE SMOOTH",
"155 570 OFFCURVE",
"70 506 OFFCURVE",
"70 397 CURVE SMOOTH"
);
},
{
closed = 1;
nodes = (
"432 560 LINE",
"432 429 LINE",
"488 390 LINE",
"500 390 LINE",
"500 560 LINE"
);
},
{
closed = 1;
nodes = (
"142 0 LINE",
"142 145 LINE",
"89 180 LINE",
"74 180 LINE",
"74 0 LINE"
);
}
);
width = 586;
},
{
layerId = "15B5FD12-AAB5-4088-829B-CB8139BF8816";
paths = (
{
closed = 1;
nodes = (
"56 294 OFFCURVE",
"142 240 OFFCURVE",
"266 213 CURVE SMOOTH",
"298 206 LINE SMOOTH",
"355 194 OFFCURVE",
"409 172 OFFCURVE",
"409 111 CURVE SMOOTH",
"409 46 OFFCURVE",
"358 14 OFFCURVE",
"276 14 CURVE SMOOTH",
"190 14 OFFCURVE",
"120 53 OFFCURVE",
"80 165 CURVE",
"62 165 LINE",
"94 37 OFFCURVE",
"188 -10 OFFCURVE",
"295 -10 CURVE SMOOTH",
"410 -10 OFFCURVE",
"488 55 OFFCURVE",
"488 172 CURVE SMOOTH",
"488 289 OFFCURVE",
"395 329 OFFCURVE",
"278 355 CURVE SMOOTH",
"246 362 LINE SMOOTH",
"184 376 OFFCURVE",
"135 397 OFFCURVE",
"135 451 CURVE SMOOTH",
"135 516 OFFCURVE",
"187 546 OFFCURVE",
"262 546 CURVE SMOOTH",
"339 546 OFFCURVE",
"415 512 OFFCURVE",
"446 405 CURVE",
"465 405 LINE",
"440 522 OFFCURVE",
"348 570 OFFCURVE",
"245 570 CURVE SMOOTH",
"136 570 OFFCURVE",
"56 508 OFFCURVE",
"56 397 CURVE SMOOTH"
);
},
{
closed = 1;
nodes = (
"446 560 LINE",
"446 444 LINE",
"465 405 LINE",
"468 405 LINE",
"468 560 LINE"
);
},
{
closed = 1;
nodes = (
"80 0 LINE",
"80 130 LINE",
"62 165 LINE",
"58 165 LINE",
"58 0 LINE"
);
}
);
width = 532;
},
{
layerId = "CA54B7DC-FBBB-40FE-ACF3-AABDD76D6A7B";
paths = (
{
closed = 1;
nodes = (
"78 328 OFFCURVE",
"143 285 OFFCURVE",
"241 264 CURVE SMOOTH",
"304 250 LINE SMOOTH",
"375 234 OFFCURVE",
"438 207 OFFCURVE",
"438 130 CURVE SMOOTH",
"438 51 OFFCURVE",
"386 11 OFFCURVE",
"302 11 CURVE SMOOTH",
"212 11 OFFCURVE",
"140 51 OFFCURVE",
"98 165 CURVE",
"80 165 LINE",
"112 37 OFFCURVE",
"201 -10 OFFCURVE",
"304 -10 CURVE SMOOTH",
"407 -10 OFFCURVE",
"476 43 OFFCURVE",
"476 141 CURVE SMOOTH",
"476 239 OFFCURVE",
"403 273 OFFCURVE",
"312 294 CURVE SMOOTH",
"250 308 LINE SMOOTH",
"175 325 OFFCURVE",
"116 354 OFFCURVE",
"116 426 CURVE SMOOTH",
"116 502 OFFCURVE",
"170 539 OFFCURVE",
"246 539 CURVE SMOOTH",
"325 539 OFFCURVE",
"404 502 OFFCURVE",
"437 395 CURVE",
"456 395 LINE",
"432 510 OFFCURVE",
"345 560 OFFCURVE",
"246 560 CURVE SMOOTH",
"149 560 OFFCURVE",
"78 508 OFFCURVE",
"78 416 CURVE SMOOTH"
);
},
{
closed = 1;
nodes = (
"437 550 LINE",
"437 434 LINE",
"456 395 LINE",
"459 395 LINE",
"459 550 LINE"
);
},
{
closed = 1;
nodes = (
"98 0 LINE",
"98 130 LINE",
"80 165 LINE",
"76 165 LINE",
"76 0 LINE"
);
}
);
width = 540;
}
);
leftKerningGroup = s;
rightKerningGroup = s;
unicode = 0073;
},
{
glyphname = t;
lastChange = "2020-05-07 14:11:54 +0000";
layers = (
{
layerId = "8E2477B1-6F82-4933-924D-A4D021D30CA2";
paths = (
{
closed = 1;
nodes = (
"165 640 LINE SMOOTH",
"165 573 OFFCURVE",
"148 546 OFFCURVE",
"68 546 CURVE SMOOTH",
"24 546 LINE",
"24 510 LINE",
"159 510 LINE",
"159 118 LINE SMOOTH",
"159 36 OFFCURVE",
"204 -10 OFFCURVE",
"280 -10 CURVE SMOOTH",
"356 -10 OFFCURVE",
"397 36 OFFCURVE",
"397 114 CURVE SMOOTH",
"397 134 LINE",
"355 134 LINE",
"355 112 LINE SMOOTH",
"355 59 OFFCURVE",
"331 30 OFFCURVE",
"282 30 CURVE SMOOTH",
"233 30 OFFCURVE",
"209 59 OFFCURVE",
"209 112 CURVE SMOOTH",
"209 680 LINE",
"165 680 LINE"
);
},
{
closed = 1;
nodes = (
"209 510 LINE",
"423 510 LINE",
"423 550 LINE",
"209 550 LINE"
);
}
);
width = 463;
},
{
layerId = "38DA3315-22D6-4CA2-8458-CB7E0975637F";
paths = (
{
closed = 1;
nodes = (
"202 690 LINE SMOOTH",
"202 594 OFFCURVE",
"178 556 OFFCURVE",
"65 556 CURVE SMOOTH",
"6 556 LINE",
"6 490 LINE",
"126 490 LINE",
"126 168 LINE SMOOTH",
"126 54 OFFCURVE",
"191 -10 OFFCURVE",
"301 -10 CURVE SMOOTH",
"400 -10 OFFCURVE",
"454 47 OFFCURVE",
"454 144 CURVE SMOOTH",
"454 184 LINE",
"382 184 LINE",
"382 142 LINE SMOOTH",
"382 98 OFFCURVE",
"365 74 OFFCURVE",
"329 74 CURVE SMOOTH",
"293 74 OFFCURVE",
"276 98 OFFCURVE",
"276 142 CURVE SMOOTH",
"276 720 LINE",
"202 720 LINE"
);
},
{
closed = 1;
nodes = (
"276 490 LINE",
"470 490 LINE",
"470 560 LINE",
"276 560 LINE"
);
}
);
width = 496;
},
{
layerId = "15B5FD12-AAB5-4088-829B-CB8139BF8816";
paths = (
{
closed = 1;
nodes = (
"246 710 LINE SMOOTH",
"246 593 OFFCURVE",
"213 558 OFFCURVE",
"85 558 CURVE SMOOTH",
"4 558 LINE",
"4 540 LINE",
"116 540 LINE",
"116 174 LINE SMOOTH",
"116 53 OFFCURVE",
"178 -10 OFFCURVE",
"275 -10 CURVE SMOOTH",
"376 -10 OFFCURVE",
"430 51 OFFCURVE",
"430 152 CURVE SMOOTH",
"430 174 LINE",
"410 174 LINE",
"410 152 LINE SMOOTH",
"410 93 OFFCURVE",
"386 60 OFFCURVE",
"338 60 CURVE SMOOTH",
"290 60 OFFCURVE",
"266 93 OFFCURVE",
"266 152 CURVE SMOOTH",
"266 720 LINE",
"246 720 LINE"
);
},
{
closed = 1;
nodes = (
"266 540 LINE",
"448 540 LINE",
"448 560 LINE",
"266 560 LINE"
);
}
);
width = 460;
},
{
layerId = "CA54B7DC-FBBB-40FE-ACF3-AABDD76D6A7B";
paths = (
{
closed = 1;
nodes = (
"171 640 LINE SMOOTH",
"171 574 OFFCURVE",
"155 548 OFFCURVE",
"70 548 CURVE SMOOTH",
"6 548 LINE",
"6 530 LINE",
"141 530 LINE",
"141 134 LINE SMOOTH",
"141 39 OFFCURVE",
"187 -10 OFFCURVE",
"265 -10 CURVE SMOOTH",
"342 -10 OFFCURVE",
"381 38 OFFCURVE",
"381 118 CURVE SMOOTH",
"381 134 LINE",
"361 134 LINE",
"361 118 LINE SMOOTH",
"361 52 OFFCURVE",
"333 16 OFFCURVE",
"276 16 CURVE SMOOTH",
"219 16 OFFCURVE",
"191 52 OFFCURVE",
"191 118 CURVE SMOOTH",
"191 680 LINE",
"171 680 LINE"
);
},
{
closed = 1;
nodes = (
"191 530 LINE",
"401 530 LINE",
"401 550 LINE",
"191 550 LINE"
);
}
);
width = 425;
}
);
leftKerningGroup = t;
rightKerningGroup = t;
unicode = 0074;
},
{
glyphname = u;
lastChange = "2020-05-07 14:08:30 +0000";
layers = (
{
layerId = "8E2477B1-6F82-4933-924D-A4D021D30CA2";
paths = (
{
closed = 1;
nodes = (
"475 252 LINE",
"475 91 OFFCURVE",
"384 32 OFFCURVE",
"286 32 CURVE SMOOTH",
"217 32 OFFCURVE",
"175 68 OFFCURVE",
"175 144 CURVE SMOOTH",
"175 550 LINE",
"125 550 LINE",
"125 136 LINE SMOOTH",
"125 31 OFFCURVE",
"192 -10 OFFCURVE",
"282 -10 CURVE SMOOTH",
"414 -10 OFFCURVE",
"504 69 OFFCURVE",
"504 252 CURVE"
);
},
{
closed = 1;
nodes = (
"475 138 LINE",
"479 138 LINE",
"479 88 LINE SMOOTH",
"479 23 OFFCURVE",
"513 -8 OFFCURVE",
"564 -8 CURVE SMOOTH",
"615 -8 OFFCURVE",
"645 23 OFFCURVE",
"645 78 CURVE SMOOTH",
"645 96 LINE",
"603 96 LINE",
"603 76 LINE SMOOTH",
"603 49 OFFCURVE",
"590 32 OFFCURVE",
"564 32 CURVE SMOOTH",
"540 32 OFFCURVE",
"525 49 OFFCURVE",
"525 76 CURVE SMOOTH",
"525 550 LINE",
"475 550 LINE"
);
},
{
closed = 1;
nodes = (
"525 550 LINE",
"355 550 LINE",
"355 510 LINE",
"525 510 LINE"
);
},
{
closed = 1;
nodes = (
"175 550 LINE",
"20 550 LINE",
"20 510 LINE",
"175 510 LINE"
);
}
);
width = 669;
},
{
layerId = "38DA3315-22D6-4CA2-8458-CB7E0975637F";
paths = (
{
closed = 1;
nodes = (
"440 232 LINE",
"440 125 OFFCURVE",
"389 80 OFFCURVE",
"327 80 CURVE SMOOTH",
"281 80 OFFCURVE",
"253 107 OFFCURVE",
"253 160 CURVE SMOOTH",
"253 560 LINE",
"103 560 LINE",
"103 156 LINE SMOOTH",
"103 37 OFFCURVE",
"181 -10 OFFCURVE",
"291 -10 CURVE SMOOTH",
"411 -10 OFFCURVE",
"495 60 OFFCURVE",
"495 232 CURVE"
);
},
{
closed = 1;
nodes = (
"440 165 LINE",
"456 165 LINE",
"456 140 LINE SMOOTH",
"456 40 OFFCURVE",
"502 -10 OFFCURVE",
"597 -10 CURVE SMOOTH",
"682 -10 OFFCURVE",
"726 40 OFFCURVE",
"726 116 CURVE SMOOTH",
"726 135 LINE",
"656 135 LINE",
"656 116 LINE SMOOTH",
"656 92 OFFCURVE",
"646 76 OFFCURVE",
"623 76 CURVE SMOOTH",
"600 76 OFFCURVE",
"590 92 OFFCURVE",
"590 116 CURVE SMOOTH",
"590 560 LINE",
"440 560 LINE"
);
},
{
closed = 1;
nodes = (
"590 560 LINE",
"340 560 LINE",
"340 490 LINE",
"590 490 LINE"
);
},
{
closed = 1;
nodes = (
"253 560 LINE",
"18 560 LINE",
"18 490 LINE",
"253 490 LINE"
);
}
);
width = 730;
},
{
layerId = "15B5FD12-AAB5-4088-829B-CB8139BF8816";
paths = (
{
closed = 1;
nodes = (
"416 182 LINE",
"416 76 OFFCURVE",
"363 32 OFFCURVE",
"300 32 CURVE SMOOTH",
"255 32 OFFCURVE",
"229 60 OFFCURVE",
"229 110 CURVE SMOOTH",
"229 560 LINE",
"79 560 LINE",
"79 146 LINE SMOOTH",
"79 34 OFFCURVE",
"146 -10 OFFCURVE",
"240 -10 CURVE SMOOTH",
"352 -10 OFFCURVE",
"436 51 OFFCURVE",
"436 182 CURVE"
);
},
{
closed = 1;
nodes = (
"416 165 LINE",
"424 165 LINE",
"424 114 LINE SMOOTH",
"424 30 OFFCURVE",
"477 -10 OFFCURVE",
"545 -10 CURVE SMOOTH",
"613 -10 OFFCURVE",
"664 30 OFFCURVE",
"664 104 CURVE SMOOTH",
"664 130 LINE",
"644 130 LINE",
"644 104 LINE SMOOTH",
"644 75 OFFCURVE",
"632 56 OFFCURVE",
"605 56 CURVE SMOOTH",
"578 56 OFFCURVE",
"566 75 OFFCURVE",
"566 104 CURVE SMOOTH",
"566 560 LINE",
"416 560 LINE"
);
},
{
closed = 1;
nodes = (
"566 560 LINE",
"326 560 LINE",
"326 540 LINE",
"566 540 LINE"
);
},
{
closed = 1;
nodes = (
"229 560 LINE",
"4 560 LINE",
"4 540 LINE",
"229 540 LINE"
);
}
);
width = 668;
},
{
layerId = "CA54B7DC-FBBB-40FE-ACF3-AABDD76D6A7B";
paths = (
{
closed = 1;
nodes = (
"455 252 LINE",
"455 85 OFFCURVE",
"364 16 OFFCURVE",
"266 16 CURVE SMOOTH",
"197 16 OFFCURVE",
"155 55 OFFCURVE",
"155 136 CURVE SMOOTH",
"155 550 LINE",
"105 550 LINE",
"105 136 LINE SMOOTH",
"105 31 OFFCURVE",
"172 -10 OFFCURVE",
"262 -10 CURVE SMOOTH",
"372 -10 OFFCURVE",
"474 65 OFFCURVE",
"474 252 CURVE"
);
},
{
closed = 1;
nodes = (
"455 165 LINE",
"459 165 LINE",
"459 90 LINE SMOOTH",
"459 18 OFFCURVE",
"498 -10 OFFCURVE",
"543 -10 CURVE SMOOTH",
"590 -10 OFFCURVE",
"615 21 OFFCURVE",
"615 76 CURVE SMOOTH",
"615 96 LINE",
"595 96 LINE",
"595 76 LINE SMOOTH",
"595 37 OFFCURVE",
"581 12 OFFCURVE",
"550 12 CURVE SMOOTH",
"519 12 OFFCURVE",
"505 37 OFFCURVE",
"505 76 CURVE SMOOTH",
"505 550 LINE",
"455 550 LINE"
);
},
{
closed = 1;
nodes = (
"505 550 LINE",
"345 550 LINE",
"345 530 LINE",
"505 530 LINE"
);
},
{
closed = 1;
nodes = (
"155 550 LINE",
"10 550 LINE",
"10 530 LINE",
"155 530 LINE"
);
}
);
width = 633;
}
);
leftKerningGroup = u;
rightKerningGroup = u;
unicode = 0075;
},
{
glyphname = v;
lastChange = "2020-05-07 14:22:40 +0000";
layers = (
{
layerId = "8E2477B1-6F82-4933-924D-A4D021D30CA2";
paths = (
{
closed = 1;
nodes = (
"498 510 LINE",
"452 510 LINE",
"277 25 LINE",
"275 0 LINE",
"312 0 LINE"
);
},
{
closed = 1;
nodes = (
"285 0 LINE",
"300 50 LINE",
"135 510 LINE",
"84 510 LINE",
"270 0 LINE"
);
},
{
closed = 1;
nodes = (
"568 550 LINE",
"357 550 LINE",
"357 510 LINE",
"568 510 LINE"
);
},
{
closed = 1;
nodes = (
"235 550 LINE",
"14 550 LINE",
"14 510 LINE",
"235 510 LINE"
);
}
);
width = 582;
},
{
layerId = "38DA3315-22D6-4CA2-8458-CB7E0975637F";
paths = (
{
closed = 1;
nodes = (
"558 490 LINE",
"483 490 LINE",
"300 32 LINE",
"325 0 LINE",
"362 0 LINE"
);
},
{
closed = 1;
nodes = (
"335 0 LINE",
"376 149 LINE",
"236 490 LINE",
"74 490 LINE",
"290 0 LINE"
);
},
{
closed = 1;
nodes = (
"618 560 LINE",
"398 560 LINE",
"398 490 LINE",
"618 490 LINE"
);
},
{
closed = 1;
nodes = (
"326 560 LINE",
"14 560 LINE",
"14 490 LINE",
"326 490 LINE"
);
}
);
width = 632;
},
{
layerId = "15B5FD12-AAB5-4088-829B-CB8139BF8816";
paths = (
{
closed = 1;
nodes = (
"530 540 LINE",
"506 540 LINE",
"304 25 LINE",
"302 0 LINE",
"317 0 LINE"
);
},
{
closed = 1;
nodes = (
"310 0 LINE",
"377 166 LINE",
"223 540 LINE",
"62 540 LINE",
"295 0 LINE"
);
},
{
closed = 1;
nodes = (
"590 560 LINE",
"411 560 LINE",
"411 540 LINE",
"590 540 LINE"
);
},
{
closed = 1;
nodes = (
"323 560 LINE",
"2 560 LINE",
"2 540 LINE",
"323 540 LINE"
);
}
);
width = 592;
},
{
layerId = "CA54B7DC-FBBB-40FE-ACF3-AABDD76D6A7B";
paths = (
{
closed = 1;
nodes = (
"484 530 LINE",
"461 530 LINE",
"277 25 LINE",
"274 0 LINE",
"289 0 LINE"
);
},
{
closed = 1;
nodes = (
"284 0 LINE",
"299 50 LINE",
"125 530 LINE",
"74 530 LINE",
"269 0 LINE"
);
},
{
closed = 1;
nodes = (
"554 550 LINE",
"356 550 LINE",
"356 530 LINE",
"554 530 LINE"
);
},
{
closed = 1;
nodes = (
"235 550 LINE",
"4 550 LINE",
"4 530 LINE",
"235 530 LINE"
);
}
);
width = 558;
}
);
leftKerningGroup = v;
rightKerningGroup = v;
unicode = 0076;
},
{
glyphname = w;
lastChange = "2020-05-07 14:22:43 +0000";
layers = (
{
layerId = "8E2477B1-6F82-4933-924D-A4D021D30CA2";
paths = (
{
closed = 1;
nodes = (
"423 449 LINE",
"387 477 LINE",
"248 25 LINE",
"247 0 LINE",
"284 0 LINE"
);
},
{
closed = 1;
nodes = (
"257 0 LINE",
"274 49 LINE",
"134 510 LINE",
"84 510 LINE",
"242 0 LINE"
);
},
{
closed = 1;
nodes = (
"513 550 LINE",
"14 550 LINE",
"14 510 LINE",
"513 510 LINE"
);
},
{
closed = 1;
nodes = (
"726 510 LINE",
"681 510 LINE",
"532 25 LINE",
"531 0 LINE",
"568 0 LINE"
);
},
{
closed = 1;
nodes = (
"541 0 LINE",
"558 49 LINE",
"418 510 LINE",
"368 510 LINE",
"526 0 LINE"
);
},
{
closed = 1;
nodes = (
"796 550 LINE",
"591 550 LINE",
"591 510 LINE",
"796 510 LINE"
);
}
);
width = 810;
},
{
layerId = "38DA3315-22D6-4CA2-8458-CB7E0975637F";
paths = (
{
closed = 1;
nodes = (
"502 490 LINE",
"428 490 LINE",
"274 33 LINE",
"299 0 LINE",
"336 0 LINE"
);
},
{
closed = 1;
nodes = (
"305 0 LINE",
"350 149 LINE",
"233 490 LINE",
"74 490 LINE",
"260 0 LINE"
);
},
{
closed = 1;
nodes = (
"613 560 LINE",
"14 560 LINE",
"14 490 LINE",
"613 490 LINE"
);
},
{
closed = 1;
nodes = (
"822 490 LINE",
"748 490 LINE",
"594 33 LINE",
"619 0 LINE",
"656 0 LINE"
);
},
{
closed = 1;
nodes = (
"625 0 LINE",
"670 149 LINE",
"553 490 LINE",
"394 490 LINE",
"580 0 LINE"
);
},
{
closed = 1;
nodes = (
"882 560 LINE",
"693 560 LINE",
"693 490 LINE",
"882 490 LINE"
);
}
);
width = 896;
},
{
layerId = "15B5FD12-AAB5-4088-829B-CB8139BF8816";
paths = (
{
closed = 1;
nodes = (
"472 540 LINE",
"449 540 LINE",
"275 28 LINE",
"274 0 LINE",
"289 0 LINE"
);
},
{
closed = 1;
nodes = (
"280 0 LINE",
"346 186 LINE",
"220 540 LINE",
"62 540 LINE",
"265 0 LINE"
);
},
{
closed = 1;
nodes = (
"622 560 LINE",
"2 560 LINE",
"2 540 LINE",
"622 540 LINE"
);
},
{
closed = 1;
nodes = (
"804 540 LINE",
"781 540 LINE",
"607 28 LINE",
"606 0 LINE",
"621 0 LINE"
);
},
{
closed = 1;
nodes = (
"612 0 LINE",
"678 186 LINE",
"552 540 LINE",
"394 540 LINE",
"597 0 LINE"
);
},
{
closed = 1;
nodes = (
"862 560 LINE",
"714 560 LINE",
"716 540 LINE",
"864 540 LINE"
);
}
);
width = 866;
},
{
layerId = "CA54B7DC-FBBB-40FE-ACF3-AABDD76D6A7B";
paths = (
{
closed = 1;
nodes = (
"406 460 LINE",
"392 488 LINE",
"248 25 LINE",
"246 0 LINE",
"261 0 LINE"
);
},
{
closed = 1;
nodes = (
"256 0 LINE",
"272 54 LINE",
"124 530 LINE",
"74 530 LINE",
"241 0 LINE"
);
},
{
closed = 1;
nodes = (
"519 550 LINE",
"4 550 LINE",
"4 530 LINE",
"519 530 LINE"
);
},
{
closed = 1;
nodes = (
"710 530 LINE",
"687 530 LINE",
"530 25 LINE",
"528 0 LINE",
"543 0 LINE"
);
},
{
closed = 1;
nodes = (
"538 0 LINE",
"554 54 LINE",
"406 530 LINE",
"356 530 LINE",
"523 0 LINE"
);
},
{
closed = 1;
nodes = (
"780 550 LINE",
"587 550 LINE",
"587 530 LINE",
"780 530 LINE"
);
}
);
width = 784;
}
);
leftKerningGroup = w;
leftMetricsKey = v;
rightKerningGroup = w;
rightMetricsKey = v;
unicode = 0077;
},
{
glyphname = x;
lastChange = "2020-05-07 14:12:30 +0000";
layers = (
{
layerId = "8E2477B1-6F82-4933-924D-A4D021D30CA2";
paths = (
{
closed = 1;
nodes = (
"334 294 LINE",
"176 510 LINE",
"116 510 LINE",
"309 251 LINE"
);
},
{
closed = 1;
nodes = (
"276 550 LINE",
"46 550 LINE",
"46 510 LINE",
"276 510 LINE"
);
},
{
closed = 1;
nodes = (
"312 256 LINE",
"470 40 LINE",
"530 40 LINE",
"337 299 LINE"
);
},
{
closed = 1;
nodes = (
"600 40 LINE",
"370 40 LINE",
"370 0 LINE",
"600 0 LINE"
);
},
{
closed = 1;
nodes = (
"329 257 LINE",
"518 510 LINE",
"465 510 LINE",
"297 285 LINE"
);
},
{
closed = 1;
nodes = (
"588 550 LINE",
"370 550 LINE",
"370 510 LINE",
"588 510 LINE"
);
},
{
closed = 1;
nodes = (
"293 293 LINE",
"104 40 LINE",
"157 40 LINE",
"325 265 LINE"
);
},
{
closed = 1;
nodes = (
"252 40 LINE",
"34 40 LINE",
"34 0 LINE",
"252 0 LINE"
);
}
);
width = 634;
},
{
layerId = "38DA3315-22D6-4CA2-8458-CB7E0975637F";
paths = (
{
closed = 1;
nodes = (
"400 299 LINE",
"262 490 LINE",
"78 490 LINE",
"251 256 LINE"
);
},
{
closed = 1;
nodes = (
"337 560 LINE",
"18 560 LINE",
"18 490 LINE",
"337 490 LINE"
);
},
{
closed = 1;
nodes = (
"258 261 LINE",
"396 70 LINE",
"580 70 LINE",
"407 304 LINE"
);
},
{
closed = 1;
nodes = (
"640 70 LINE",
"321 70 LINE",
"321 0 LINE",
"640 0 LINE"
);
},
{
closed = 1;
nodes = (
"355 232 LINE",
"566 490 LINE",
"476 490 LINE",
"291 260 LINE"
);
},
{
closed = 1;
nodes = (
"626 560 LINE",
"406 560 LINE",
"406 490 LINE",
"626 490 LINE"
);
},
{
closed = 1;
nodes = (
"295 328 LINE",
"84 70 LINE",
"174 70 LINE",
"359 300 LINE"
);
},
{
closed = 1;
nodes = (
"244 70 LINE",
"24 70 LINE",
"24 0 LINE",
"244 0 LINE"
);
}
);
width = 656;
},
{
layerId = "15B5FD12-AAB5-4088-829B-CB8139BF8816";
paths = (
{
closed = 1;
nodes = (
"370 339 LINE",
"242 540 LINE",
"68 540 LINE",
"263 239 LINE"
);
},
{
closed = 1;
nodes = (
"332 560 LINE",
"8 560 LINE",
"8 540 LINE",
"332 540 LINE"
);
},
{
closed = 1;
nodes = (
"263 239 LINE",
"404 20 LINE",
"578 20 LINE",
"370 339 LINE"
);
},
{
closed = 1;
nodes = (
"638 20 LINE",
"314 20 LINE",
"314 0 LINE",
"638 0 LINE"
);
},
{
closed = 1;
nodes = (
"319 244 LINE",
"530 540 LINE",
"503 540 LINE",
"312 272 LINE"
);
},
{
closed = 1;
nodes = (
"590 560 LINE",
"418 560 LINE",
"418 540 LINE",
"590 540 LINE"
);
},
{
closed = 1;
nodes = (
"299 316 LINE",
"88 20 LINE",
"115 20 LINE",
"306 288 LINE"
);
},
{
closed = 1;
nodes = (
"200 20 LINE",
"28 20 LINE",
"28 0 LINE",
"200 0 LINE"
);
}
);
width = 642;
},
{
layerId = "CA54B7DC-FBBB-40FE-ACF3-AABDD76D6A7B";
paths = (
{
closed = 1;
nodes = (
"320 294 LINE",
"156 530 LINE",
"96 530 LINE",
"287 262 LINE"
);
},
{
closed = 1;
nodes = (
"256 550 LINE",
"26 550 LINE",
"26 530 LINE",
"256 530 LINE"
);
},
{
closed = 1;
nodes = (
"286 268 LINE",
"458 20 LINE",
"518 20 LINE",
"319 299 LINE"
);
},
{
closed = 1;
nodes = (
"588 20 LINE",
"358 20 LINE",
"358 0 LINE",
"588 0 LINE"
);
},
{
closed = 1;
nodes = (
"301 257 LINE",
"496 530 LINE",
"469 530 LINE",
"295 285 LINE"
);
},
{
closed = 1;
nodes = (
"566 550 LINE",
"374 550 LINE",
"374 530 LINE",
"566 530 LINE"
);
},
{
closed = 1;
nodes = (
"296 303 LINE",
"94 20 LINE",
"121 20 LINE",
"302 275 LINE"
);
},
{
closed = 1;
nodes = (
"216 20 LINE",
"24 20 LINE",
"24 0 LINE",
"216 0 LINE"
);
}
);
width = 608;
}
);
leftKerningGroup = x;
rightKerningGroup = x;
unicode = 0078;
},
{
glyphname = y;
lastChange = "2020-05-07 14:22:43 +0000";
layers = (
{
layerId = "8E2477B1-6F82-4933-924D-A4D021D30CA2";
paths = (
{
closed = 1;
nodes = (
"303 30 LINE",
"135 510 LINE",
"84 510 LINE",
"280 -39 LINE"
);
},
{
closed = 1;
nodes = (
"570 550 LINE",
"359 550 LINE",
"359 510 LINE",
"570 510 LINE"
);
},
{
closed = 1;
nodes = (
"235 550 LINE",
"14 550 LINE",
"14 510 LINE",
"235 510 LINE"
);
},
{
closed = 1;
nodes = (
"45 -152 OFFCURVE",
"86 -200 OFFCURVE",
"156 -200 CURVE SMOOTH",
"229 -200 OFFCURVE",
"261 -160 OFFCURVE",
"291 -75 CURVE SMOOTH",
"500 510 LINE",
"454 510 LINE",
"283 25 LINE",
"274 4 LINE",
"248 -70 LINE SMOOTH",
"224 -139 OFFCURVE",
"202 -164 OFFCURVE",
"157 -164 CURVE SMOOTH",
"122 -164 OFFCURVE",
"102 -145 OFFCURVE",
"102 -120 CURVE SMOOTH",
"102 -100 OFFCURVE",
"109 -95 OFFCURVE",
"109 -74 CURVE SMOOTH",
"109 -56 OFFCURVE",
"99 -44 OFFCURVE",
"82 -44 CURVE SMOOTH",
"60 -44 OFFCURVE",
"45 -63 OFFCURVE",
"45 -92 CURVE SMOOTH"
);
}
);
width = 584;
},
{
layerId = "38DA3315-22D6-4CA2-8458-CB7E0975637F";
paths = (
{
closed = 1;
nodes = (
"376 149 LINE",
"236 490 LINE",
"74 490 LINE",
"299 -20 LINE"
);
},
{
closed = 1;
nodes = (
"628 560 LINE",
"408 560 LINE",
"408 490 LINE",
"628 490 LINE"
);
},
{
closed = 1;
nodes = (
"326 560 LINE",
"14 560 LINE",
"14 490 LINE",
"326 490 LINE"
);
},
{
closed = 1;
nodes = (
"40 -158 OFFCURVE",
"94 -200 OFFCURVE",
"173 -200 CURVE SMOOTH",
"271 -200 OFFCURVE",
"315 -143 OFFCURVE",
"349 -57 CURVE SMOOTH",
"568 490 LINE",
"493 490 LINE",
"310 32 LINE",
"300 16 LINE",
"270 -55 LINE SMOOTH",
"248 -108 OFFCURVE",
"222 -134 OFFCURVE",
"185 -134 CURVE SMOOTH",
"168 -134 OFFCURVE",
"161 -126 OFFCURVE",
"161 -111 CURVE SMOOTH",
"161 -98 OFFCURVE",
"164 -88 OFFCURVE",
"164 -70 CURVE SMOOTH",
"164 -38 OFFCURVE",
"147 -16 OFFCURVE",
"105 -16 CURVE SMOOTH",
"65 -16 OFFCURVE",
"40 -43 OFFCURVE",
"40 -90 CURVE SMOOTH"
);
}
);
width = 642;
},
{
layerId = "15B5FD12-AAB5-4088-829B-CB8139BF8816";
paths = (
{
closed = 1;
nodes = (
"377 166 LINE",
"223 540 LINE",
"62 540 LINE",
"307 -30 LINE"
);
},
{
closed = 1;
nodes = (
"598 560 LINE",
"419 560 LINE",
"419 540 LINE",
"598 540 LINE"
);
},
{
closed = 1;
nodes = (
"323 560 LINE",
"2 560 LINE",
"2 540 LINE",
"323 540 LINE"
);
},
{
closed = 1;
nodes = (
"28 -159 OFFCURVE",
"76 -198 OFFCURVE",
"156 -198 CURVE SMOOTH",
"237 -198 OFFCURVE",
"268 -149 OFFCURVE",
"290 -93 CURVE SMOOTH",
"538 540 LINE",
"514 540 LINE",
"312 25 LINE",
"308 16 LINE",
"268 -86 LINE SMOOTH",
"249 -135 OFFCURVE",
"227 -168 OFFCURVE",
"184 -168 CURVE SMOOTH",
"155 -168 OFFCURVE",
"142 -154 OFFCURVE",
"142 -132 CURVE SMOOTH",
"142 -116 OFFCURVE",
"148 -103 OFFCURVE",
"148 -82 CURVE SMOOTH",
"148 -49 OFFCURVE",
"132 -25 OFFCURVE",
"92 -25 CURVE SMOOTH",
"55 -25 OFFCURVE",
"28 -51 OFFCURVE",
"28 -91 CURVE SMOOTH"
);
}
);
width = 600;
},
{
layerId = "CA54B7DC-FBBB-40FE-ACF3-AABDD76D6A7B";
paths = (
{
closed = 1;
nodes = (
"295 50 LINE",
"125 530 LINE",
"74 530 LINE",
"273 -23 LINE"
);
},
{
closed = 1;
nodes = (
"556 550 LINE",
"358 550 LINE",
"358 530 LINE",
"556 530 LINE"
);
},
{
closed = 1;
nodes = (
"235 550 LINE",
"4 550 LINE",
"4 530 LINE",
"235 530 LINE"
);
},
{
closed = 1;
nodes = (
"43 -161 OFFCURVE",
"77 -200 OFFCURVE",
"145 -200 CURVE SMOOTH",
"209 -200 OFFCURVE",
"237 -162 OFFCURVE",
"261 -95 CURVE SMOOTH",
"486 530 LINE",
"463 530 LINE",
"283 27 LINE",
"275 8 LINE",
"239 -91 LINE SMOOTH",
"217 -151 OFFCURVE",
"193 -181 OFFCURVE",
"144 -181 CURVE SMOOTH",
"106 -181 OFFCURVE",
"82 -159 OFFCURVE",
"82 -124 CURVE SMOOTH",
"82 -104 OFFCURVE",
"90 -98 OFFCURVE",
"90 -80 CURVE SMOOTH",
"90 -67 OFFCURVE",
"82 -59 OFFCURVE",
"70 -59 CURVE SMOOTH",
"54 -59 OFFCURVE",
"43 -74 OFFCURVE",
"43 -101 CURVE SMOOTH"
);
}
);
width = 560;
}
);
leftKerningGroup = v;
leftMetricsKey = v;
rightKerningGroup = v;
rightMetricsKey = v;
unicode = 0079;
},
{
glyphname = z;
lastChange = "2020-05-07 14:09:43 +0000";
layers = (
{
layerId = "8E2477B1-6F82-4933-924D-A4D021D30CA2";
paths = (
{
closed = 1;
nodes = (
"78 510 LINE",
"427 510 LINE",
"488 512 LINE",
"488 550 LINE",
"78 550 LINE"
);
},
{
closed = 1;
nodes = (
"62 0 LINE",
"492 0 LINE",
"492 40 LINE",
"123 40 LINE",
"62 38 LINE"
);
},
{
closed = 1;
nodes = (
"123 40 LINE",
"488 512 LINE",
"427 510 LINE",
"62 38 LINE"
);
},
{
closed = 1;
nodes = (
"78 510 LINE",
"78 390 LINE",
"118 390 LINE",
"118 446 LINE SMOOTH",
"118 495 OFFCURVE",
"129 510 OFFCURVE",
"182 510 CURVE"
);
},
{
closed = 1;
nodes = (
"492 40 LINE",
"492 170 LINE",
"452 170 LINE",
"452 104 LINE SMOOTH",
"452 55 OFFCURVE",
"441 40 OFFCURVE",
"388 40 CURVE"
);
}
);
width = 566;
},
{
layerId = "38DA3315-22D6-4CA2-8458-CB7E0975637F";
paths = (
{
closed = 1;
nodes = (
"74 492 LINE",
"371 490 LINE",
"552 496 LINE",
"552 560 LINE",
"74 562 LINE"
);
},
{
closed = 1;
nodes = (
"52 0 LINE",
"552 0 LINE",
"552 70 LINE",
"233 70 LINE",
"52 64 LINE"
);
},
{
closed = 1;
nodes = (
"233 70 LINE",
"552 496 LINE",
"371 490 LINE",
"52 64 LINE"
);
},
{
closed = 1;
nodes = (
"74 492 LINE",
"74 362 LINE",
"144 362 LINE",
"144 398 LINE",
"144 470 OFFCURVE",
"160 492 OFFCURVE",
"238 492 CURVE SMOOTH"
);
},
{
closed = 1;
nodes = (
"552 70 LINE",
"552 210 LINE",
"482 210 LINE",
"482 164 LINE SMOOTH",
"482 92 OFFCURVE",
"466 70 OFFCURVE",
"388 70 CURVE"
);
}
);
width = 600;
},
{
layerId = "15B5FD12-AAB5-4088-829B-CB8139BF8816";
paths = (
{
closed = 1;
nodes = (
"64 540 LINE",
"349 540 LINE",
"520 542 LINE",
"520 560 LINE",
"64 560 LINE"
);
},
{
closed = 1;
nodes = (
"32 0 LINE",
"516 0 LINE",
"516 20 LINE",
"203 20 LINE",
"32 18 LINE"
);
},
{
closed = 1;
nodes = (
"203 20 LINE",
"520 542 LINE",
"349 540 LINE",
"32 18 LINE"
);
},
{
closed = 1;
nodes = (
"64 540 LINE",
"64 395 LINE",
"86 395 LINE",
"86 446 LINE SMOOTH",
"86 518 OFFCURVE",
"102 540 OFFCURVE",
"180 540 CURVE"
);
},
{
closed = 1;
nodes = (
"516 20 LINE",
"516 175 LINE",
"494 175 LINE",
"494 114 LINE SMOOTH",
"494 42 OFFCURVE",
"478 20 OFFCURVE",
"400 20 CURVE"
);
}
);
width = 558;
},
{
layerId = "CA54B7DC-FBBB-40FE-ACF3-AABDD76D6A7B";
paths = (
{
closed = 1;
nodes = (
"78 530 LINE",
"421 530 LINE",
"480 532 LINE",
"480 550 LINE",
"78 550 LINE"
);
},
{
closed = 1;
nodes = (
"52 0 LINE",
"482 0 LINE",
"482 20 LINE",
"111 20 LINE",
"52 18 LINE"
);
},
{
closed = 1;
nodes = (
"111 20 LINE",
"480 532 LINE",
"421 530 LINE",
"52 18 LINE"
);
},
{
closed = 1;
nodes = (
"78 530 LINE",
"78 395 LINE",
"100 395 LINE",
"100 466 LINE SMOOTH",
"100 515 OFFCURVE",
"111 530 OFFCURVE",
"164 530 CURVE"
);
},
{
closed = 1;
nodes = (
"482 20 LINE",
"482 165 LINE",
"460 165 LINE",
"460 84 LINE SMOOTH",
"460 35 OFFCURVE",
"449 20 OFFCURVE",
"396 20 CURVE"
);
}
);
width = 538;
}
);
leftKerningGroup = z;
rightKerningGroup = z;
unicode = 007A;
},
{
export = 0;
glyphname = idotless.ss01;
lastChange = "2020-05-07 14:07:14 +0000";
layers = (
{
anchors = (
{
name = top;
position = "{135, 550}";
}
);
layerId = "CA54B7DC-FBBB-40FE-ACF3-AABDD76D6A7B";
paths = (
{
closed = 1;
nodes = (
"110 90 LINE SMOOTH",
"110 18 OFFCURVE",
"151 -10 OFFCURVE",
"196 -10 CURVE SMOOTH",
"243 -10 OFFCURVE",
"270 21 OFFCURVE",
"270 76 CURVE SMOOTH",
"270 96 LINE",
"250 96 LINE",
"250 76 LINE SMOOTH",
"250 37 OFFCURVE",
"236 12 OFFCURVE",
"205 12 CURVE SMOOTH",
"174 12 OFFCURVE",
"160 37 OFFCURVE",
"160 76 CURVE SMOOTH",
"160 550 LINE",
"110 550 LINE"
);
},
{
closed = 1;
nodes = (
"20 530 LINE",
"160 530 LINE",
"160 550 LINE",
"20 550 LINE"
);
}
);
width = 290;
},
{
anchors = (
{
name = top;
position = "{125, 550}";
}
);
layerId = "15B5FD12-AAB5-4088-829B-CB8139BF8816";
paths = (
{
closed = 1;
nodes = (
"100 90 LINE SMOOTH",
"100 18 OFFCURVE",
"141 -10 OFFCURVE",
"186 -10 CURVE SMOOTH",
"233 -10 OFFCURVE",
"260 21 OFFCURVE",
"260 76 CURVE SMOOTH",
"260 96 LINE",
"240 96 LINE",
"240 76 LINE SMOOTH",
"240 37 OFFCURVE",
"226 12 OFFCURVE",
"195 12 CURVE SMOOTH",
"164 12 OFFCURVE",
"150 37 OFFCURVE",
"150 76 CURVE SMOOTH",
"150 550 LINE",
"100 550 LINE"
);
},
{
closed = 1;
nodes = (
"10 530 LINE",
"150 530 LINE",
"150 550 LINE",
"10 550 LINE"
);
}
);
width = 270;
},
{
anchors = (
{
name = top;
position = "{145, 550}";
}
);
layerId = "8E2477B1-6F82-4933-924D-A4D021D30CA2";
paths = (
{
closed = 1;
nodes = (
"120 86 LINE SMOOTH",
"120 21 OFFCURVE",
"156 -10 OFFCURVE",
"208 -10 CURVE SMOOTH",
"260 -10 OFFCURVE",
"292 21 OFFCURVE",
"292 76 CURVE SMOOTH",
"292 96 LINE",
"250 96 LINE",
"250 74 LINE SMOOTH",
"250 47 OFFCURVE",
"236 30 OFFCURVE",
"210 30 CURVE SMOOTH",
"186 30 OFFCURVE",
"170 47 OFFCURVE",
"170 74 CURVE SMOOTH",
"170 550 LINE",
"120 550 LINE"
);
},
{
closed = 1;
nodes = (
"30 510 LINE",
"170 510 LINE",
"170 550 LINE",
"30 550 LINE"
);
}
);
width = 322;
},
{
anchors = (
{
name = top;
position = "{141, 550}";
}
);
layerId = "38DA3315-22D6-4CA2-8458-CB7E0975637F";
paths = (
{
closed = 1;
nodes = (
"116 86 LINE SMOOTH",
"116 21 OFFCURVE",
"152 -10 OFFCURVE",
"204 -10 CURVE SMOOTH",
"256 -10 OFFCURVE",
"288 21 OFFCURVE",
"288 76 CURVE SMOOTH",
"288 96 LINE",
"246 96 LINE",
"246 74 LINE SMOOTH",
"246 47 OFFCURVE",
"232 30 OFFCURVE",
"206 30 CURVE SMOOTH",
"182 30 OFFCURVE",
"166 47 OFFCURVE",
"166 74 CURVE SMOOTH",
"166 550 LINE",
"116 550 LINE"
);
},
{
closed = 1;
nodes = (
"26 510 LINE",
"166 510 LINE",
"166 550 LINE",
"26 550 LINE"
);
}
);
width = 314;
}
);
leftMetricsKey = l;
rightMetricsKey = l;
},
{
export = 0;
glyphname = l.ss01;
lastChange = "2020-05-07 06:17:02 +0000";
layers = (
{
layerId = "8E2477B1-6F82-4933-924D-A4D021D30CA2";
paths = (
{
closed = 1;
nodes = (
"105 86 LINE SMOOTH",
"105 21 OFFCURVE",
"141 -10 OFFCURVE",
"193 -10 CURVE SMOOTH",
"245 -10 OFFCURVE",
"277 21 OFFCURVE",
"277 76 CURVE SMOOTH",
"277 96 LINE",
"235 96 LINE",
"235 74 LINE SMOOTH",
"235 47 OFFCURVE",
"221 30 OFFCURVE",
"195 30 CURVE SMOOTH",
"171 30 OFFCURVE",
"155 47 OFFCURVE",
"155 74 CURVE SMOOTH",
"155 760 LINE",
"105 760 LINE"
);
},
{
closed = 1;
nodes = (
"15 720 LINE",
"155 720 LINE",
"155 760 LINE",
"15 760 LINE"
);
}
);
width = 290;
},
{
layerId = "38DA3315-22D6-4CA2-8458-CB7E0975637F";
paths = (
{
closed = 1;
nodes = (
"105 86 LINE SMOOTH",
"105 21 OFFCURVE",
"141 -10 OFFCURVE",
"193 -10 CURVE SMOOTH",
"245 -10 OFFCURVE",
"277 21 OFFCURVE",
"277 76 CURVE SMOOTH",
"277 96 LINE",
"235 96 LINE",
"235 74 LINE SMOOTH",
"235 47 OFFCURVE",
"221 30 OFFCURVE",
"195 30 CURVE SMOOTH",
"171 30 OFFCURVE",
"155 47 OFFCURVE",
"155 74 CURVE SMOOTH",
"155 760 LINE",
"105 760 LINE"
);
},
{
closed = 1;
nodes = (
"15 720 LINE",
"155 720 LINE",
"155 760 LINE",
"15 760 LINE"
);
}
);
width = 292;
},
{
layerId = "15B5FD12-AAB5-4088-829B-CB8139BF8816";
paths = (
{
closed = 1;
nodes = (
"105 90 LINE SMOOTH",
"105 18 OFFCURVE",
"146 -10 OFFCURVE",
"191 -10 CURVE SMOOTH",
"238 -10 OFFCURVE",
"265 21 OFFCURVE",
"265 76 CURVE SMOOTH",
"265 96 LINE",
"245 96 LINE",
"245 76 LINE SMOOTH",
"245 37 OFFCURVE",
"231 12 OFFCURVE",
"200 12 CURVE SMOOTH",
"169 12 OFFCURVE",
"155 37 OFFCURVE",
"155 76 CURVE SMOOTH",
"155 760 LINE",
"105 760 LINE"
);
},
{
closed = 1;
nodes = (
"15 740 LINE",
"155 740 LINE",
"155 760 LINE",
"15 760 LINE"
);
}
);
width = 290;
},
{
layerId = "CA54B7DC-FBBB-40FE-ACF3-AABDD76D6A7B";
paths = (
{
closed = 1;
nodes = (
"105 90 LINE SMOOTH",
"105 18 OFFCURVE",
"146 -10 OFFCURVE",
"191 -10 CURVE SMOOTH",
"238 -10 OFFCURVE",
"265 21 OFFCURVE",
"265 76 CURVE SMOOTH",
"265 96 LINE",
"245 96 LINE",
"245 76 LINE SMOOTH",
"245 37 OFFCURVE",
"231 12 OFFCURVE",
"200 12 CURVE SMOOTH",
"169 12 OFFCURVE",
"155 37 OFFCURVE",
"155 76 CURVE SMOOTH",
"155 760 LINE",
"105 760 LINE"
);
},
{
closed = 1;
nodes = (
"15 740 LINE",
"155 740 LINE",
"155 760 LINE",
"15 760 LINE"
);
}
);
width = 290;
}
);
},
